M48
METRIC,LZ,000.000
;FILE_FORMAT=3:3
;TYPE=PLATED
;Layer: PTH_Through
;EasyEDA v6.5.51, 2026-01-24 23:07:51
;24400cab11b14a41ade87b5bf348eb15,64650944e1e6431b8ca2675abf886f56,10
;Gerber Generator version 0.2
;Holesize 1 = 0.305 mm
T01C0.305
;Holesize 2 = 0.600 mm
T02C0.600
;Holesize 3 = 0.891 mm
T03C0.891
;Holesize 4 = 0.914 mm
T04C0.914
;Holesize 5 = 0.915 mm
T05C0.915
;Holesize 6 = 0.950 mm
T06C0.950
;Holesize 7 = 1.000 mm
T07C1.000
;Holesize 8 = 2.301 mm
T08C2.301
;Holesize 9 = 2.500 mm
T09C2.500
%
G05
G90
T01
X039899Y-002845
X040513Y-007715
T02
X029204Y-022352G85X028104Y-022352
X026204Y-022352G85X025104Y-022352
X023204Y-022352G85X022104Y-022352
T03
X032763Y048771
X030223Y048771
X027686Y048765
X025146Y048773
X022606Y048773
X020066Y048768
T04
X025524Y019431G85X025530Y019431
T05
X025524Y016945G85X025530Y016945
X025524Y014460G85X025530Y014460
X025524Y011974G85X025530Y011974
X025524Y009398G85X025530Y009398
X025524Y007003G85X025530Y007003
X025524Y004518G85X025530Y004518
X025524Y002032G85X025530Y002032
X008890Y010795
X009017Y006858
X009017Y002921
X009017Y-001270
X009017Y-005334
X041910Y012700
X041910Y007620
X041910Y002540
X042037Y-001397
T06
X013009Y-018361G85X013014Y-018361
X013009Y-025361G85X013014Y-025361
T07
X037338Y-002794
X037338Y-000254
X037338Y002286
X037338Y004826
X037338Y007366
X037338Y009906
X037338Y012446
X037338Y014986
X037338Y017526
X037338Y020066
X037338Y022606
X037338Y025146
X037338Y027686
X037338Y030226
X037338Y032766
X037338Y035306
X037338Y037846
X037338Y040386
X037338Y042926
X037338Y045466
X037338Y048006
X037338Y050546
X014478Y050546
X014478Y048006
X014478Y045466
X014478Y042926
X014478Y040386
X014478Y037846
X014478Y035306
X014478Y032766
X014478Y030226
X014478Y027686
X014478Y025146
X014478Y022606
X014478Y020066
X014478Y017526
X014478Y014986
X014478Y012446
X014478Y009906
X014478Y007366
X014478Y004826
X014478Y002286
X014478Y-000254
X014478Y-002794
X031383Y-011384G85X031383Y-011384
X028843Y-011384G85X028843Y-011384
X026303Y-011384G85X026303Y-011384
X023763Y-011384G85X023763Y-011384
X021223Y-011384G85X021223Y-011384
X018683Y-011384G85X018683Y-011384
X016143Y-011384G85X016143Y-011384
X013603Y-011384G85X013603Y-011384
T08
X010301Y-015292G85X010301Y-015291
X010301Y-028431G85X010301Y-028432
T09
X041673Y-030434G85X041667Y-030434
X041673Y-012654G85X041667Y-012654
M30
