G04 Layer: BottomSilkscreenLayer*
G04 EasyEDA v6.5.51, 2026-01-24 23:07:51*
G04 24400cab11b14a41ade87b5bf348eb15,64650944e1e6431b8ca2675abf886f56,10*
G04 Gerber Generator version 0.2*
G04 Scale: 100 percent, Rotated: No, Reflected: No *
G04 Dimensions in millimeters *
G04 leading zeros omitted , absolute positions ,4 integer and 5 decimal *
%FSLAX45Y45*%
%MOMM*%

%ADD10C,0.1524*%
%ADD11C,0.2500*%
%ADD12C,0.2540*%
%ADD13C,0.0124*%

%LPD*%
D10*
X2492756Y-1779778D02*
G01*
X2503170Y-1769363D01*
X2518663Y-1764284D01*
X2539491Y-1764284D01*
X2554986Y-1769363D01*
X2565400Y-1779778D01*
X2565400Y-1790192D01*
X2560320Y-1800605D01*
X2554986Y-1805939D01*
X2544572Y-1811020D01*
X2513329Y-1821434D01*
X2503170Y-1826513D01*
X2497836Y-1831847D01*
X2492756Y-1842262D01*
X2492756Y-1857755D01*
X2503170Y-1868170D01*
X2518663Y-1873250D01*
X2539491Y-1873250D01*
X2554986Y-1868170D01*
X2565400Y-1857755D01*
X2458465Y-1764284D02*
G01*
X2432304Y-1873250D01*
X2406395Y-1764284D02*
G01*
X2432304Y-1873250D01*
X2406395Y-1764284D02*
G01*
X2380488Y-1873250D01*
X2354579Y-1764284D02*
G01*
X2380488Y-1873250D01*
X2320290Y-1785112D02*
G01*
X2309875Y-1779778D01*
X2294127Y-1764284D01*
X2294127Y-1873250D01*
X1905000Y-39115D02*
G01*
X1905000Y38862D01*
X1910079Y54355D01*
X1920494Y64770D01*
X1936241Y69850D01*
X1946656Y69850D01*
X1962150Y64770D01*
X1972563Y54355D01*
X1977643Y38862D01*
X1977643Y-39115D01*
X2011934Y-18287D02*
G01*
X2022347Y-23621D01*
X2038095Y-39115D01*
X2038095Y69850D01*
X2565527Y2119756D02*
G01*
X2565527Y2197735D01*
X2570606Y2213229D01*
X2581020Y2223643D01*
X2596768Y2228722D01*
X2607183Y2228722D01*
X2622677Y2223643D01*
X2633090Y2213229D01*
X2638170Y2197735D01*
X2638170Y2119756D01*
X2677795Y2145664D02*
G01*
X2677795Y2140585D01*
X2682875Y2130170D01*
X2688209Y2124837D01*
X2698622Y2119756D01*
X2719197Y2119756D01*
X2729611Y2124837D01*
X2734945Y2130170D01*
X2740025Y2140585D01*
X2740025Y2150998D01*
X2734945Y2161412D01*
X2724531Y2176906D01*
X2672461Y2228722D01*
X2745359Y2228722D01*
D11*
X2324232Y5238097D02*
G01*
X2324232Y5352651D01*
X2324232Y5238097D02*
G01*
X2373254Y5238097D01*
X2389764Y5243685D01*
X2395098Y5249019D01*
X2400686Y5259941D01*
X2400686Y5270863D01*
X2395098Y5281785D01*
X2389764Y5287373D01*
X2373254Y5292707D01*
X2324232Y5292707D02*
G01*
X2373254Y5292707D01*
X2389764Y5298295D01*
X2395098Y5303629D01*
X2400686Y5314551D01*
X2400686Y5330807D01*
X2395098Y5341729D01*
X2389764Y5347317D01*
X2373254Y5352651D01*
X2324232Y5352651D01*
X2436500Y5238097D02*
G01*
X2436500Y5352651D01*
X2436500Y5238097D02*
G01*
X2480188Y5352651D01*
X2523876Y5238097D02*
G01*
X2480188Y5352651D01*
X2523876Y5238097D02*
G01*
X2523876Y5352651D01*
X2559944Y5238097D02*
G01*
X2559944Y5352651D01*
X2559944Y5238097D02*
G01*
X2630810Y5238097D01*
X2559944Y5292707D02*
G01*
X2603378Y5292707D01*
X2559944Y5352651D02*
G01*
X2630810Y5352651D01*
X2732156Y5254607D02*
G01*
X2726822Y5243685D01*
X2710312Y5238097D01*
X2699390Y5238097D01*
X2683134Y5243685D01*
X2672212Y5259941D01*
X2666624Y5287373D01*
X2666624Y5314551D01*
X2672212Y5336395D01*
X2683134Y5347317D01*
X2699390Y5352651D01*
X2704978Y5352651D01*
X2721234Y5347317D01*
X2732156Y5336395D01*
X2737744Y5319885D01*
X2737744Y5314551D01*
X2732156Y5298295D01*
X2721234Y5287373D01*
X2704978Y5281785D01*
X2699390Y5281785D01*
X2683134Y5287373D01*
X2672212Y5298295D01*
X2666624Y5314551D01*
X2800990Y5238097D02*
G01*
X2784480Y5243685D01*
X2779146Y5254607D01*
X2779146Y5265529D01*
X2784480Y5276451D01*
X2795402Y5281785D01*
X2817246Y5287373D01*
X2833756Y5292707D01*
X2844424Y5303629D01*
X2850012Y5314551D01*
X2850012Y5330807D01*
X2844424Y5341729D01*
X2839090Y5347317D01*
X2822834Y5352651D01*
X2800990Y5352651D01*
X2784480Y5347317D01*
X2779146Y5341729D01*
X2773558Y5330807D01*
X2773558Y5314551D01*
X2779146Y5303629D01*
X2790068Y5292707D01*
X2806324Y5287373D01*
X2828168Y5281785D01*
X2839090Y5276451D01*
X2844424Y5265529D01*
X2844424Y5254607D01*
X2839090Y5243685D01*
X2822834Y5238097D01*
X2800990Y5238097D01*
X2918846Y5238097D02*
G01*
X2902336Y5243685D01*
X2891414Y5259941D01*
X2886080Y5287373D01*
X2886080Y5303629D01*
X2891414Y5330807D01*
X2902336Y5347317D01*
X2918846Y5352651D01*
X2929514Y5352651D01*
X2946024Y5347317D01*
X2956946Y5330807D01*
X2962280Y5303629D01*
X2962280Y5287373D01*
X2956946Y5259941D01*
X2946024Y5243685D01*
X2929514Y5238097D01*
X2918846Y5238097D01*
D12*
X3086100Y-2535199D02*
G01*
X2044700Y-2535199D01*
X3086100Y-1935200D02*
G01*
X2044700Y-1935200D01*
X3086100Y-1935200D02*
G01*
X3086100Y-2535199D01*
X2044700Y-1935200D02*
G01*
X2044700Y-2535199D01*
X2692400Y2133600D02*
G01*
X1155700Y2133600D01*
X1155700Y101600D01*
X2692400Y101600D01*
X2692400Y2133600D01*
X3789652Y2281580D02*
G01*
X1090015Y2281580D01*
X4089400Y5181600D02*
G01*
X1389763Y5181600D01*
X1089398Y4881628D02*
G01*
X1089398Y2281626D01*
X4089400Y5181600D02*
G01*
X4089400Y2581628D01*
X1752600Y4635500D02*
G01*
X3530600Y4635500D01*
X3530600Y5130800D01*
X1752600Y5130800D01*
X1752600Y4635500D01*
G75*
G01*
X1389606Y5181752D02*
G03*
X1089635Y4881522I28J-299999D01*
G75*
G01*
X3789652Y2281580D02*
G03*
X4089631Y2581549I-20J300000D01*
M02*
