G04 Layer: TopLayer*
G04 EasyEDA v6.5.51, 2026-01-24 23:07:51*
G04 24400cab11b14a41ade87b5bf348eb15,64650944e1e6431b8ca2675abf886f56,10*
G04 Gerber Generator version 0.2*
G04 Scale: 100 percent, Rotated: No, Reflected: No *
G04 Dimensions in millimeters *
G04 leading zeros omitted , absolute positions ,4 integer and 5 decimal *
%FSLAX45Y45*%
%MOMM*%

%AMMACRO1*21,1,$1,$2,0,0,$3*%
%ADD10C,0.2540*%
%ADD11MACRO1,0.864X0.8065X0.0000*%
%ADD12R,0.8640X0.8065*%
%ADD13C,1.6000*%
%ADD14C,3.5159*%
%ADD15O,2.91592X1.45796*%
%ADD16C,3.3160*%
%ADD17C,0.0198*%
%ADD18C,1.6764*%
%ADD19O,2.299995X1.199998*%
%ADD20C,1.5240*%
%ADD21C,1.6500*%
%ADD22MACRO1,1.65X1.65X0.0000*%
%ADD23C,1.6500*%
%ADD24C,0.6096*%

%LPD*%
G36*
X736092Y-3374085D02*
G01*
X732180Y-3373323D01*
X728878Y-3371087D01*
X726694Y-3367836D01*
X725932Y-3363925D01*
X725932Y5563920D01*
X726694Y5567832D01*
X728878Y5571083D01*
X732180Y5573318D01*
X736092Y5574080D01*
X4463948Y5574080D01*
X4467809Y5573318D01*
X4471111Y5571083D01*
X4473295Y5567832D01*
X4474108Y5563920D01*
X4474108Y-3363925D01*
X4473295Y-3367836D01*
X4471111Y-3371087D01*
X4467809Y-3373323D01*
X4463948Y-3374085D01*
G37*

%LPC*%
G36*
X4162145Y-3245053D02*
G01*
X4181601Y-3244545D01*
X4200956Y-3242208D01*
X4220006Y-3237992D01*
X4238498Y-3231997D01*
X4256379Y-3224225D01*
X4273397Y-3214725D01*
X4289450Y-3203651D01*
X4304334Y-3191103D01*
X4317949Y-3177133D01*
X4330192Y-3161944D01*
X4340860Y-3145637D01*
X4349902Y-3128416D01*
X4357268Y-3110331D01*
X4362805Y-3091688D01*
X4366564Y-3072536D01*
X4368444Y-3053130D01*
X4368444Y-3033674D01*
X4366564Y-3014268D01*
X4362805Y-2995117D01*
X4357268Y-2976473D01*
X4349902Y-2958388D01*
X4340860Y-2941167D01*
X4330192Y-2924860D01*
X4317949Y-2909671D01*
X4304334Y-2895701D01*
X4289450Y-2883154D01*
X4273397Y-2872079D01*
X4256379Y-2862580D01*
X4238498Y-2854807D01*
X4220006Y-2848813D01*
X4200956Y-2844596D01*
X4181601Y-2842260D01*
X4162145Y-2841752D01*
X4142689Y-2843174D01*
X4123486Y-2846476D01*
X4104690Y-2851607D01*
X4086453Y-2858516D01*
X4068978Y-2867152D01*
X4052417Y-2877413D01*
X4036923Y-2889250D01*
X4022648Y-2902508D01*
X4009745Y-2917088D01*
X3998264Y-2932887D01*
X3988409Y-2949651D01*
X3980179Y-2967329D01*
X3973728Y-2985719D01*
X3969054Y-3004667D01*
X3966260Y-3023920D01*
X3965295Y-3043428D01*
X3966260Y-3062884D01*
X3969054Y-3082137D01*
X3973728Y-3101086D01*
X3980179Y-3119475D01*
X3988409Y-3137154D01*
X3998264Y-3153918D01*
X4009745Y-3169716D01*
X4022648Y-3184296D01*
X4036923Y-3197555D01*
X4052417Y-3209391D01*
X4068978Y-3219653D01*
X4086453Y-3228289D01*
X4104690Y-3235198D01*
X4123486Y-3240328D01*
X4142689Y-3243630D01*
G37*
G36*
X1020521Y-3034588D02*
G01*
X1039672Y-3034588D01*
X1058672Y-3032709D01*
X1077417Y-3028899D01*
X1095654Y-3023260D01*
X1113282Y-3015843D01*
X1130046Y-3006699D01*
X1145844Y-2995930D01*
X1160475Y-2983687D01*
X1173835Y-2969971D01*
X1185722Y-2955036D01*
X1196086Y-2938983D01*
X1204823Y-2921965D01*
X1211834Y-2904185D01*
X1216964Y-2885795D01*
X1220317Y-2866999D01*
X1221740Y-2847949D01*
X1221232Y-2828848D01*
X1218895Y-2809849D01*
X1214628Y-2791206D01*
X1208532Y-2773121D01*
X1200658Y-2755696D01*
X1191107Y-2739136D01*
X1179982Y-2723642D01*
X1167333Y-2709316D01*
X1153312Y-2696311D01*
X1138072Y-2684780D01*
X1121765Y-2674823D01*
X1104544Y-2666492D01*
X1086612Y-2659989D01*
X1068070Y-2655265D01*
X1049172Y-2652420D01*
X1030122Y-2651455D01*
X1011021Y-2652420D01*
X992124Y-2655265D01*
X973582Y-2659989D01*
X955649Y-2666492D01*
X938428Y-2674823D01*
X922121Y-2684780D01*
X906881Y-2696311D01*
X892860Y-2709316D01*
X880211Y-2723642D01*
X869086Y-2739136D01*
X859536Y-2755696D01*
X851662Y-2773121D01*
X845566Y-2791206D01*
X841298Y-2809849D01*
X838962Y-2828848D01*
X838453Y-2847949D01*
X839876Y-2866999D01*
X843229Y-2885795D01*
X848360Y-2904185D01*
X855370Y-2921965D01*
X864108Y-2938983D01*
X874471Y-2955036D01*
X886358Y-2969971D01*
X899718Y-2983687D01*
X914349Y-2995930D01*
X930148Y-3006699D01*
X946912Y-3015843D01*
X964539Y-3023260D01*
X982776Y-3028899D01*
X1001521Y-3032709D01*
G37*
G36*
X1228547Y-2634945D02*
G01*
X1373682Y-2634945D01*
X1386890Y-2634081D01*
X1399590Y-2631541D01*
X1411833Y-2627426D01*
X1423416Y-2621686D01*
X1434134Y-2614523D01*
X1443888Y-2605989D01*
X1452372Y-2596286D01*
X1459585Y-2585516D01*
X1465275Y-2573934D01*
X1469440Y-2561691D01*
X1471930Y-2549042D01*
X1472793Y-2536139D01*
X1471930Y-2523236D01*
X1469440Y-2510586D01*
X1465275Y-2498344D01*
X1459585Y-2486761D01*
X1452372Y-2475992D01*
X1443888Y-2466289D01*
X1434134Y-2457754D01*
X1423416Y-2450592D01*
X1411833Y-2444851D01*
X1399590Y-2440736D01*
X1386890Y-2438196D01*
X1373682Y-2437333D01*
X1228547Y-2437333D01*
X1215339Y-2438196D01*
X1202639Y-2440736D01*
X1190396Y-2444851D01*
X1178814Y-2450592D01*
X1168095Y-2457754D01*
X1158341Y-2466289D01*
X1149858Y-2475992D01*
X1142644Y-2486761D01*
X1136954Y-2498344D01*
X1132789Y-2510586D01*
X1130300Y-2523236D01*
X1129436Y-2536139D01*
X1130300Y-2549042D01*
X1132789Y-2561691D01*
X1136954Y-2573934D01*
X1142644Y-2585516D01*
X1149858Y-2596286D01*
X1158341Y-2605989D01*
X1168095Y-2614523D01*
X1178814Y-2621686D01*
X1190396Y-2627426D01*
X1202639Y-2631541D01*
X1215339Y-2634081D01*
G37*
G36*
X2210765Y-2321102D02*
G01*
X2320036Y-2321102D01*
X2332634Y-2320188D01*
X2344572Y-2317597D01*
X2356053Y-2313330D01*
X2366822Y-2307437D01*
X2376627Y-2300122D01*
X2385314Y-2291435D01*
X2392629Y-2281631D01*
X2398522Y-2270861D01*
X2402789Y-2259380D01*
X2405481Y-2247138D01*
X2407005Y-2243531D01*
X2409799Y-2240788D01*
X2413457Y-2239314D01*
X2417368Y-2239314D01*
X2420975Y-2240788D01*
X2423769Y-2243531D01*
X2425344Y-2247138D01*
X2427986Y-2259380D01*
X2432253Y-2270861D01*
X2438146Y-2281631D01*
X2445512Y-2291435D01*
X2454148Y-2300122D01*
X2463952Y-2307437D01*
X2474722Y-2313330D01*
X2486202Y-2317597D01*
X2498191Y-2320188D01*
X2510739Y-2321102D01*
X2620060Y-2321102D01*
X2632608Y-2320188D01*
X2644597Y-2317597D01*
X2656078Y-2313330D01*
X2666847Y-2307437D01*
X2676652Y-2300122D01*
X2685288Y-2291435D01*
X2692654Y-2281631D01*
X2698496Y-2270861D01*
X2702814Y-2259380D01*
X2705455Y-2247138D01*
X2707030Y-2243531D01*
X2709824Y-2240788D01*
X2713431Y-2239314D01*
X2717342Y-2239314D01*
X2721000Y-2240788D01*
X2723794Y-2243531D01*
X2725318Y-2247138D01*
X2728010Y-2259380D01*
X2732278Y-2270861D01*
X2738170Y-2281631D01*
X2745486Y-2291435D01*
X2754172Y-2300122D01*
X2763977Y-2307437D01*
X2774746Y-2313330D01*
X2786227Y-2317597D01*
X2798165Y-2320188D01*
X2810764Y-2321102D01*
X2920034Y-2321102D01*
X2932633Y-2320188D01*
X2944571Y-2317597D01*
X2956052Y-2313330D01*
X2966821Y-2307437D01*
X2976626Y-2300122D01*
X2985312Y-2291435D01*
X2992628Y-2281631D01*
X2998520Y-2270861D01*
X3002788Y-2259380D01*
X3005429Y-2247442D01*
X3006293Y-2235200D01*
X3005429Y-2222957D01*
X3002788Y-2211019D01*
X2998520Y-2199538D01*
X2992628Y-2188768D01*
X2985312Y-2178964D01*
X2976626Y-2170277D01*
X2966821Y-2162962D01*
X2956052Y-2157069D01*
X2944571Y-2152802D01*
X2932633Y-2150211D01*
X2920034Y-2149297D01*
X2810764Y-2149297D01*
X2798165Y-2150211D01*
X2786227Y-2152802D01*
X2774746Y-2157069D01*
X2763977Y-2162962D01*
X2754172Y-2170277D01*
X2745486Y-2178964D01*
X2738170Y-2188768D01*
X2732278Y-2199538D01*
X2728010Y-2211019D01*
X2725318Y-2223262D01*
X2723794Y-2226868D01*
X2721000Y-2229612D01*
X2717342Y-2231085D01*
X2713431Y-2231085D01*
X2709824Y-2229612D01*
X2707030Y-2226868D01*
X2705455Y-2223262D01*
X2702814Y-2211019D01*
X2698496Y-2199538D01*
X2692654Y-2188768D01*
X2685288Y-2178964D01*
X2676652Y-2170277D01*
X2666847Y-2162962D01*
X2656078Y-2157069D01*
X2644597Y-2152802D01*
X2632608Y-2150211D01*
X2620060Y-2149297D01*
X2510739Y-2149297D01*
X2498191Y-2150211D01*
X2486202Y-2152802D01*
X2474722Y-2157069D01*
X2463952Y-2162962D01*
X2454148Y-2170277D01*
X2445512Y-2178964D01*
X2438146Y-2188768D01*
X2432253Y-2199538D01*
X2427986Y-2211019D01*
X2425344Y-2223262D01*
X2423769Y-2226868D01*
X2420975Y-2229612D01*
X2417368Y-2231085D01*
X2413457Y-2231085D01*
X2409799Y-2229612D01*
X2407005Y-2226868D01*
X2405481Y-2223262D01*
X2402789Y-2211019D01*
X2398522Y-2199538D01*
X2392629Y-2188768D01*
X2385314Y-2178964D01*
X2376627Y-2170277D01*
X2366822Y-2162962D01*
X2356053Y-2157069D01*
X2344572Y-2152802D01*
X2332634Y-2150211D01*
X2320036Y-2149297D01*
X2210765Y-2149297D01*
X2198166Y-2150211D01*
X2186228Y-2152802D01*
X2174748Y-2157069D01*
X2163978Y-2162962D01*
X2154174Y-2170277D01*
X2145487Y-2178964D01*
X2138172Y-2188768D01*
X2132279Y-2199538D01*
X2128012Y-2211019D01*
X2125370Y-2222957D01*
X2124506Y-2235200D01*
X2125370Y-2247442D01*
X2128012Y-2259380D01*
X2132279Y-2270861D01*
X2138172Y-2281631D01*
X2145487Y-2291435D01*
X2154174Y-2300122D01*
X2163978Y-2307437D01*
X2174748Y-2313330D01*
X2186228Y-2317597D01*
X2198166Y-2320188D01*
G37*
G36*
X1228547Y-1934972D02*
G01*
X1373682Y-1934972D01*
X1386890Y-1934057D01*
X1399590Y-1931568D01*
X1411833Y-1927402D01*
X1423416Y-1921713D01*
X1434134Y-1914499D01*
X1443888Y-1906016D01*
X1452372Y-1896262D01*
X1459585Y-1885543D01*
X1465275Y-1873961D01*
X1469440Y-1861718D01*
X1471930Y-1849018D01*
X1472793Y-1836166D01*
X1471930Y-1823262D01*
X1469440Y-1810562D01*
X1465275Y-1798320D01*
X1459585Y-1786737D01*
X1452372Y-1776018D01*
X1443888Y-1766265D01*
X1434134Y-1757781D01*
X1423416Y-1750568D01*
X1411833Y-1744878D01*
X1399590Y-1740712D01*
X1386890Y-1738223D01*
X1373682Y-1737360D01*
X1228547Y-1737360D01*
X1215339Y-1738223D01*
X1202639Y-1740712D01*
X1190396Y-1744878D01*
X1178814Y-1750568D01*
X1168095Y-1757781D01*
X1158341Y-1766265D01*
X1149858Y-1776018D01*
X1142644Y-1786737D01*
X1136954Y-1798320D01*
X1132789Y-1810562D01*
X1130300Y-1823262D01*
X1129436Y-1836166D01*
X1130300Y-1849018D01*
X1132789Y-1861718D01*
X1136954Y-1873961D01*
X1142644Y-1885543D01*
X1149858Y-1896262D01*
X1158341Y-1906016D01*
X1168095Y-1914499D01*
X1178814Y-1921713D01*
X1190396Y-1927402D01*
X1202639Y-1931568D01*
X1215339Y-1934057D01*
G37*
G36*
X1030122Y-1720850D02*
G01*
X1049172Y-1719884D01*
X1068070Y-1717039D01*
X1086612Y-1712315D01*
X1104544Y-1705813D01*
X1121765Y-1697482D01*
X1138072Y-1687525D01*
X1153312Y-1675993D01*
X1167333Y-1662988D01*
X1179982Y-1648663D01*
X1191107Y-1633169D01*
X1200658Y-1616608D01*
X1208532Y-1599184D01*
X1214628Y-1581099D01*
X1218895Y-1562455D01*
X1221232Y-1543456D01*
X1221740Y-1524355D01*
X1220317Y-1505305D01*
X1216964Y-1486509D01*
X1211834Y-1468120D01*
X1204823Y-1450340D01*
X1196086Y-1433322D01*
X1185722Y-1417269D01*
X1173835Y-1402334D01*
X1160475Y-1388618D01*
X1145844Y-1376375D01*
X1130046Y-1365605D01*
X1113282Y-1356461D01*
X1095654Y-1349044D01*
X1077417Y-1343406D01*
X1058672Y-1339596D01*
X1039672Y-1337716D01*
X1020521Y-1337716D01*
X1001521Y-1339596D01*
X982776Y-1343406D01*
X964539Y-1349044D01*
X946912Y-1356461D01*
X930148Y-1365605D01*
X914349Y-1376375D01*
X899718Y-1388618D01*
X886358Y-1402334D01*
X874471Y-1417269D01*
X864108Y-1433322D01*
X855370Y-1450340D01*
X848360Y-1468120D01*
X843229Y-1486509D01*
X839876Y-1505305D01*
X838453Y-1524355D01*
X838962Y-1543456D01*
X841298Y-1562455D01*
X845566Y-1581099D01*
X851662Y-1599184D01*
X859536Y-1616608D01*
X869086Y-1633169D01*
X880211Y-1648663D01*
X892860Y-1662988D01*
X906881Y-1675993D01*
X922121Y-1687525D01*
X938428Y-1697482D01*
X955649Y-1705813D01*
X973582Y-1712315D01*
X992124Y-1717039D01*
X1011021Y-1719884D01*
G37*
G36*
X4162145Y-1467053D02*
G01*
X4181601Y-1466545D01*
X4200956Y-1464208D01*
X4220006Y-1459992D01*
X4238498Y-1453997D01*
X4256379Y-1446225D01*
X4273397Y-1436725D01*
X4289450Y-1425651D01*
X4304334Y-1413103D01*
X4317949Y-1399133D01*
X4330192Y-1383944D01*
X4340860Y-1367637D01*
X4349902Y-1350416D01*
X4357268Y-1332331D01*
X4362805Y-1313688D01*
X4366564Y-1294536D01*
X4368444Y-1275130D01*
X4368444Y-1255674D01*
X4366564Y-1236268D01*
X4362805Y-1217117D01*
X4357268Y-1198473D01*
X4349902Y-1180388D01*
X4340860Y-1163167D01*
X4330192Y-1146860D01*
X4317949Y-1131671D01*
X4304334Y-1117701D01*
X4289450Y-1105154D01*
X4273397Y-1094079D01*
X4256379Y-1084580D01*
X4238498Y-1076807D01*
X4220006Y-1070813D01*
X4200956Y-1066596D01*
X4181601Y-1064260D01*
X4162145Y-1063752D01*
X4142689Y-1065174D01*
X4123486Y-1068476D01*
X4104690Y-1073607D01*
X4086453Y-1080516D01*
X4068978Y-1089152D01*
X4052417Y-1099413D01*
X4036923Y-1111250D01*
X4022648Y-1124508D01*
X4009745Y-1139088D01*
X3998264Y-1154887D01*
X3988409Y-1171651D01*
X3980179Y-1189329D01*
X3973728Y-1207719D01*
X3969054Y-1226667D01*
X3966260Y-1245920D01*
X3965295Y-1265428D01*
X3966260Y-1284884D01*
X3969054Y-1304137D01*
X3973728Y-1323086D01*
X3980179Y-1341475D01*
X3988409Y-1359154D01*
X3998264Y-1375918D01*
X4009745Y-1391716D01*
X4022648Y-1406296D01*
X4036923Y-1419555D01*
X4052417Y-1431391D01*
X4068978Y-1441653D01*
X4086453Y-1450289D01*
X4104690Y-1457198D01*
X4123486Y-1462328D01*
X4142689Y-1465630D01*
G37*
G36*
X2630322Y-1248105D02*
G01*
X2644343Y-1247190D01*
X2658110Y-1244498D01*
X2671470Y-1240078D01*
X2684119Y-1233982D01*
X2695905Y-1226312D01*
X2706624Y-1217218D01*
X2716072Y-1206804D01*
X2724099Y-1195273D01*
X2730601Y-1182827D01*
X2735478Y-1169619D01*
X2738577Y-1155903D01*
X2739948Y-1141933D01*
X2739491Y-1127861D01*
X2737256Y-1113993D01*
X2733243Y-1100531D01*
X2727553Y-1087678D01*
X2720289Y-1075639D01*
X2711500Y-1064666D01*
X2701391Y-1054862D01*
X2690164Y-1046480D01*
X2677922Y-1039571D01*
X2664866Y-1034287D01*
X2651252Y-1030732D01*
X2637332Y-1028903D01*
X2623261Y-1028903D01*
X2609342Y-1030732D01*
X2595727Y-1034287D01*
X2582672Y-1039571D01*
X2570429Y-1046480D01*
X2559202Y-1054862D01*
X2549093Y-1064666D01*
X2540304Y-1075639D01*
X2533040Y-1087678D01*
X2527350Y-1100531D01*
X2523337Y-1113993D01*
X2521102Y-1127861D01*
X2520645Y-1141933D01*
X2522016Y-1155903D01*
X2525115Y-1169619D01*
X2529992Y-1182827D01*
X2536494Y-1195273D01*
X2544521Y-1206804D01*
X2553970Y-1217218D01*
X2564688Y-1226312D01*
X2576474Y-1233982D01*
X2589123Y-1240078D01*
X2602484Y-1244498D01*
X2616250Y-1247190D01*
G37*
G36*
X2884322Y-1248105D02*
G01*
X2898343Y-1247190D01*
X2912110Y-1244498D01*
X2925470Y-1240078D01*
X2938119Y-1233982D01*
X2949905Y-1226312D01*
X2960624Y-1217218D01*
X2970072Y-1206804D01*
X2978099Y-1195273D01*
X2984601Y-1182827D01*
X2989478Y-1169619D01*
X2992577Y-1155903D01*
X2993948Y-1141933D01*
X2993491Y-1127861D01*
X2991256Y-1113993D01*
X2987243Y-1100531D01*
X2981553Y-1087678D01*
X2974289Y-1075639D01*
X2965500Y-1064666D01*
X2955391Y-1054862D01*
X2944164Y-1046480D01*
X2931922Y-1039571D01*
X2918866Y-1034287D01*
X2905252Y-1030732D01*
X2891332Y-1028903D01*
X2877261Y-1028903D01*
X2863342Y-1030732D01*
X2849727Y-1034287D01*
X2836672Y-1039571D01*
X2824429Y-1046480D01*
X2813202Y-1054862D01*
X2803093Y-1064666D01*
X2794304Y-1075639D01*
X2787040Y-1087678D01*
X2781350Y-1100531D01*
X2777337Y-1113993D01*
X2775102Y-1127861D01*
X2774645Y-1141933D01*
X2776016Y-1155903D01*
X2779115Y-1169619D01*
X2783992Y-1182827D01*
X2790494Y-1195273D01*
X2798521Y-1206804D01*
X2807970Y-1217218D01*
X2818688Y-1226312D01*
X2830474Y-1233982D01*
X2843123Y-1240078D01*
X2856484Y-1244498D01*
X2870250Y-1247190D01*
G37*
G36*
X2122322Y-1248105D02*
G01*
X2136343Y-1247190D01*
X2150110Y-1244498D01*
X2163470Y-1240078D01*
X2176119Y-1233982D01*
X2187905Y-1226312D01*
X2198624Y-1217218D01*
X2208072Y-1206804D01*
X2216099Y-1195273D01*
X2222601Y-1182827D01*
X2227478Y-1169619D01*
X2230577Y-1155903D01*
X2231948Y-1141933D01*
X2231491Y-1127861D01*
X2229256Y-1113993D01*
X2225243Y-1100531D01*
X2219553Y-1087678D01*
X2212289Y-1075639D01*
X2203500Y-1064666D01*
X2193391Y-1054862D01*
X2182164Y-1046480D01*
X2169922Y-1039571D01*
X2156866Y-1034287D01*
X2143252Y-1030732D01*
X2129332Y-1028903D01*
X2115261Y-1028903D01*
X2101342Y-1030732D01*
X2087727Y-1034287D01*
X2074672Y-1039571D01*
X2062429Y-1046480D01*
X2051202Y-1054862D01*
X2041093Y-1064666D01*
X2032304Y-1075639D01*
X2025040Y-1087678D01*
X2019350Y-1100531D01*
X2015337Y-1113993D01*
X2013102Y-1127861D01*
X2012645Y-1141933D01*
X2014016Y-1155903D01*
X2017115Y-1169619D01*
X2021992Y-1182827D01*
X2028494Y-1195273D01*
X2036521Y-1206804D01*
X2045970Y-1217218D01*
X2056688Y-1226312D01*
X2068474Y-1233982D01*
X2081123Y-1240078D01*
X2094484Y-1244498D01*
X2108250Y-1247190D01*
G37*
G36*
X2376322Y-1248105D02*
G01*
X2390343Y-1247190D01*
X2404110Y-1244498D01*
X2417470Y-1240078D01*
X2430119Y-1233982D01*
X2441905Y-1226312D01*
X2452624Y-1217218D01*
X2462072Y-1206804D01*
X2470099Y-1195273D01*
X2476601Y-1182827D01*
X2481478Y-1169619D01*
X2484577Y-1155903D01*
X2485948Y-1141933D01*
X2485491Y-1127861D01*
X2483256Y-1113993D01*
X2479243Y-1100531D01*
X2473553Y-1087678D01*
X2466289Y-1075639D01*
X2457500Y-1064666D01*
X2447391Y-1054862D01*
X2436164Y-1046480D01*
X2423922Y-1039571D01*
X2410866Y-1034287D01*
X2397252Y-1030732D01*
X2383332Y-1028903D01*
X2369261Y-1028903D01*
X2355342Y-1030732D01*
X2341727Y-1034287D01*
X2328672Y-1039571D01*
X2316429Y-1046480D01*
X2305202Y-1054862D01*
X2295093Y-1064666D01*
X2286304Y-1075639D01*
X2279040Y-1087678D01*
X2273350Y-1100531D01*
X2269337Y-1113993D01*
X2267102Y-1127861D01*
X2266645Y-1141933D01*
X2268016Y-1155903D01*
X2271115Y-1169619D01*
X2275992Y-1182827D01*
X2282494Y-1195273D01*
X2290521Y-1206804D01*
X2299970Y-1217218D01*
X2310688Y-1226312D01*
X2322474Y-1233982D01*
X2335123Y-1240078D01*
X2348484Y-1244498D01*
X2362250Y-1247190D01*
G37*
G36*
X3138322Y-1248105D02*
G01*
X3152343Y-1247190D01*
X3166110Y-1244498D01*
X3179470Y-1240078D01*
X3192119Y-1233982D01*
X3203905Y-1226312D01*
X3214624Y-1217218D01*
X3224072Y-1206804D01*
X3232099Y-1195273D01*
X3238601Y-1182827D01*
X3243478Y-1169619D01*
X3246577Y-1155903D01*
X3247948Y-1141933D01*
X3247491Y-1127861D01*
X3245256Y-1113993D01*
X3241243Y-1100531D01*
X3235553Y-1087678D01*
X3228289Y-1075639D01*
X3219500Y-1064666D01*
X3209391Y-1054862D01*
X3198164Y-1046480D01*
X3185922Y-1039571D01*
X3172866Y-1034287D01*
X3159252Y-1030732D01*
X3145332Y-1028903D01*
X3131261Y-1028903D01*
X3117342Y-1030732D01*
X3103727Y-1034287D01*
X3090672Y-1039571D01*
X3078429Y-1046480D01*
X3067202Y-1054862D01*
X3057093Y-1064666D01*
X3048304Y-1075639D01*
X3041040Y-1087678D01*
X3035350Y-1100531D01*
X3031337Y-1113993D01*
X3029102Y-1127861D01*
X3028645Y-1141933D01*
X3030016Y-1155903D01*
X3033115Y-1169619D01*
X3037992Y-1182827D01*
X3044494Y-1195273D01*
X3052521Y-1206804D01*
X3061970Y-1217218D01*
X3072688Y-1226312D01*
X3084474Y-1233982D01*
X3097123Y-1240078D01*
X3110484Y-1244498D01*
X3124250Y-1247190D01*
G37*
G36*
X1868322Y-1248105D02*
G01*
X1882343Y-1247190D01*
X1896110Y-1244498D01*
X1909470Y-1240078D01*
X1922119Y-1233982D01*
X1933905Y-1226312D01*
X1944624Y-1217218D01*
X1954072Y-1206804D01*
X1962099Y-1195273D01*
X1968601Y-1182827D01*
X1973478Y-1169619D01*
X1976577Y-1155903D01*
X1977948Y-1141933D01*
X1977491Y-1127861D01*
X1975256Y-1113993D01*
X1971243Y-1100531D01*
X1965553Y-1087678D01*
X1958289Y-1075639D01*
X1949500Y-1064666D01*
X1939391Y-1054862D01*
X1928164Y-1046480D01*
X1915922Y-1039571D01*
X1902866Y-1034287D01*
X1889252Y-1030732D01*
X1875332Y-1028903D01*
X1861261Y-1028903D01*
X1847342Y-1030732D01*
X1833727Y-1034287D01*
X1820672Y-1039571D01*
X1808429Y-1046480D01*
X1797202Y-1054862D01*
X1787093Y-1064666D01*
X1778304Y-1075639D01*
X1771040Y-1087678D01*
X1765350Y-1100531D01*
X1761337Y-1113993D01*
X1759102Y-1127861D01*
X1758645Y-1141933D01*
X1760016Y-1155903D01*
X1763115Y-1169619D01*
X1767992Y-1182827D01*
X1774494Y-1195273D01*
X1782521Y-1206804D01*
X1791970Y-1217218D01*
X1802688Y-1226312D01*
X1814474Y-1233982D01*
X1827123Y-1240078D01*
X1840484Y-1244498D01*
X1854250Y-1247190D01*
G37*
G36*
X1360322Y-1248105D02*
G01*
X1374343Y-1247190D01*
X1388110Y-1244498D01*
X1401470Y-1240078D01*
X1414119Y-1233982D01*
X1425905Y-1226312D01*
X1436624Y-1217218D01*
X1446072Y-1206804D01*
X1454099Y-1195273D01*
X1460601Y-1182827D01*
X1465478Y-1169619D01*
X1468577Y-1155903D01*
X1469948Y-1141933D01*
X1469491Y-1127861D01*
X1467256Y-1113993D01*
X1463243Y-1100531D01*
X1457553Y-1087678D01*
X1450289Y-1075639D01*
X1441500Y-1064666D01*
X1431391Y-1054862D01*
X1420164Y-1046480D01*
X1407922Y-1039571D01*
X1394866Y-1034287D01*
X1381252Y-1030732D01*
X1367332Y-1028903D01*
X1353261Y-1028903D01*
X1339342Y-1030732D01*
X1325727Y-1034287D01*
X1312672Y-1039571D01*
X1300429Y-1046480D01*
X1289202Y-1054862D01*
X1279093Y-1064666D01*
X1270304Y-1075639D01*
X1263040Y-1087678D01*
X1257350Y-1100531D01*
X1253337Y-1113993D01*
X1251102Y-1127861D01*
X1250645Y-1141933D01*
X1252016Y-1155903D01*
X1255115Y-1169619D01*
X1259992Y-1182827D01*
X1266494Y-1195273D01*
X1274521Y-1206804D01*
X1283970Y-1217218D01*
X1294688Y-1226312D01*
X1306474Y-1233982D01*
X1319123Y-1240078D01*
X1332484Y-1244498D01*
X1346250Y-1247190D01*
G37*
G36*
X1662582Y-1236675D02*
G01*
X1668119Y-1233982D01*
X1679905Y-1226312D01*
X1690624Y-1217218D01*
X1700072Y-1206804D01*
X1708099Y-1195273D01*
X1712620Y-1186688D01*
X1662582Y-1186688D01*
G37*
G36*
X1566062Y-1236675D02*
G01*
X1566062Y-1186688D01*
X1515973Y-1186688D01*
X1520494Y-1195273D01*
X1528521Y-1206804D01*
X1537970Y-1217218D01*
X1548688Y-1226312D01*
X1560474Y-1233982D01*
G37*
G36*
X1662582Y-1090168D02*
G01*
X1712671Y-1090168D01*
X1711553Y-1087678D01*
X1704289Y-1075639D01*
X1695500Y-1064666D01*
X1685391Y-1054862D01*
X1674164Y-1046480D01*
X1662582Y-1039926D01*
G37*
G36*
X1515922Y-1090168D02*
G01*
X1566062Y-1090168D01*
X1566062Y-1039926D01*
X1554429Y-1046480D01*
X1543202Y-1054862D01*
X1533093Y-1064666D01*
X1524304Y-1075639D01*
X1517040Y-1087678D01*
G37*
G36*
X4051300Y-827786D02*
G01*
X4061104Y-826922D01*
X4070553Y-824382D01*
X4079494Y-820267D01*
X4087520Y-814628D01*
X4094479Y-807669D01*
X4100118Y-799642D01*
X4104233Y-790702D01*
X4106773Y-781253D01*
X4107637Y-771448D01*
X4106773Y-761644D01*
X4105554Y-757072D01*
X4105351Y-752805D01*
X4106926Y-748842D01*
X4114698Y-741375D01*
X4117797Y-736447D01*
X4119676Y-731012D01*
X4120387Y-724662D01*
X4120387Y-645160D01*
X4119676Y-638860D01*
X4117797Y-633374D01*
X4114698Y-628497D01*
X4110634Y-624382D01*
X4105706Y-621334D01*
X4099661Y-619201D01*
X4096105Y-617067D01*
X4093667Y-613664D01*
X4092854Y-609600D01*
X4093667Y-605536D01*
X4096105Y-602132D01*
X4099661Y-599998D01*
X4105706Y-597865D01*
X4110634Y-594817D01*
X4114698Y-590702D01*
X4117797Y-585825D01*
X4119676Y-580339D01*
X4120387Y-574040D01*
X4120387Y-494538D01*
X4119676Y-488188D01*
X4117797Y-482752D01*
X4114698Y-477824D01*
X4110634Y-473760D01*
X4105706Y-470662D01*
X4100271Y-468731D01*
X4095394Y-467563D01*
X4092498Y-465277D01*
X4090568Y-462127D01*
X4089908Y-458520D01*
X4089908Y-346405D01*
X4089095Y-338378D01*
X4086910Y-331165D01*
X4083354Y-324459D01*
X4078274Y-318262D01*
X4049014Y-289001D01*
X4046982Y-286105D01*
X4046067Y-282702D01*
X4045356Y-274675D01*
X4042816Y-265226D01*
X4038701Y-256286D01*
X4033062Y-248259D01*
X4026103Y-241300D01*
X4018076Y-235661D01*
X4009136Y-231546D01*
X3999687Y-229006D01*
X3989882Y-228142D01*
X3980078Y-229006D01*
X3970629Y-231546D01*
X3961688Y-235661D01*
X3953662Y-241300D01*
X3946702Y-248259D01*
X3941064Y-256286D01*
X3936949Y-265226D01*
X3934409Y-274675D01*
X3933545Y-284480D01*
X3934409Y-294284D01*
X3936949Y-303733D01*
X3941064Y-312674D01*
X3946702Y-320700D01*
X3953662Y-327660D01*
X3961688Y-333298D01*
X3970629Y-337413D01*
X3980078Y-339953D01*
X3988104Y-340664D01*
X3991508Y-341579D01*
X3994404Y-343611D01*
X4009694Y-358902D01*
X4011929Y-362204D01*
X4012692Y-366115D01*
X4012692Y-458520D01*
X4012031Y-462127D01*
X4010101Y-465277D01*
X4007205Y-467563D01*
X4002328Y-468731D01*
X3996893Y-470662D01*
X3991965Y-473760D01*
X3987901Y-477824D01*
X3984802Y-482752D01*
X3982923Y-488188D01*
X3982212Y-494538D01*
X3982212Y-574040D01*
X3982923Y-580339D01*
X3984802Y-585825D01*
X3987901Y-590702D01*
X3991965Y-594817D01*
X3996893Y-597865D01*
X4002938Y-599998D01*
X4006494Y-602132D01*
X4008932Y-605536D01*
X4009745Y-609600D01*
X4008932Y-613664D01*
X4006494Y-617067D01*
X4002938Y-619201D01*
X3996893Y-621334D01*
X3991965Y-624382D01*
X3987901Y-628497D01*
X3984802Y-633374D01*
X3982923Y-638860D01*
X3982212Y-645160D01*
X3982212Y-724662D01*
X3982923Y-731012D01*
X3984802Y-736447D01*
X3987901Y-741375D01*
X3995674Y-748842D01*
X3997248Y-752805D01*
X3997045Y-757072D01*
X3995826Y-761644D01*
X3994962Y-771448D01*
X3995826Y-781253D01*
X3998366Y-790702D01*
X4002481Y-799642D01*
X4008120Y-807669D01*
X4015079Y-814628D01*
X4023106Y-820267D01*
X4032046Y-824382D01*
X4041495Y-826922D01*
G37*
G36*
X857250Y-625195D02*
G01*
X857250Y-577850D01*
X809904Y-577850D01*
X810564Y-579424D01*
X817524Y-591159D01*
X826008Y-601878D01*
X835812Y-611378D01*
X846785Y-619455D01*
G37*
G36*
X946150Y-625043D02*
G01*
X950772Y-622909D01*
X962253Y-615594D01*
X972667Y-606806D01*
X981811Y-596646D01*
X989533Y-585419D01*
X993343Y-577850D01*
X946150Y-577850D01*
G37*
G36*
X946150Y-488950D02*
G01*
X993343Y-488950D01*
X989533Y-481380D01*
X981811Y-470154D01*
X972667Y-460044D01*
X962253Y-451205D01*
X950772Y-443890D01*
X946150Y-441756D01*
G37*
G36*
X809904Y-488950D02*
G01*
X857250Y-488950D01*
X857250Y-441604D01*
X846785Y-447344D01*
X835812Y-455422D01*
X826008Y-464921D01*
X817524Y-475640D01*
X810564Y-487375D01*
G37*
G36*
X3733800Y-385267D02*
G01*
X3747617Y-384352D01*
X3761181Y-381660D01*
X3774338Y-377240D01*
X3786733Y-371094D01*
X3798265Y-363423D01*
X3808679Y-354279D01*
X3817823Y-343865D01*
X3825494Y-332333D01*
X3831640Y-319938D01*
X3836060Y-306781D01*
X3838752Y-293217D01*
X3839667Y-279400D01*
X3838752Y-265582D01*
X3836060Y-251967D01*
X3831640Y-238861D01*
X3825494Y-226466D01*
X3817823Y-214934D01*
X3808679Y-204520D01*
X3798265Y-195376D01*
X3786733Y-187706D01*
X3774338Y-181559D01*
X3761181Y-177139D01*
X3747617Y-174396D01*
X3733800Y-173532D01*
X3719982Y-174396D01*
X3706368Y-177139D01*
X3693261Y-181559D01*
X3680866Y-187706D01*
X3669334Y-195376D01*
X3658920Y-204520D01*
X3649776Y-214934D01*
X3642106Y-226466D01*
X3635959Y-238861D01*
X3631539Y-251967D01*
X3628796Y-265582D01*
X3627932Y-279400D01*
X3628796Y-293217D01*
X3631539Y-306781D01*
X3635959Y-319938D01*
X3642106Y-332333D01*
X3649776Y-343865D01*
X3658920Y-354279D01*
X3669334Y-363423D01*
X3680866Y-371094D01*
X3693261Y-377240D01*
X3706368Y-381660D01*
X3719982Y-384352D01*
G37*
G36*
X1494129Y-374345D02*
G01*
X1500733Y-371094D01*
X1512265Y-363423D01*
X1522679Y-354279D01*
X1531823Y-343865D01*
X1539494Y-332333D01*
X1542745Y-325729D01*
X1494129Y-325729D01*
G37*
G36*
X1401470Y-374345D02*
G01*
X1401470Y-325729D01*
X1352854Y-325729D01*
X1356106Y-332333D01*
X1363776Y-343865D01*
X1372920Y-354279D01*
X1383334Y-363423D01*
X1394866Y-371094D01*
G37*
G36*
X4200296Y-241706D02*
G01*
X4213910Y-241300D01*
X4227372Y-239014D01*
X4240377Y-234950D01*
X4252772Y-229209D01*
X4264253Y-221894D01*
X4274667Y-213106D01*
X4283811Y-202946D01*
X4291533Y-191719D01*
X4297680Y-179578D01*
X4302150Y-166674D01*
X4304893Y-153314D01*
X4305808Y-139700D01*
X4304893Y-126085D01*
X4302150Y-112725D01*
X4297680Y-99872D01*
X4291533Y-87680D01*
X4283811Y-76454D01*
X4274667Y-66344D01*
X4264253Y-57505D01*
X4252772Y-50190D01*
X4240377Y-44450D01*
X4227372Y-40386D01*
X4213910Y-38150D01*
X4200296Y-37693D01*
X4186732Y-39014D01*
X4173474Y-42214D01*
X4160723Y-47091D01*
X4148785Y-53644D01*
X4137812Y-61722D01*
X4128008Y-71221D01*
X4119524Y-81940D01*
X4112564Y-93675D01*
X4107281Y-106222D01*
X4103674Y-119380D01*
X4101846Y-132892D01*
X4101846Y-146507D01*
X4103674Y-160020D01*
X4107281Y-173177D01*
X4112564Y-185724D01*
X4119524Y-197459D01*
X4128008Y-208178D01*
X4137812Y-217678D01*
X4148785Y-225755D01*
X4160723Y-232308D01*
X4173474Y-237185D01*
X4186732Y-240385D01*
G37*
G36*
X1494129Y-233070D02*
G01*
X1542745Y-233070D01*
X1539494Y-226466D01*
X1531823Y-214934D01*
X1522679Y-204520D01*
X1512265Y-195376D01*
X1500733Y-187706D01*
X1494129Y-184454D01*
G37*
G36*
X1352854Y-233070D02*
G01*
X1401470Y-233070D01*
X1401470Y-184454D01*
X1394866Y-187706D01*
X1383334Y-195376D01*
X1372920Y-204520D01*
X1363776Y-214934D01*
X1356106Y-226466D01*
G37*
G36*
X898296Y-229006D02*
G01*
X911910Y-228600D01*
X925372Y-226314D01*
X938377Y-222250D01*
X950772Y-216509D01*
X962253Y-209194D01*
X972667Y-200406D01*
X981811Y-190246D01*
X989533Y-179019D01*
X995680Y-166878D01*
X1000150Y-153974D01*
X1002893Y-140614D01*
X1003808Y-127000D01*
X1002893Y-113385D01*
X1000150Y-100025D01*
X995680Y-87172D01*
X989533Y-74980D01*
X981811Y-63754D01*
X972667Y-53644D01*
X962253Y-44805D01*
X950772Y-37490D01*
X938377Y-31750D01*
X925372Y-27686D01*
X911910Y-25450D01*
X898296Y-24993D01*
X884732Y-26314D01*
X871474Y-29514D01*
X858723Y-34391D01*
X846785Y-40944D01*
X835812Y-49022D01*
X826008Y-58521D01*
X817524Y-69240D01*
X810564Y-80975D01*
X805281Y-93522D01*
X801674Y-106680D01*
X799846Y-120192D01*
X799846Y-133807D01*
X801674Y-147320D01*
X805281Y-160477D01*
X810564Y-173024D01*
X817524Y-184759D01*
X826008Y-195478D01*
X835812Y-204978D01*
X846785Y-213055D01*
X858723Y-219608D01*
X871474Y-224485D01*
X884732Y-227685D01*
G37*
G36*
X1447800Y-131267D02*
G01*
X1461617Y-130352D01*
X1475232Y-127660D01*
X1488338Y-123240D01*
X1500733Y-117094D01*
X1512265Y-109423D01*
X1522679Y-100279D01*
X1531823Y-89865D01*
X1539494Y-78333D01*
X1545640Y-65938D01*
X1550060Y-52781D01*
X1552803Y-39217D01*
X1553667Y-25400D01*
X1552803Y-11582D01*
X1550060Y2032D01*
X1545640Y15138D01*
X1539494Y27533D01*
X1531823Y39065D01*
X1522679Y49479D01*
X1512265Y58623D01*
X1500733Y66294D01*
X1488338Y72440D01*
X1475232Y76860D01*
X1461617Y79603D01*
X1447800Y80467D01*
X1433982Y79603D01*
X1420418Y76860D01*
X1407261Y72440D01*
X1394866Y66294D01*
X1383334Y58623D01*
X1372920Y49479D01*
X1363776Y39065D01*
X1356106Y27533D01*
X1349959Y15138D01*
X1345539Y2032D01*
X1342847Y-11582D01*
X1341932Y-25400D01*
X1342847Y-39217D01*
X1345539Y-52781D01*
X1349959Y-65938D01*
X1356106Y-78333D01*
X1363776Y-89865D01*
X1372920Y-100279D01*
X1383334Y-109423D01*
X1394866Y-117094D01*
X1407261Y-123240D01*
X1420418Y-127660D01*
X1433982Y-130352D01*
G37*
G36*
X3733800Y-131267D02*
G01*
X3747617Y-130352D01*
X3761181Y-127660D01*
X3774338Y-123240D01*
X3786733Y-117094D01*
X3798265Y-109423D01*
X3808679Y-100279D01*
X3817823Y-89865D01*
X3825494Y-78333D01*
X3831640Y-65938D01*
X3836060Y-52781D01*
X3838752Y-39217D01*
X3839667Y-25400D01*
X3838752Y-11582D01*
X3836060Y2032D01*
X3831640Y15138D01*
X3825494Y27533D01*
X3817823Y39065D01*
X3808679Y49479D01*
X3798265Y58623D01*
X3786733Y66294D01*
X3774338Y72440D01*
X3761181Y76860D01*
X3747617Y79603D01*
X3733800Y80467D01*
X3719982Y79603D01*
X3706368Y76860D01*
X3693261Y72440D01*
X3680866Y66294D01*
X3669334Y58623D01*
X3658920Y49479D01*
X3649776Y39065D01*
X3642106Y27533D01*
X3635959Y15138D01*
X3631539Y2032D01*
X3628796Y-11582D01*
X3627932Y-25400D01*
X3628796Y-39217D01*
X3631539Y-52781D01*
X3635959Y-65938D01*
X3642106Y-78333D01*
X3649776Y-89865D01*
X3658920Y-100279D01*
X3669334Y-109423D01*
X3680866Y-117094D01*
X3693261Y-123240D01*
X3706368Y-127660D01*
X3719982Y-130352D01*
G37*
G36*
X2556103Y101193D02*
G01*
X2569667Y102514D01*
X2582926Y105714D01*
X2595676Y110591D01*
X2607614Y117144D01*
X2618587Y125222D01*
X2628392Y134721D01*
X2636875Y145440D01*
X2643835Y157175D01*
X2649118Y169722D01*
X2652725Y182880D01*
X2654554Y196392D01*
X2654554Y210007D01*
X2652725Y223520D01*
X2649118Y236677D01*
X2643835Y249224D01*
X2636875Y260959D01*
X2628392Y271678D01*
X2618587Y281178D01*
X2607614Y289255D01*
X2595676Y295808D01*
X2582926Y300685D01*
X2569667Y303885D01*
X2556103Y305206D01*
X2542489Y304749D01*
X2529027Y302514D01*
X2516022Y298450D01*
X2503627Y292709D01*
X2492146Y285394D01*
X2481732Y276606D01*
X2472588Y266446D01*
X2464866Y255219D01*
X2458720Y243078D01*
X2454249Y230174D01*
X2451506Y216814D01*
X2450592Y203200D01*
X2451506Y189585D01*
X2454249Y176225D01*
X2458720Y163322D01*
X2464866Y151180D01*
X2472588Y139954D01*
X2481732Y129794D01*
X2492146Y121005D01*
X2503627Y113690D01*
X2516022Y107950D01*
X2529027Y103885D01*
X2542489Y101650D01*
G37*
G36*
X1447800Y122732D02*
G01*
X1461617Y123647D01*
X1475232Y126339D01*
X1488338Y130759D01*
X1500733Y136906D01*
X1512265Y144576D01*
X1522679Y153720D01*
X1531823Y164134D01*
X1539494Y175666D01*
X1545640Y188061D01*
X1550060Y201218D01*
X1552803Y214782D01*
X1553667Y228600D01*
X1552803Y242417D01*
X1550060Y256032D01*
X1545640Y269138D01*
X1539494Y281533D01*
X1531823Y293065D01*
X1522679Y303479D01*
X1512265Y312623D01*
X1500733Y320294D01*
X1488338Y326440D01*
X1475232Y330860D01*
X1461617Y333603D01*
X1447800Y334467D01*
X1433982Y333603D01*
X1420418Y330860D01*
X1407261Y326440D01*
X1394866Y320294D01*
X1383334Y312623D01*
X1372920Y303479D01*
X1363776Y293065D01*
X1356106Y281533D01*
X1349959Y269138D01*
X1345539Y256032D01*
X1342847Y242417D01*
X1341932Y228600D01*
X1342847Y214782D01*
X1345539Y201218D01*
X1349959Y188061D01*
X1356106Y175666D01*
X1363776Y164134D01*
X1372920Y153720D01*
X1383334Y144576D01*
X1394866Y136906D01*
X1407261Y130759D01*
X1420418Y126339D01*
X1433982Y123647D01*
G37*
G36*
X3733800Y122732D02*
G01*
X3747617Y123647D01*
X3761181Y126339D01*
X3774338Y130759D01*
X3786733Y136906D01*
X3798265Y144576D01*
X3808679Y153720D01*
X3817823Y164134D01*
X3825494Y175666D01*
X3831640Y188061D01*
X3836060Y201218D01*
X3838752Y214782D01*
X3839667Y228600D01*
X3838752Y242417D01*
X3836060Y256032D01*
X3831640Y269138D01*
X3825494Y281533D01*
X3817823Y293065D01*
X3808679Y303479D01*
X3798265Y312623D01*
X3786733Y320294D01*
X3774338Y326440D01*
X3761181Y330860D01*
X3747617Y333603D01*
X3733800Y334467D01*
X3719982Y333603D01*
X3706368Y330860D01*
X3693261Y326440D01*
X3680866Y320294D01*
X3669334Y312623D01*
X3658920Y303479D01*
X3649776Y293065D01*
X3642106Y281533D01*
X3635959Y269138D01*
X3631539Y256032D01*
X3628796Y242417D01*
X3627932Y228600D01*
X3628796Y214782D01*
X3631539Y201218D01*
X3635959Y188061D01*
X3642106Y175666D01*
X3649776Y164134D01*
X3658920Y153720D01*
X3669334Y144576D01*
X3680866Y136906D01*
X3693261Y130759D01*
X3706368Y126339D01*
X3719982Y123647D01*
G37*
G36*
X4146550Y162204D02*
G01*
X4146550Y209550D01*
X4099204Y209550D01*
X4099864Y207975D01*
X4106824Y196240D01*
X4115308Y185521D01*
X4125112Y176022D01*
X4136085Y167944D01*
G37*
G36*
X4235450Y162356D02*
G01*
X4240072Y164490D01*
X4251553Y171805D01*
X4261967Y180594D01*
X4271111Y190754D01*
X4278833Y201980D01*
X4282643Y209550D01*
X4235450Y209550D01*
G37*
G36*
X898296Y190093D02*
G01*
X911910Y190500D01*
X925372Y192786D01*
X938377Y196850D01*
X950772Y202590D01*
X962253Y209905D01*
X972667Y218694D01*
X981811Y228854D01*
X989533Y240080D01*
X995680Y252221D01*
X1000150Y265125D01*
X1002893Y278485D01*
X1003808Y292100D01*
X1002893Y305714D01*
X1000150Y319074D01*
X995680Y331927D01*
X989533Y344119D01*
X981811Y355346D01*
X972667Y365455D01*
X962253Y374294D01*
X950772Y381609D01*
X938377Y387350D01*
X925372Y391414D01*
X911910Y393649D01*
X898296Y394106D01*
X884732Y392785D01*
X871474Y389585D01*
X858723Y384708D01*
X846785Y378155D01*
X835812Y370078D01*
X826008Y360578D01*
X817524Y349859D01*
X810564Y338124D01*
X805281Y325577D01*
X801674Y312420D01*
X799846Y298907D01*
X799846Y285292D01*
X801674Y271780D01*
X805281Y258622D01*
X810564Y246075D01*
X817524Y234340D01*
X826008Y223621D01*
X835812Y214121D01*
X846785Y206044D01*
X858723Y199491D01*
X871474Y194614D01*
X884732Y191414D01*
G37*
G36*
X4235450Y298450D02*
G01*
X4282643Y298450D01*
X4278833Y306019D01*
X4271111Y317246D01*
X4261967Y327355D01*
X4251553Y336194D01*
X4240072Y343509D01*
X4235450Y345643D01*
G37*
G36*
X4099204Y298450D02*
G01*
X4146550Y298450D01*
X4146550Y345795D01*
X4136085Y340055D01*
X4125112Y331978D01*
X4115308Y322478D01*
X4106824Y311759D01*
X4099864Y300024D01*
G37*
G36*
X2597150Y359968D02*
G01*
X2607614Y365709D01*
X2618587Y373786D01*
X2628392Y383286D01*
X2636875Y394004D01*
X2643835Y405739D01*
X2644495Y407314D01*
X2597150Y407314D01*
G37*
G36*
X2508250Y360121D02*
G01*
X2508250Y407314D01*
X2461056Y407314D01*
X2464866Y399745D01*
X2472588Y388518D01*
X2481732Y378358D01*
X2492146Y369570D01*
X2503627Y362254D01*
G37*
G36*
X1447800Y376732D02*
G01*
X1461617Y377647D01*
X1475232Y380339D01*
X1488338Y384759D01*
X1500733Y390906D01*
X1512265Y398576D01*
X1522679Y407720D01*
X1531823Y418134D01*
X1539494Y429666D01*
X1545640Y442061D01*
X1550060Y455218D01*
X1552803Y468782D01*
X1553667Y482600D01*
X1552803Y496417D01*
X1550060Y510032D01*
X1545640Y523138D01*
X1539494Y535533D01*
X1531823Y547065D01*
X1522679Y557479D01*
X1512265Y566623D01*
X1500733Y574294D01*
X1488338Y580440D01*
X1475232Y584860D01*
X1461617Y587603D01*
X1447800Y588467D01*
X1433982Y587603D01*
X1420418Y584860D01*
X1407261Y580440D01*
X1394866Y574294D01*
X1383334Y566623D01*
X1372920Y557479D01*
X1363776Y547065D01*
X1356106Y535533D01*
X1349959Y523138D01*
X1345539Y510032D01*
X1342847Y496417D01*
X1341932Y482600D01*
X1342847Y468782D01*
X1345539Y455218D01*
X1349959Y442061D01*
X1356106Y429666D01*
X1363776Y418134D01*
X1372920Y407720D01*
X1383334Y398576D01*
X1394866Y390906D01*
X1407261Y384759D01*
X1420418Y380339D01*
X1433982Y377647D01*
G37*
G36*
X3733800Y376732D02*
G01*
X3747617Y377647D01*
X3761181Y380339D01*
X3774338Y384759D01*
X3786733Y390906D01*
X3798265Y398576D01*
X3808679Y407720D01*
X3817823Y418134D01*
X3825494Y429666D01*
X3831640Y442061D01*
X3836060Y455218D01*
X3838752Y468782D01*
X3839667Y482600D01*
X3838752Y496417D01*
X3836060Y510032D01*
X3831640Y523138D01*
X3825494Y535533D01*
X3817823Y547065D01*
X3808679Y557479D01*
X3798265Y566623D01*
X3786733Y574294D01*
X3774338Y580440D01*
X3761181Y584860D01*
X3747617Y587603D01*
X3733800Y588467D01*
X3719982Y587603D01*
X3706368Y584860D01*
X3693261Y580440D01*
X3680866Y574294D01*
X3669334Y566623D01*
X3658920Y557479D01*
X3649776Y547065D01*
X3642106Y535533D01*
X3635959Y523138D01*
X3631539Y510032D01*
X3628796Y496417D01*
X3627932Y482600D01*
X3628796Y468782D01*
X3631539Y455218D01*
X3635959Y442061D01*
X3642106Y429666D01*
X3649776Y418134D01*
X3658920Y407720D01*
X3669334Y398576D01*
X3680866Y390906D01*
X3693261Y384759D01*
X3706368Y380339D01*
X3719982Y377647D01*
G37*
G36*
X2461056Y496214D02*
G01*
X2508250Y496214D01*
X2508250Y543407D01*
X2503627Y541274D01*
X2492146Y533958D01*
X2481732Y525170D01*
X2472588Y515010D01*
X2464866Y503783D01*
G37*
G36*
X2597150Y496214D02*
G01*
X2644495Y496214D01*
X2643835Y497789D01*
X2636875Y509524D01*
X2628392Y520242D01*
X2618587Y529742D01*
X2607614Y537819D01*
X2597150Y543560D01*
G37*
G36*
X857250Y594004D02*
G01*
X857250Y641350D01*
X809904Y641350D01*
X810564Y639775D01*
X817524Y628040D01*
X826008Y617321D01*
X835812Y607822D01*
X846785Y599744D01*
G37*
G36*
X946150Y594156D02*
G01*
X950772Y596290D01*
X962253Y603605D01*
X972667Y612394D01*
X981811Y622554D01*
X989533Y633780D01*
X993343Y641350D01*
X946150Y641350D01*
G37*
G36*
X2556103Y598271D02*
G01*
X2569667Y599643D01*
X2582926Y602792D01*
X2595676Y607720D01*
X2607614Y614273D01*
X2618587Y622350D01*
X2628392Y631850D01*
X2636875Y642518D01*
X2643835Y654253D01*
X2649118Y666800D01*
X2652725Y679958D01*
X2654554Y693470D01*
X2654554Y707136D01*
X2652725Y720648D01*
X2649118Y733806D01*
X2643835Y746353D01*
X2636875Y758088D01*
X2628392Y768756D01*
X2618587Y778256D01*
X2607614Y786333D01*
X2595676Y792886D01*
X2582926Y797814D01*
X2569667Y800963D01*
X2556103Y802335D01*
X2542489Y801878D01*
X2529027Y799592D01*
X2516022Y795578D01*
X2503627Y789838D01*
X2492146Y782472D01*
X2481732Y773684D01*
X2472588Y763574D01*
X2464866Y752348D01*
X2458720Y740156D01*
X2454249Y727252D01*
X2451506Y713892D01*
X2450592Y700278D01*
X2451506Y686714D01*
X2454249Y673354D01*
X2458720Y660450D01*
X2464866Y648258D01*
X2472588Y637032D01*
X2481732Y626922D01*
X2492146Y618134D01*
X2503627Y610768D01*
X2516022Y605028D01*
X2529027Y601014D01*
X2542489Y598728D01*
G37*
G36*
X1447800Y630732D02*
G01*
X1461617Y631647D01*
X1475232Y634339D01*
X1488338Y638759D01*
X1500733Y644906D01*
X1512265Y652576D01*
X1522679Y661720D01*
X1531823Y672134D01*
X1539494Y683666D01*
X1545640Y696061D01*
X1550060Y709218D01*
X1552803Y722782D01*
X1553667Y736600D01*
X1552803Y750417D01*
X1550060Y764032D01*
X1545640Y777138D01*
X1539494Y789533D01*
X1531823Y801065D01*
X1522679Y811479D01*
X1512265Y820623D01*
X1500733Y828294D01*
X1488338Y834440D01*
X1475232Y838860D01*
X1461617Y841603D01*
X1447800Y842467D01*
X1433982Y841603D01*
X1420418Y838860D01*
X1407261Y834440D01*
X1394866Y828294D01*
X1383334Y820623D01*
X1372920Y811479D01*
X1363776Y801065D01*
X1356106Y789533D01*
X1349959Y777138D01*
X1345539Y764032D01*
X1342847Y750417D01*
X1341932Y736600D01*
X1342847Y722782D01*
X1345539Y709218D01*
X1349959Y696061D01*
X1356106Y683666D01*
X1363776Y672134D01*
X1372920Y661720D01*
X1383334Y652576D01*
X1394866Y644906D01*
X1407261Y638759D01*
X1420418Y634339D01*
X1433982Y631647D01*
G37*
G36*
X3733800Y630732D02*
G01*
X3747617Y631647D01*
X3761181Y634339D01*
X3774338Y638759D01*
X3786733Y644906D01*
X3798265Y652576D01*
X3808679Y661720D01*
X3817823Y672134D01*
X3825494Y683666D01*
X3831640Y696061D01*
X3836060Y709218D01*
X3838752Y722782D01*
X3839667Y736600D01*
X3838752Y750417D01*
X3836060Y764032D01*
X3831640Y777138D01*
X3825494Y789533D01*
X3817823Y801065D01*
X3808679Y811479D01*
X3798265Y820623D01*
X3786733Y828294D01*
X3774338Y834440D01*
X3761181Y838860D01*
X3747617Y841603D01*
X3733800Y842467D01*
X3719982Y841603D01*
X3706368Y838860D01*
X3693261Y834440D01*
X3680866Y828294D01*
X3669334Y820623D01*
X3658920Y811479D01*
X3649776Y801065D01*
X3642106Y789533D01*
X3635959Y777138D01*
X3631539Y764032D01*
X3628796Y750417D01*
X3627932Y736600D01*
X3628796Y722782D01*
X3631539Y709218D01*
X3635959Y696061D01*
X3642106Y683666D01*
X3649776Y672134D01*
X3658920Y661720D01*
X3669334Y652576D01*
X3680866Y644906D01*
X3693261Y638759D01*
X3706368Y634339D01*
X3719982Y631647D01*
G37*
G36*
X4187596Y659993D02*
G01*
X4201210Y660400D01*
X4214672Y662686D01*
X4227677Y666750D01*
X4240072Y672490D01*
X4251553Y679805D01*
X4261967Y688594D01*
X4271111Y698754D01*
X4278833Y709980D01*
X4284980Y722122D01*
X4289450Y735025D01*
X4292193Y748385D01*
X4293108Y762000D01*
X4292193Y775614D01*
X4289450Y788974D01*
X4284980Y801827D01*
X4278833Y814019D01*
X4271111Y825246D01*
X4261967Y835355D01*
X4251553Y844194D01*
X4240072Y851509D01*
X4227677Y857250D01*
X4214672Y861314D01*
X4201210Y863549D01*
X4187596Y864006D01*
X4174032Y862685D01*
X4160774Y859485D01*
X4148023Y854608D01*
X4136085Y848055D01*
X4125112Y839978D01*
X4115308Y830478D01*
X4106824Y819759D01*
X4099864Y808024D01*
X4094581Y795477D01*
X4090974Y782320D01*
X4089146Y768807D01*
X4089146Y755192D01*
X4090974Y741680D01*
X4094581Y728522D01*
X4099864Y715975D01*
X4106824Y704240D01*
X4115308Y693521D01*
X4125112Y684022D01*
X4136085Y675944D01*
X4148023Y669391D01*
X4160774Y664514D01*
X4174032Y661314D01*
G37*
G36*
X946150Y730250D02*
G01*
X993343Y730250D01*
X989533Y737819D01*
X981811Y749046D01*
X972667Y759155D01*
X962253Y767994D01*
X950772Y775309D01*
X946150Y777443D01*
G37*
G36*
X809904Y730250D02*
G01*
X857250Y730250D01*
X857250Y777595D01*
X846785Y771855D01*
X835812Y763778D01*
X826008Y754278D01*
X817524Y743559D01*
X810564Y731824D01*
G37*
G36*
X2556103Y837793D02*
G01*
X2569667Y839114D01*
X2582926Y842314D01*
X2595676Y847191D01*
X2607614Y853744D01*
X2618587Y861821D01*
X2628392Y871321D01*
X2636875Y882040D01*
X2643835Y893775D01*
X2649118Y906322D01*
X2652725Y919480D01*
X2654554Y932992D01*
X2654554Y946607D01*
X2652725Y960119D01*
X2649118Y973277D01*
X2643835Y985824D01*
X2636875Y997559D01*
X2628392Y1008278D01*
X2618587Y1017778D01*
X2607614Y1025855D01*
X2595676Y1032408D01*
X2582926Y1037285D01*
X2569667Y1040485D01*
X2556103Y1041806D01*
X2542489Y1041349D01*
X2529027Y1039114D01*
X2516022Y1035050D01*
X2503627Y1029309D01*
X2492146Y1021994D01*
X2481732Y1013206D01*
X2472588Y1003046D01*
X2464866Y991819D01*
X2458720Y979678D01*
X2454249Y966774D01*
X2451506Y953414D01*
X2450592Y939800D01*
X2451506Y926185D01*
X2454249Y912825D01*
X2458720Y899921D01*
X2464866Y887780D01*
X2472588Y876553D01*
X2481732Y866394D01*
X2492146Y857605D01*
X2503627Y850290D01*
X2516022Y844550D01*
X2529027Y840486D01*
X2542489Y838250D01*
G37*
G36*
X1447800Y884732D02*
G01*
X1461617Y885647D01*
X1475232Y888339D01*
X1488338Y892759D01*
X1500733Y898906D01*
X1512265Y906576D01*
X1522679Y915720D01*
X1531823Y926134D01*
X1539494Y937666D01*
X1545640Y950061D01*
X1550060Y963218D01*
X1552803Y976782D01*
X1553667Y990600D01*
X1552803Y1004417D01*
X1550060Y1018032D01*
X1545640Y1031138D01*
X1539494Y1043533D01*
X1531823Y1055065D01*
X1522679Y1065479D01*
X1512265Y1074623D01*
X1500733Y1082294D01*
X1488338Y1088440D01*
X1475232Y1092860D01*
X1461617Y1095603D01*
X1447800Y1096467D01*
X1433982Y1095603D01*
X1420418Y1092860D01*
X1407261Y1088440D01*
X1394866Y1082294D01*
X1383334Y1074623D01*
X1372920Y1065479D01*
X1363776Y1055065D01*
X1356106Y1043533D01*
X1349959Y1031138D01*
X1345539Y1018032D01*
X1342847Y1004417D01*
X1341932Y990600D01*
X1342847Y976782D01*
X1345539Y963218D01*
X1349959Y950061D01*
X1356106Y937666D01*
X1363776Y926134D01*
X1372920Y915720D01*
X1383334Y906576D01*
X1394866Y898906D01*
X1407261Y892759D01*
X1420418Y888339D01*
X1433982Y885647D01*
G37*
G36*
X3733800Y884732D02*
G01*
X3747617Y885647D01*
X3761181Y888339D01*
X3774338Y892759D01*
X3786733Y898906D01*
X3798265Y906576D01*
X3808679Y915720D01*
X3817823Y926134D01*
X3825494Y937666D01*
X3831640Y950061D01*
X3836060Y963218D01*
X3838752Y976782D01*
X3839667Y990600D01*
X3838752Y1004417D01*
X3836060Y1018032D01*
X3831640Y1031138D01*
X3825494Y1043533D01*
X3817823Y1055065D01*
X3808679Y1065479D01*
X3798265Y1074623D01*
X3786733Y1082294D01*
X3774338Y1088440D01*
X3761181Y1092860D01*
X3747617Y1095603D01*
X3733800Y1096467D01*
X3719982Y1095603D01*
X3706368Y1092860D01*
X3693261Y1088440D01*
X3680866Y1082294D01*
X3669334Y1074623D01*
X3658920Y1065479D01*
X3649776Y1055065D01*
X3642106Y1043533D01*
X3635959Y1031138D01*
X3631539Y1018032D01*
X3628796Y1004417D01*
X3627932Y990600D01*
X3628796Y976782D01*
X3631539Y963218D01*
X3635959Y950061D01*
X3642106Y937666D01*
X3649776Y926134D01*
X3658920Y915720D01*
X3669334Y906576D01*
X3680866Y898906D01*
X3693261Y892759D01*
X3706368Y888339D01*
X3719982Y885647D01*
G37*
G36*
X885596Y977493D02*
G01*
X899210Y977900D01*
X912672Y980186D01*
X925677Y984250D01*
X938072Y989990D01*
X949553Y997305D01*
X959967Y1006094D01*
X969111Y1016253D01*
X976833Y1027480D01*
X982980Y1039621D01*
X987450Y1052525D01*
X990193Y1065885D01*
X991108Y1079500D01*
X990193Y1093114D01*
X987450Y1106474D01*
X982980Y1119327D01*
X976833Y1131519D01*
X969111Y1142746D01*
X959967Y1152855D01*
X949553Y1161694D01*
X938072Y1169009D01*
X925677Y1174750D01*
X912672Y1178814D01*
X899210Y1181049D01*
X885596Y1181506D01*
X872032Y1180185D01*
X858774Y1176985D01*
X846023Y1172108D01*
X834085Y1165555D01*
X823112Y1157478D01*
X813308Y1147978D01*
X804824Y1137259D01*
X797864Y1125524D01*
X792581Y1112977D01*
X788974Y1099820D01*
X787146Y1086307D01*
X787146Y1072692D01*
X788974Y1059180D01*
X792581Y1046022D01*
X797864Y1033475D01*
X804824Y1021740D01*
X813308Y1011021D01*
X823112Y1001521D01*
X834085Y993444D01*
X846023Y986891D01*
X858774Y982014D01*
X872032Y978814D01*
G37*
G36*
X2556103Y1095400D02*
G01*
X2569667Y1096772D01*
X2582926Y1099921D01*
X2595676Y1104849D01*
X2607614Y1111402D01*
X2618587Y1119479D01*
X2628392Y1128979D01*
X2636875Y1139647D01*
X2643835Y1151382D01*
X2649118Y1163929D01*
X2652725Y1177086D01*
X2654554Y1190599D01*
X2654554Y1204264D01*
X2652725Y1217777D01*
X2649118Y1230934D01*
X2643835Y1243482D01*
X2636875Y1255217D01*
X2628392Y1265885D01*
X2618587Y1275384D01*
X2607614Y1283462D01*
X2595676Y1290015D01*
X2582926Y1294942D01*
X2569667Y1298092D01*
X2556103Y1299464D01*
X2542489Y1299006D01*
X2529027Y1296720D01*
X2516022Y1292707D01*
X2503627Y1286967D01*
X2492146Y1279601D01*
X2481732Y1270812D01*
X2472588Y1260703D01*
X2464866Y1249476D01*
X2458720Y1237284D01*
X2454249Y1224381D01*
X2451506Y1211021D01*
X2450592Y1197406D01*
X2451506Y1183843D01*
X2454249Y1170482D01*
X2458720Y1157579D01*
X2464866Y1145387D01*
X2472588Y1134160D01*
X2481732Y1124051D01*
X2492146Y1115263D01*
X2503627Y1107897D01*
X2516022Y1102156D01*
X2529027Y1098143D01*
X2542489Y1095857D01*
G37*
G36*
X1447800Y1138732D02*
G01*
X1461617Y1139596D01*
X1475232Y1142339D01*
X1488338Y1146759D01*
X1500733Y1152906D01*
X1512265Y1160576D01*
X1522679Y1169720D01*
X1531823Y1180134D01*
X1539494Y1191666D01*
X1545640Y1204061D01*
X1550060Y1217218D01*
X1552803Y1230782D01*
X1553667Y1244600D01*
X1552803Y1258417D01*
X1550060Y1271981D01*
X1545640Y1285138D01*
X1539494Y1297533D01*
X1531823Y1309065D01*
X1522679Y1319479D01*
X1512265Y1328623D01*
X1500733Y1336294D01*
X1488338Y1342440D01*
X1475232Y1346860D01*
X1461617Y1349603D01*
X1447800Y1350467D01*
X1433982Y1349603D01*
X1420418Y1346860D01*
X1407261Y1342440D01*
X1394866Y1336294D01*
X1383334Y1328623D01*
X1372920Y1319479D01*
X1363776Y1309065D01*
X1356106Y1297533D01*
X1349959Y1285138D01*
X1345539Y1271981D01*
X1342847Y1258417D01*
X1341932Y1244600D01*
X1342847Y1230782D01*
X1345539Y1217218D01*
X1349959Y1204061D01*
X1356106Y1191666D01*
X1363776Y1180134D01*
X1372920Y1169720D01*
X1383334Y1160576D01*
X1394866Y1152906D01*
X1407261Y1146759D01*
X1420418Y1142339D01*
X1433982Y1139596D01*
G37*
G36*
X3733800Y1138732D02*
G01*
X3747617Y1139596D01*
X3761181Y1142339D01*
X3774338Y1146759D01*
X3786733Y1152906D01*
X3798265Y1160576D01*
X3808679Y1169720D01*
X3817823Y1180134D01*
X3825494Y1191666D01*
X3831640Y1204061D01*
X3836060Y1217218D01*
X3838752Y1230782D01*
X3839667Y1244600D01*
X3838752Y1258417D01*
X3836060Y1271981D01*
X3831640Y1285138D01*
X3825494Y1297533D01*
X3817823Y1309065D01*
X3808679Y1319479D01*
X3798265Y1328623D01*
X3786733Y1336294D01*
X3774338Y1342440D01*
X3761181Y1346860D01*
X3747617Y1349603D01*
X3733800Y1350467D01*
X3719982Y1349603D01*
X3706368Y1346860D01*
X3693261Y1342440D01*
X3680866Y1336294D01*
X3669334Y1328623D01*
X3658920Y1319479D01*
X3649776Y1309065D01*
X3642106Y1297533D01*
X3635959Y1285138D01*
X3631539Y1271981D01*
X3628796Y1258417D01*
X3627932Y1244600D01*
X3628796Y1230782D01*
X3631539Y1217218D01*
X3635959Y1204061D01*
X3642106Y1191666D01*
X3649776Y1180134D01*
X3658920Y1169720D01*
X3669334Y1160576D01*
X3680866Y1152906D01*
X3693261Y1146759D01*
X3706368Y1142339D01*
X3719982Y1139596D01*
G37*
G36*
X4187596Y1167993D02*
G01*
X4201210Y1168400D01*
X4214672Y1170686D01*
X4227677Y1174750D01*
X4240072Y1180490D01*
X4251553Y1187805D01*
X4261967Y1196594D01*
X4271111Y1206754D01*
X4278833Y1217980D01*
X4284980Y1230122D01*
X4289450Y1243025D01*
X4292193Y1256385D01*
X4293108Y1270000D01*
X4292193Y1283614D01*
X4289450Y1296974D01*
X4284980Y1309827D01*
X4278833Y1322019D01*
X4271111Y1333246D01*
X4261967Y1343355D01*
X4251553Y1352194D01*
X4240072Y1359509D01*
X4227677Y1365250D01*
X4214672Y1369314D01*
X4201210Y1371549D01*
X4187596Y1372006D01*
X4174032Y1370685D01*
X4160774Y1367485D01*
X4148023Y1362608D01*
X4136085Y1356055D01*
X4125112Y1347978D01*
X4115308Y1338478D01*
X4106824Y1327759D01*
X4099864Y1316024D01*
X4094581Y1303477D01*
X4090974Y1290320D01*
X4089146Y1276807D01*
X4089146Y1263192D01*
X4090974Y1249680D01*
X4094581Y1236522D01*
X4099864Y1223975D01*
X4106824Y1212240D01*
X4115308Y1201521D01*
X4125112Y1192022D01*
X4136085Y1183944D01*
X4148023Y1177391D01*
X4160774Y1172514D01*
X4174032Y1169314D01*
G37*
G36*
X2556103Y1343964D02*
G01*
X2569667Y1345336D01*
X2582926Y1348486D01*
X2595676Y1353413D01*
X2607614Y1359966D01*
X2618587Y1368044D01*
X2628392Y1377543D01*
X2636875Y1388211D01*
X2643835Y1399946D01*
X2649118Y1412494D01*
X2652725Y1425651D01*
X2654554Y1439164D01*
X2654554Y1452829D01*
X2652725Y1466342D01*
X2649118Y1479499D01*
X2643835Y1492046D01*
X2636875Y1503781D01*
X2628392Y1514449D01*
X2618587Y1523949D01*
X2607614Y1532026D01*
X2595676Y1538579D01*
X2582926Y1543507D01*
X2569667Y1546656D01*
X2556103Y1548028D01*
X2542489Y1547571D01*
X2529027Y1545285D01*
X2516022Y1541272D01*
X2503627Y1535531D01*
X2492146Y1528165D01*
X2481732Y1519377D01*
X2472588Y1509268D01*
X2464866Y1498041D01*
X2458720Y1485849D01*
X2454249Y1472946D01*
X2451506Y1459585D01*
X2450592Y1445971D01*
X2451506Y1432407D01*
X2454249Y1419047D01*
X2458720Y1406144D01*
X2464866Y1393952D01*
X2472588Y1382725D01*
X2481732Y1372616D01*
X2492146Y1363827D01*
X2503627Y1356461D01*
X2516022Y1350721D01*
X2529027Y1346708D01*
X2542489Y1344422D01*
G37*
G36*
X1447800Y1392732D02*
G01*
X1461617Y1393596D01*
X1475232Y1396339D01*
X1488338Y1400759D01*
X1500733Y1406906D01*
X1512265Y1414576D01*
X1522679Y1423720D01*
X1531823Y1434134D01*
X1539494Y1445666D01*
X1545640Y1458061D01*
X1550060Y1471218D01*
X1552803Y1484782D01*
X1553667Y1498600D01*
X1552803Y1512417D01*
X1550060Y1525981D01*
X1545640Y1539138D01*
X1539494Y1551533D01*
X1531823Y1563065D01*
X1522679Y1573479D01*
X1512265Y1582623D01*
X1500733Y1590294D01*
X1488338Y1596440D01*
X1475232Y1600860D01*
X1461617Y1603603D01*
X1447800Y1604467D01*
X1433982Y1603603D01*
X1420418Y1600860D01*
X1407261Y1596440D01*
X1394866Y1590294D01*
X1383334Y1582623D01*
X1372920Y1573479D01*
X1363776Y1563065D01*
X1356106Y1551533D01*
X1349959Y1539138D01*
X1345539Y1525981D01*
X1342847Y1512417D01*
X1341932Y1498600D01*
X1342847Y1484782D01*
X1345539Y1471218D01*
X1349959Y1458061D01*
X1356106Y1445666D01*
X1363776Y1434134D01*
X1372920Y1423720D01*
X1383334Y1414576D01*
X1394866Y1406906D01*
X1407261Y1400759D01*
X1420418Y1396339D01*
X1433982Y1393596D01*
G37*
G36*
X3733800Y1392732D02*
G01*
X3747617Y1393596D01*
X3761181Y1396339D01*
X3774338Y1400759D01*
X3786733Y1406906D01*
X3798265Y1414576D01*
X3808679Y1423720D01*
X3817823Y1434134D01*
X3825494Y1445666D01*
X3831640Y1458061D01*
X3836060Y1471218D01*
X3838752Y1484782D01*
X3839667Y1498600D01*
X3838752Y1512417D01*
X3836060Y1525981D01*
X3831640Y1539138D01*
X3825494Y1551533D01*
X3817823Y1563065D01*
X3808679Y1573479D01*
X3798265Y1582623D01*
X3786733Y1590294D01*
X3774338Y1596440D01*
X3761181Y1600860D01*
X3747617Y1603603D01*
X3733800Y1604467D01*
X3719982Y1603603D01*
X3706368Y1600860D01*
X3693261Y1596440D01*
X3680866Y1590294D01*
X3669334Y1582623D01*
X3658920Y1573479D01*
X3649776Y1563065D01*
X3642106Y1551533D01*
X3635959Y1539138D01*
X3631539Y1525981D01*
X3628796Y1512417D01*
X3627932Y1498600D01*
X3628796Y1484782D01*
X3631539Y1471218D01*
X3635959Y1458061D01*
X3642106Y1445666D01*
X3649776Y1434134D01*
X3658920Y1423720D01*
X3669334Y1414576D01*
X3680866Y1406906D01*
X3693261Y1400759D01*
X3706368Y1396339D01*
X3719982Y1393596D01*
G37*
G36*
X2597150Y1602740D02*
G01*
X2607614Y1608480D01*
X2618587Y1616557D01*
X2628392Y1626057D01*
X2636875Y1636776D01*
X2643835Y1648510D01*
X2644495Y1650085D01*
X2597150Y1650085D01*
G37*
G36*
X2508250Y1602892D02*
G01*
X2508250Y1650085D01*
X2461056Y1650085D01*
X2464866Y1642516D01*
X2472588Y1631289D01*
X2481732Y1621129D01*
X2492146Y1612341D01*
X2503627Y1605026D01*
G37*
G36*
X1447800Y1646732D02*
G01*
X1461617Y1647596D01*
X1475232Y1650339D01*
X1488338Y1654759D01*
X1500733Y1660906D01*
X1512265Y1668576D01*
X1522679Y1677720D01*
X1531823Y1688134D01*
X1539494Y1699666D01*
X1545640Y1712061D01*
X1550060Y1725218D01*
X1552803Y1738782D01*
X1553667Y1752600D01*
X1552803Y1766417D01*
X1550060Y1779981D01*
X1545640Y1793138D01*
X1539494Y1805533D01*
X1531823Y1817065D01*
X1522679Y1827479D01*
X1512265Y1836623D01*
X1500733Y1844293D01*
X1488338Y1850440D01*
X1475232Y1854860D01*
X1461617Y1857603D01*
X1447800Y1858467D01*
X1433982Y1857603D01*
X1420418Y1854860D01*
X1407261Y1850440D01*
X1394866Y1844293D01*
X1383334Y1836623D01*
X1372920Y1827479D01*
X1363776Y1817065D01*
X1356106Y1805533D01*
X1349959Y1793138D01*
X1345539Y1779981D01*
X1342847Y1766417D01*
X1341932Y1752600D01*
X1342847Y1738782D01*
X1345539Y1725218D01*
X1349959Y1712061D01*
X1356106Y1699666D01*
X1363776Y1688134D01*
X1372920Y1677720D01*
X1383334Y1668576D01*
X1394866Y1660906D01*
X1407261Y1654759D01*
X1420418Y1650339D01*
X1433982Y1647596D01*
G37*
G36*
X3733800Y1646732D02*
G01*
X3747617Y1647596D01*
X3761181Y1650339D01*
X3774338Y1654759D01*
X3786733Y1660906D01*
X3798265Y1668576D01*
X3808679Y1677720D01*
X3817823Y1688134D01*
X3825494Y1699666D01*
X3831640Y1712061D01*
X3836060Y1725218D01*
X3838752Y1738782D01*
X3839667Y1752600D01*
X3838752Y1766417D01*
X3836060Y1779981D01*
X3831640Y1793138D01*
X3825494Y1805533D01*
X3817823Y1817065D01*
X3808679Y1827479D01*
X3798265Y1836623D01*
X3786733Y1844293D01*
X3774338Y1850440D01*
X3761181Y1854860D01*
X3747617Y1857603D01*
X3733800Y1858467D01*
X3719982Y1857603D01*
X3706368Y1854860D01*
X3693261Y1850440D01*
X3680866Y1844293D01*
X3669334Y1836623D01*
X3658920Y1827479D01*
X3649776Y1817065D01*
X3642106Y1805533D01*
X3635959Y1793138D01*
X3631539Y1779981D01*
X3628796Y1766417D01*
X3627932Y1752600D01*
X3628796Y1738782D01*
X3631539Y1725218D01*
X3635959Y1712061D01*
X3642106Y1699666D01*
X3649776Y1688134D01*
X3658920Y1677720D01*
X3669334Y1668576D01*
X3680866Y1660906D01*
X3693261Y1654759D01*
X3706368Y1650339D01*
X3719982Y1647596D01*
G37*
G36*
X2461056Y1738985D02*
G01*
X2508250Y1738985D01*
X2508250Y1786178D01*
X2503627Y1784045D01*
X2492146Y1776730D01*
X2481732Y1767941D01*
X2472588Y1757781D01*
X2464866Y1746554D01*
G37*
G36*
X2597150Y1738985D02*
G01*
X2644495Y1738985D01*
X2643835Y1740560D01*
X2636875Y1752295D01*
X2628392Y1763014D01*
X2618587Y1772513D01*
X2607614Y1780590D01*
X2597150Y1786331D01*
G37*
G36*
X2556103Y1841093D02*
G01*
X2569667Y1842414D01*
X2582926Y1845614D01*
X2595676Y1850491D01*
X2607614Y1857044D01*
X2618587Y1865122D01*
X2628392Y1874621D01*
X2636875Y1885340D01*
X2643835Y1897075D01*
X2649118Y1909622D01*
X2652725Y1922780D01*
X2654554Y1936292D01*
X2654554Y1949907D01*
X2652725Y1963420D01*
X2649118Y1976577D01*
X2643835Y1989124D01*
X2636875Y2000859D01*
X2628392Y2011578D01*
X2618587Y2021078D01*
X2607614Y2029155D01*
X2595676Y2035708D01*
X2582926Y2040585D01*
X2569667Y2043785D01*
X2556103Y2045106D01*
X2542489Y2044649D01*
X2529027Y2042414D01*
X2516022Y2038350D01*
X2503627Y2032609D01*
X2492146Y2025294D01*
X2481732Y2016506D01*
X2472588Y2006346D01*
X2464866Y1995119D01*
X2458720Y1982978D01*
X2454249Y1970074D01*
X2451506Y1956714D01*
X2450592Y1943100D01*
X2451506Y1929485D01*
X2454249Y1916125D01*
X2458720Y1903222D01*
X2464866Y1891080D01*
X2472588Y1879854D01*
X2481732Y1869693D01*
X2492146Y1860905D01*
X2503627Y1853590D01*
X2516022Y1847850D01*
X2529027Y1843786D01*
X2542489Y1841550D01*
G37*
G36*
X1447800Y1900732D02*
G01*
X1461617Y1901596D01*
X1475232Y1904339D01*
X1488338Y1908759D01*
X1500733Y1914906D01*
X1512265Y1922576D01*
X1522679Y1931720D01*
X1531823Y1942134D01*
X1539494Y1953666D01*
X1545640Y1966061D01*
X1550060Y1979218D01*
X1552803Y1992782D01*
X1553667Y2006600D01*
X1552803Y2020417D01*
X1550060Y2033981D01*
X1545640Y2047138D01*
X1539494Y2059533D01*
X1531823Y2071065D01*
X1522679Y2081479D01*
X1512265Y2090623D01*
X1500733Y2098294D01*
X1488338Y2104440D01*
X1475232Y2108860D01*
X1461617Y2111603D01*
X1447800Y2112467D01*
X1433982Y2111603D01*
X1420418Y2108860D01*
X1407261Y2104440D01*
X1394866Y2098294D01*
X1383334Y2090623D01*
X1372920Y2081479D01*
X1363776Y2071065D01*
X1356106Y2059533D01*
X1349959Y2047138D01*
X1345539Y2033981D01*
X1342847Y2020417D01*
X1341932Y2006600D01*
X1342847Y1992782D01*
X1345539Y1979218D01*
X1349959Y1966061D01*
X1356106Y1953666D01*
X1363776Y1942134D01*
X1372920Y1931720D01*
X1383334Y1922576D01*
X1394866Y1914906D01*
X1407261Y1908759D01*
X1420418Y1904339D01*
X1433982Y1901596D01*
G37*
G36*
X3733800Y1900732D02*
G01*
X3747617Y1901596D01*
X3761181Y1904339D01*
X3774338Y1908759D01*
X3786733Y1914906D01*
X3798265Y1922576D01*
X3808679Y1931720D01*
X3817823Y1942134D01*
X3825494Y1953666D01*
X3831640Y1966061D01*
X3836060Y1979218D01*
X3838752Y1992782D01*
X3839667Y2006600D01*
X3838752Y2020417D01*
X3836060Y2033981D01*
X3831640Y2047138D01*
X3825494Y2059533D01*
X3817823Y2071065D01*
X3808679Y2081479D01*
X3798265Y2090623D01*
X3786733Y2098294D01*
X3774338Y2104440D01*
X3761181Y2108860D01*
X3747617Y2111603D01*
X3733800Y2112467D01*
X3719982Y2111603D01*
X3706368Y2108860D01*
X3693261Y2104440D01*
X3680866Y2098294D01*
X3669334Y2090623D01*
X3658920Y2081479D01*
X3649776Y2071065D01*
X3642106Y2059533D01*
X3635959Y2047138D01*
X3631539Y2033981D01*
X3628796Y2020417D01*
X3627932Y2006600D01*
X3628796Y1992782D01*
X3631539Y1979218D01*
X3635959Y1966061D01*
X3642106Y1953666D01*
X3649776Y1942134D01*
X3658920Y1931720D01*
X3669334Y1922576D01*
X3680866Y1914906D01*
X3693261Y1908759D01*
X3706368Y1904339D01*
X3719982Y1901596D01*
G37*
G36*
X1447800Y2154732D02*
G01*
X1461617Y2155596D01*
X1475232Y2158339D01*
X1488338Y2162759D01*
X1500733Y2168906D01*
X1512265Y2176576D01*
X1522679Y2185720D01*
X1531823Y2196134D01*
X1539494Y2207666D01*
X1545640Y2220061D01*
X1550060Y2233218D01*
X1552803Y2246782D01*
X1553667Y2260600D01*
X1552803Y2274417D01*
X1550060Y2287981D01*
X1545640Y2301138D01*
X1539494Y2313533D01*
X1531823Y2325065D01*
X1522679Y2335479D01*
X1512265Y2344623D01*
X1500733Y2352294D01*
X1488338Y2358440D01*
X1475232Y2362860D01*
X1461617Y2365603D01*
X1447800Y2366467D01*
X1433982Y2365603D01*
X1420418Y2362860D01*
X1407261Y2358440D01*
X1394866Y2352294D01*
X1383334Y2344623D01*
X1372920Y2335479D01*
X1363776Y2325065D01*
X1356106Y2313533D01*
X1349959Y2301138D01*
X1345539Y2287981D01*
X1342847Y2274417D01*
X1341932Y2260600D01*
X1342847Y2246782D01*
X1345539Y2233218D01*
X1349959Y2220061D01*
X1356106Y2207666D01*
X1363776Y2196134D01*
X1372920Y2185720D01*
X1383334Y2176576D01*
X1394866Y2168906D01*
X1407261Y2162759D01*
X1420418Y2158339D01*
X1433982Y2155596D01*
G37*
G36*
X3733800Y2154732D02*
G01*
X3747617Y2155596D01*
X3761181Y2158339D01*
X3774338Y2162759D01*
X3786733Y2168906D01*
X3798265Y2176576D01*
X3808679Y2185720D01*
X3817823Y2196134D01*
X3825494Y2207666D01*
X3831640Y2220061D01*
X3836060Y2233218D01*
X3838752Y2246782D01*
X3839667Y2260600D01*
X3838752Y2274417D01*
X3836060Y2287981D01*
X3831640Y2301138D01*
X3825494Y2313533D01*
X3817823Y2325065D01*
X3808679Y2335479D01*
X3798265Y2344623D01*
X3786733Y2352294D01*
X3774338Y2358440D01*
X3761181Y2362860D01*
X3747617Y2365603D01*
X3733800Y2366467D01*
X3719982Y2365603D01*
X3706368Y2362860D01*
X3693261Y2358440D01*
X3680866Y2352294D01*
X3669334Y2344623D01*
X3658920Y2335479D01*
X3649776Y2325065D01*
X3642106Y2313533D01*
X3635959Y2301138D01*
X3631539Y2287981D01*
X3628796Y2274417D01*
X3627932Y2260600D01*
X3628796Y2246782D01*
X3631539Y2233218D01*
X3635959Y2220061D01*
X3642106Y2207666D01*
X3649776Y2196134D01*
X3658920Y2185720D01*
X3669334Y2176576D01*
X3680866Y2168906D01*
X3693261Y2162759D01*
X3706368Y2158339D01*
X3719982Y2155596D01*
G37*
G36*
X1447800Y2408732D02*
G01*
X1461617Y2409596D01*
X1475232Y2412339D01*
X1488338Y2416759D01*
X1500733Y2422906D01*
X1512265Y2430576D01*
X1522679Y2439720D01*
X1531823Y2450134D01*
X1539494Y2461666D01*
X1545640Y2474061D01*
X1550060Y2487168D01*
X1552803Y2500782D01*
X1553667Y2514600D01*
X1552803Y2528417D01*
X1550060Y2541981D01*
X1545640Y2555138D01*
X1539494Y2567533D01*
X1531823Y2579065D01*
X1522679Y2589479D01*
X1512265Y2598623D01*
X1500733Y2606294D01*
X1488338Y2612440D01*
X1475232Y2616860D01*
X1461617Y2619552D01*
X1447800Y2620467D01*
X1433982Y2619552D01*
X1420418Y2616860D01*
X1407261Y2612440D01*
X1394866Y2606294D01*
X1383334Y2598623D01*
X1372920Y2589479D01*
X1363776Y2579065D01*
X1356106Y2567533D01*
X1349959Y2555138D01*
X1345539Y2541981D01*
X1342847Y2528417D01*
X1341932Y2514600D01*
X1342847Y2500782D01*
X1345539Y2487168D01*
X1349959Y2474061D01*
X1356106Y2461666D01*
X1363776Y2450134D01*
X1372920Y2439720D01*
X1383334Y2430576D01*
X1394866Y2422906D01*
X1407261Y2416759D01*
X1420418Y2412339D01*
X1433982Y2409596D01*
G37*
G36*
X3733800Y2408732D02*
G01*
X3747617Y2409596D01*
X3761181Y2412339D01*
X3774338Y2416759D01*
X3786733Y2422906D01*
X3798265Y2430576D01*
X3808679Y2439720D01*
X3817823Y2450134D01*
X3825494Y2461666D01*
X3831640Y2474061D01*
X3836060Y2487168D01*
X3838752Y2500782D01*
X3839667Y2514600D01*
X3838752Y2528417D01*
X3836060Y2541981D01*
X3831640Y2555138D01*
X3825494Y2567533D01*
X3817823Y2579065D01*
X3808679Y2589479D01*
X3798265Y2598623D01*
X3786733Y2606294D01*
X3774338Y2612440D01*
X3761181Y2616860D01*
X3747617Y2619552D01*
X3733800Y2620467D01*
X3719982Y2619552D01*
X3706368Y2616860D01*
X3693261Y2612440D01*
X3680866Y2606294D01*
X3669334Y2598623D01*
X3658920Y2589479D01*
X3649776Y2579065D01*
X3642106Y2567533D01*
X3635959Y2555138D01*
X3631539Y2541981D01*
X3628796Y2528417D01*
X3627932Y2514600D01*
X3628796Y2500782D01*
X3631539Y2487168D01*
X3635959Y2474061D01*
X3642106Y2461666D01*
X3649776Y2450134D01*
X3658920Y2439720D01*
X3669334Y2430576D01*
X3680866Y2422906D01*
X3693261Y2416759D01*
X3706368Y2412339D01*
X3719982Y2409596D01*
G37*
G36*
X1447800Y2662732D02*
G01*
X1461617Y2663596D01*
X1475232Y2666339D01*
X1488338Y2670759D01*
X1500733Y2676906D01*
X1512265Y2684576D01*
X1522679Y2693720D01*
X1531823Y2704134D01*
X1539494Y2715666D01*
X1545640Y2728061D01*
X1550060Y2741168D01*
X1552803Y2754782D01*
X1553667Y2768600D01*
X1552803Y2782417D01*
X1550060Y2795981D01*
X1545640Y2809138D01*
X1539494Y2821533D01*
X1531823Y2833065D01*
X1522679Y2843479D01*
X1512265Y2852623D01*
X1500733Y2860294D01*
X1488338Y2866440D01*
X1475232Y2870860D01*
X1461617Y2873552D01*
X1447800Y2874467D01*
X1433982Y2873552D01*
X1420418Y2870860D01*
X1407261Y2866440D01*
X1394866Y2860294D01*
X1383334Y2852623D01*
X1372920Y2843479D01*
X1363776Y2833065D01*
X1356106Y2821533D01*
X1349959Y2809138D01*
X1345539Y2795981D01*
X1342847Y2782417D01*
X1341932Y2768600D01*
X1342847Y2754782D01*
X1345539Y2741168D01*
X1349959Y2728061D01*
X1356106Y2715666D01*
X1363776Y2704134D01*
X1372920Y2693720D01*
X1383334Y2684576D01*
X1394866Y2676906D01*
X1407261Y2670759D01*
X1420418Y2666339D01*
X1433982Y2663596D01*
G37*
G36*
X3733800Y2662732D02*
G01*
X3747617Y2663596D01*
X3761181Y2666339D01*
X3774338Y2670759D01*
X3786733Y2676906D01*
X3798265Y2684576D01*
X3808679Y2693720D01*
X3817823Y2704134D01*
X3825494Y2715666D01*
X3831640Y2728061D01*
X3836060Y2741168D01*
X3838752Y2754782D01*
X3839667Y2768600D01*
X3838752Y2782417D01*
X3836060Y2795981D01*
X3831640Y2809138D01*
X3825494Y2821533D01*
X3817823Y2833065D01*
X3808679Y2843479D01*
X3798265Y2852623D01*
X3786733Y2860294D01*
X3774338Y2866440D01*
X3761181Y2870860D01*
X3747617Y2873552D01*
X3733800Y2874467D01*
X3719982Y2873552D01*
X3706368Y2870860D01*
X3693261Y2866440D01*
X3680866Y2860294D01*
X3669334Y2852623D01*
X3658920Y2843479D01*
X3649776Y2833065D01*
X3642106Y2821533D01*
X3635959Y2809138D01*
X3631539Y2795981D01*
X3628796Y2782417D01*
X3627932Y2768600D01*
X3628796Y2754782D01*
X3631539Y2741168D01*
X3635959Y2728061D01*
X3642106Y2715666D01*
X3649776Y2704134D01*
X3658920Y2693720D01*
X3669334Y2684576D01*
X3680866Y2676906D01*
X3693261Y2670759D01*
X3706368Y2666339D01*
X3719982Y2663596D01*
G37*
G36*
X1447800Y2916732D02*
G01*
X1461617Y2917596D01*
X1475232Y2920339D01*
X1488338Y2924759D01*
X1500733Y2930906D01*
X1512265Y2938576D01*
X1522679Y2947720D01*
X1531823Y2958134D01*
X1539494Y2969666D01*
X1545640Y2982061D01*
X1550060Y2995168D01*
X1552803Y3008782D01*
X1553667Y3022600D01*
X1552803Y3036417D01*
X1550060Y3049981D01*
X1545640Y3063138D01*
X1539494Y3075533D01*
X1531823Y3087065D01*
X1522679Y3097479D01*
X1512265Y3106623D01*
X1500733Y3114294D01*
X1488338Y3120440D01*
X1475232Y3124860D01*
X1461617Y3127552D01*
X1447800Y3128467D01*
X1433982Y3127552D01*
X1420418Y3124860D01*
X1407261Y3120440D01*
X1394866Y3114294D01*
X1383334Y3106623D01*
X1372920Y3097479D01*
X1363776Y3087065D01*
X1356106Y3075533D01*
X1349959Y3063138D01*
X1345539Y3049981D01*
X1342847Y3036417D01*
X1341932Y3022600D01*
X1342847Y3008782D01*
X1345539Y2995168D01*
X1349959Y2982061D01*
X1356106Y2969666D01*
X1363776Y2958134D01*
X1372920Y2947720D01*
X1383334Y2938576D01*
X1394866Y2930906D01*
X1407261Y2924759D01*
X1420418Y2920339D01*
X1433982Y2917596D01*
G37*
G36*
X3733800Y2916732D02*
G01*
X3747617Y2917596D01*
X3761181Y2920339D01*
X3774338Y2924759D01*
X3786733Y2930906D01*
X3798265Y2938576D01*
X3808679Y2947720D01*
X3817823Y2958134D01*
X3825494Y2969666D01*
X3831640Y2982061D01*
X3836060Y2995168D01*
X3838752Y3008782D01*
X3839667Y3022600D01*
X3838752Y3036417D01*
X3836060Y3049981D01*
X3831640Y3063138D01*
X3825494Y3075533D01*
X3817823Y3087065D01*
X3808679Y3097479D01*
X3798265Y3106623D01*
X3786733Y3114294D01*
X3774338Y3120440D01*
X3761181Y3124860D01*
X3747617Y3127552D01*
X3733800Y3128467D01*
X3719982Y3127552D01*
X3706368Y3124860D01*
X3693261Y3120440D01*
X3680866Y3114294D01*
X3669334Y3106623D01*
X3658920Y3097479D01*
X3649776Y3087065D01*
X3642106Y3075533D01*
X3635959Y3063138D01*
X3631539Y3049981D01*
X3628796Y3036417D01*
X3627932Y3022600D01*
X3628796Y3008782D01*
X3631539Y2995168D01*
X3635959Y2982061D01*
X3642106Y2969666D01*
X3649776Y2958134D01*
X3658920Y2947720D01*
X3669334Y2938576D01*
X3680866Y2930906D01*
X3693261Y2924759D01*
X3706368Y2920339D01*
X3719982Y2917596D01*
G37*
G36*
X1447800Y3170732D02*
G01*
X1461617Y3171596D01*
X1475232Y3174339D01*
X1488338Y3178759D01*
X1500733Y3184906D01*
X1512265Y3192576D01*
X1522679Y3201720D01*
X1531823Y3212134D01*
X1539494Y3223666D01*
X1545640Y3236061D01*
X1550060Y3249168D01*
X1552803Y3262782D01*
X1553667Y3276600D01*
X1552803Y3290417D01*
X1550060Y3303981D01*
X1545640Y3317138D01*
X1539494Y3329533D01*
X1531823Y3341065D01*
X1522679Y3351479D01*
X1512265Y3360623D01*
X1500733Y3368294D01*
X1488338Y3374440D01*
X1475232Y3378860D01*
X1461617Y3381552D01*
X1447800Y3382467D01*
X1433982Y3381552D01*
X1420418Y3378860D01*
X1407261Y3374440D01*
X1394866Y3368294D01*
X1383334Y3360623D01*
X1372920Y3351479D01*
X1363776Y3341065D01*
X1356106Y3329533D01*
X1349959Y3317138D01*
X1345539Y3303981D01*
X1342847Y3290417D01*
X1341932Y3276600D01*
X1342847Y3262782D01*
X1345539Y3249168D01*
X1349959Y3236061D01*
X1356106Y3223666D01*
X1363776Y3212134D01*
X1372920Y3201720D01*
X1383334Y3192576D01*
X1394866Y3184906D01*
X1407261Y3178759D01*
X1420418Y3174339D01*
X1433982Y3171596D01*
G37*
G36*
X3733800Y3170732D02*
G01*
X3747617Y3171596D01*
X3761181Y3174339D01*
X3774338Y3178759D01*
X3786733Y3184906D01*
X3798265Y3192576D01*
X3808679Y3201720D01*
X3817823Y3212134D01*
X3825494Y3223666D01*
X3831640Y3236061D01*
X3836060Y3249168D01*
X3838752Y3262782D01*
X3839667Y3276600D01*
X3838752Y3290417D01*
X3836060Y3303981D01*
X3831640Y3317138D01*
X3825494Y3329533D01*
X3817823Y3341065D01*
X3808679Y3351479D01*
X3798265Y3360623D01*
X3786733Y3368294D01*
X3774338Y3374440D01*
X3761181Y3378860D01*
X3747617Y3381552D01*
X3733800Y3382467D01*
X3719982Y3381552D01*
X3706368Y3378860D01*
X3693261Y3374440D01*
X3680866Y3368294D01*
X3669334Y3360623D01*
X3658920Y3351479D01*
X3649776Y3341065D01*
X3642106Y3329533D01*
X3635959Y3317138D01*
X3631539Y3303981D01*
X3628796Y3290417D01*
X3627932Y3276600D01*
X3628796Y3262782D01*
X3631539Y3249168D01*
X3635959Y3236061D01*
X3642106Y3223666D01*
X3649776Y3212134D01*
X3658920Y3201720D01*
X3669334Y3192576D01*
X3680866Y3184906D01*
X3693261Y3178759D01*
X3706368Y3174339D01*
X3719982Y3171596D01*
G37*
G36*
X1447800Y3424732D02*
G01*
X1461617Y3425596D01*
X1475232Y3428339D01*
X1488338Y3432759D01*
X1500733Y3438906D01*
X1512265Y3446576D01*
X1522679Y3455720D01*
X1531823Y3466134D01*
X1539494Y3477666D01*
X1545640Y3490061D01*
X1550060Y3503168D01*
X1552803Y3516782D01*
X1553667Y3530600D01*
X1552803Y3544417D01*
X1550060Y3557981D01*
X1545640Y3571138D01*
X1539494Y3583533D01*
X1531823Y3595065D01*
X1522679Y3605479D01*
X1512265Y3614623D01*
X1500733Y3622294D01*
X1488338Y3628440D01*
X1475232Y3632860D01*
X1461617Y3635552D01*
X1447800Y3636467D01*
X1433982Y3635552D01*
X1420418Y3632860D01*
X1407261Y3628440D01*
X1394866Y3622294D01*
X1383334Y3614623D01*
X1372920Y3605479D01*
X1363776Y3595065D01*
X1356106Y3583533D01*
X1349959Y3571138D01*
X1345539Y3557981D01*
X1342847Y3544417D01*
X1341932Y3530600D01*
X1342847Y3516782D01*
X1345539Y3503168D01*
X1349959Y3490061D01*
X1356106Y3477666D01*
X1363776Y3466134D01*
X1372920Y3455720D01*
X1383334Y3446576D01*
X1394866Y3438906D01*
X1407261Y3432759D01*
X1420418Y3428339D01*
X1433982Y3425596D01*
G37*
G36*
X3733800Y3424732D02*
G01*
X3747617Y3425596D01*
X3761181Y3428339D01*
X3774338Y3432759D01*
X3786733Y3438906D01*
X3798265Y3446576D01*
X3808679Y3455720D01*
X3817823Y3466134D01*
X3825494Y3477666D01*
X3831640Y3490061D01*
X3836060Y3503168D01*
X3838752Y3516782D01*
X3839667Y3530600D01*
X3838752Y3544417D01*
X3836060Y3557981D01*
X3831640Y3571138D01*
X3825494Y3583533D01*
X3817823Y3595065D01*
X3808679Y3605479D01*
X3798265Y3614623D01*
X3786733Y3622294D01*
X3774338Y3628440D01*
X3761181Y3632860D01*
X3747617Y3635552D01*
X3733800Y3636467D01*
X3719982Y3635552D01*
X3706368Y3632860D01*
X3693261Y3628440D01*
X3680866Y3622294D01*
X3669334Y3614623D01*
X3658920Y3605479D01*
X3649776Y3595065D01*
X3642106Y3583533D01*
X3635959Y3571138D01*
X3631539Y3557981D01*
X3628796Y3544417D01*
X3627932Y3530600D01*
X3628796Y3516782D01*
X3631539Y3503168D01*
X3635959Y3490061D01*
X3642106Y3477666D01*
X3649776Y3466134D01*
X3658920Y3455720D01*
X3669334Y3446576D01*
X3680866Y3438906D01*
X3693261Y3432759D01*
X3706368Y3428339D01*
X3719982Y3425596D01*
G37*
G36*
X1447800Y3678732D02*
G01*
X1461617Y3679596D01*
X1475232Y3682339D01*
X1488338Y3686759D01*
X1500733Y3692906D01*
X1512265Y3700576D01*
X1522679Y3709720D01*
X1531823Y3720134D01*
X1539494Y3731666D01*
X1545640Y3744061D01*
X1550060Y3757168D01*
X1552803Y3770782D01*
X1553667Y3784600D01*
X1552803Y3798417D01*
X1550060Y3811981D01*
X1545640Y3825138D01*
X1539494Y3837533D01*
X1531823Y3849065D01*
X1522679Y3859479D01*
X1512265Y3868623D01*
X1500733Y3876294D01*
X1488338Y3882440D01*
X1475232Y3886860D01*
X1461617Y3889552D01*
X1447800Y3890467D01*
X1433982Y3889552D01*
X1420418Y3886860D01*
X1407261Y3882440D01*
X1394866Y3876294D01*
X1383334Y3868623D01*
X1372920Y3859479D01*
X1363776Y3849065D01*
X1356106Y3837533D01*
X1349959Y3825138D01*
X1345539Y3811981D01*
X1342847Y3798417D01*
X1341932Y3784600D01*
X1342847Y3770782D01*
X1345539Y3757168D01*
X1349959Y3744061D01*
X1356106Y3731666D01*
X1363776Y3720134D01*
X1372920Y3709720D01*
X1383334Y3700576D01*
X1394866Y3692906D01*
X1407261Y3686759D01*
X1420418Y3682339D01*
X1433982Y3679596D01*
G37*
G36*
X3733800Y3678732D02*
G01*
X3747617Y3679596D01*
X3761181Y3682339D01*
X3774338Y3686759D01*
X3786733Y3692906D01*
X3798265Y3700576D01*
X3808679Y3709720D01*
X3817823Y3720134D01*
X3825494Y3731666D01*
X3831640Y3744061D01*
X3836060Y3757168D01*
X3838752Y3770782D01*
X3839667Y3784600D01*
X3838752Y3798417D01*
X3836060Y3811981D01*
X3831640Y3825138D01*
X3825494Y3837533D01*
X3817823Y3849065D01*
X3808679Y3859479D01*
X3798265Y3868623D01*
X3786733Y3876294D01*
X3774338Y3882440D01*
X3761181Y3886860D01*
X3747617Y3889552D01*
X3733800Y3890467D01*
X3719982Y3889552D01*
X3706368Y3886860D01*
X3693261Y3882440D01*
X3680866Y3876294D01*
X3669334Y3868623D01*
X3658920Y3859479D01*
X3649776Y3849065D01*
X3642106Y3837533D01*
X3635959Y3825138D01*
X3631539Y3811981D01*
X3628796Y3798417D01*
X3627932Y3784600D01*
X3628796Y3770782D01*
X3631539Y3757168D01*
X3635959Y3744061D01*
X3642106Y3731666D01*
X3649776Y3720134D01*
X3658920Y3709720D01*
X3669334Y3700576D01*
X3680866Y3692906D01*
X3693261Y3686759D01*
X3706368Y3682339D01*
X3719982Y3679596D01*
G37*
G36*
X1447800Y3932732D02*
G01*
X1461617Y3933596D01*
X1475232Y3936339D01*
X1488338Y3940759D01*
X1500733Y3946906D01*
X1512265Y3954576D01*
X1522679Y3963720D01*
X1531823Y3974134D01*
X1539494Y3985666D01*
X1545640Y3998061D01*
X1550060Y4011168D01*
X1552803Y4024782D01*
X1553667Y4038600D01*
X1552803Y4052417D01*
X1550060Y4065981D01*
X1545640Y4079138D01*
X1539494Y4091533D01*
X1531823Y4103065D01*
X1522679Y4113479D01*
X1512265Y4122623D01*
X1500733Y4130294D01*
X1488338Y4136440D01*
X1475232Y4140860D01*
X1461617Y4143552D01*
X1447800Y4144467D01*
X1433982Y4143552D01*
X1420418Y4140860D01*
X1407261Y4136440D01*
X1394866Y4130294D01*
X1383334Y4122623D01*
X1372920Y4113479D01*
X1363776Y4103065D01*
X1356106Y4091533D01*
X1349959Y4079138D01*
X1345539Y4065981D01*
X1342847Y4052417D01*
X1341932Y4038600D01*
X1342847Y4024782D01*
X1345539Y4011168D01*
X1349959Y3998061D01*
X1356106Y3985666D01*
X1363776Y3974134D01*
X1372920Y3963720D01*
X1383334Y3954576D01*
X1394866Y3946906D01*
X1407261Y3940759D01*
X1420418Y3936339D01*
X1433982Y3933596D01*
G37*
G36*
X3733800Y3932732D02*
G01*
X3747617Y3933596D01*
X3761181Y3936339D01*
X3774338Y3940759D01*
X3786733Y3946906D01*
X3798265Y3954576D01*
X3808679Y3963720D01*
X3817823Y3974134D01*
X3825494Y3985666D01*
X3831640Y3998061D01*
X3836060Y4011168D01*
X3838752Y4024782D01*
X3839667Y4038600D01*
X3838752Y4052417D01*
X3836060Y4065981D01*
X3831640Y4079138D01*
X3825494Y4091533D01*
X3817823Y4103065D01*
X3808679Y4113479D01*
X3798265Y4122623D01*
X3786733Y4130294D01*
X3774338Y4136440D01*
X3761181Y4140860D01*
X3747617Y4143552D01*
X3733800Y4144467D01*
X3719982Y4143552D01*
X3706368Y4140860D01*
X3693261Y4136440D01*
X3680866Y4130294D01*
X3669334Y4122623D01*
X3658920Y4113479D01*
X3649776Y4103065D01*
X3642106Y4091533D01*
X3635959Y4079138D01*
X3631539Y4065981D01*
X3628796Y4052417D01*
X3627932Y4038600D01*
X3628796Y4024782D01*
X3631539Y4011168D01*
X3635959Y3998061D01*
X3642106Y3985666D01*
X3649776Y3974134D01*
X3658920Y3963720D01*
X3669334Y3954576D01*
X3680866Y3946906D01*
X3693261Y3940759D01*
X3706368Y3936339D01*
X3719982Y3933596D01*
G37*
G36*
X1447800Y4186732D02*
G01*
X1461617Y4187596D01*
X1475232Y4190339D01*
X1488338Y4194759D01*
X1500733Y4200906D01*
X1512265Y4208576D01*
X1522679Y4217720D01*
X1531823Y4228134D01*
X1539494Y4239666D01*
X1545640Y4252061D01*
X1550060Y4265168D01*
X1552803Y4278782D01*
X1553667Y4292600D01*
X1552803Y4306417D01*
X1550060Y4319981D01*
X1545640Y4333138D01*
X1539494Y4345533D01*
X1531823Y4357065D01*
X1522679Y4367479D01*
X1512265Y4376623D01*
X1500733Y4384294D01*
X1488338Y4390440D01*
X1475232Y4394860D01*
X1461617Y4397552D01*
X1447800Y4398467D01*
X1433982Y4397552D01*
X1420418Y4394860D01*
X1407261Y4390440D01*
X1394866Y4384294D01*
X1383334Y4376623D01*
X1372920Y4367479D01*
X1363776Y4357065D01*
X1356106Y4345533D01*
X1349959Y4333138D01*
X1345539Y4319981D01*
X1342847Y4306417D01*
X1341932Y4292600D01*
X1342847Y4278782D01*
X1345539Y4265168D01*
X1349959Y4252061D01*
X1356106Y4239666D01*
X1363776Y4228134D01*
X1372920Y4217720D01*
X1383334Y4208576D01*
X1394866Y4200906D01*
X1407261Y4194759D01*
X1420418Y4190339D01*
X1433982Y4187596D01*
G37*
G36*
X3733800Y4186732D02*
G01*
X3747617Y4187596D01*
X3761181Y4190339D01*
X3774338Y4194759D01*
X3786733Y4200906D01*
X3798265Y4208576D01*
X3808679Y4217720D01*
X3817823Y4228134D01*
X3825494Y4239666D01*
X3831640Y4252061D01*
X3836060Y4265168D01*
X3838752Y4278782D01*
X3839667Y4292600D01*
X3838752Y4306417D01*
X3836060Y4319981D01*
X3831640Y4333138D01*
X3825494Y4345533D01*
X3817823Y4357065D01*
X3808679Y4367479D01*
X3798265Y4376623D01*
X3786733Y4384294D01*
X3774338Y4390440D01*
X3761181Y4394860D01*
X3747617Y4397552D01*
X3733800Y4398467D01*
X3719982Y4397552D01*
X3706368Y4394860D01*
X3693261Y4390440D01*
X3680866Y4384294D01*
X3669334Y4376623D01*
X3658920Y4367479D01*
X3649776Y4357065D01*
X3642106Y4345533D01*
X3635959Y4333138D01*
X3631539Y4319981D01*
X3628796Y4306417D01*
X3627932Y4292600D01*
X3628796Y4278782D01*
X3631539Y4265168D01*
X3635959Y4252061D01*
X3642106Y4239666D01*
X3649776Y4228134D01*
X3658920Y4217720D01*
X3669334Y4208576D01*
X3680866Y4200906D01*
X3693261Y4194759D01*
X3706368Y4190339D01*
X3719982Y4187596D01*
G37*
G36*
X1447800Y4440732D02*
G01*
X1461617Y4441596D01*
X1475232Y4444339D01*
X1488338Y4448759D01*
X1500733Y4454906D01*
X1512265Y4462576D01*
X1522679Y4471720D01*
X1531823Y4482134D01*
X1539494Y4493666D01*
X1545640Y4506061D01*
X1550060Y4519168D01*
X1552803Y4532782D01*
X1553667Y4546600D01*
X1552803Y4560417D01*
X1550060Y4573981D01*
X1545640Y4587138D01*
X1539494Y4599533D01*
X1531823Y4611065D01*
X1522679Y4621479D01*
X1512265Y4630623D01*
X1500733Y4638294D01*
X1488338Y4644440D01*
X1475232Y4648860D01*
X1461617Y4651552D01*
X1447800Y4652467D01*
X1433982Y4651552D01*
X1420418Y4648860D01*
X1407261Y4644440D01*
X1394866Y4638294D01*
X1383334Y4630623D01*
X1372920Y4621479D01*
X1363776Y4611065D01*
X1356106Y4599533D01*
X1349959Y4587138D01*
X1345539Y4573981D01*
X1342847Y4560417D01*
X1341932Y4546600D01*
X1342847Y4532782D01*
X1345539Y4519168D01*
X1349959Y4506061D01*
X1356106Y4493666D01*
X1363776Y4482134D01*
X1372920Y4471720D01*
X1383334Y4462576D01*
X1394866Y4454906D01*
X1407261Y4448759D01*
X1420418Y4444339D01*
X1433982Y4441596D01*
G37*
G36*
X3733800Y4440732D02*
G01*
X3747617Y4441596D01*
X3761181Y4444339D01*
X3774338Y4448759D01*
X3786733Y4454906D01*
X3798265Y4462576D01*
X3808679Y4471720D01*
X3817823Y4482134D01*
X3825494Y4493666D01*
X3831640Y4506061D01*
X3836060Y4519168D01*
X3838752Y4532782D01*
X3839667Y4546600D01*
X3838752Y4560417D01*
X3836060Y4573981D01*
X3831640Y4587138D01*
X3825494Y4599533D01*
X3817823Y4611065D01*
X3808679Y4621479D01*
X3798265Y4630623D01*
X3786733Y4638294D01*
X3774338Y4644440D01*
X3761181Y4648860D01*
X3747617Y4651552D01*
X3733800Y4652467D01*
X3719982Y4651552D01*
X3706368Y4648860D01*
X3693261Y4644440D01*
X3680866Y4638294D01*
X3669334Y4630623D01*
X3658920Y4621479D01*
X3649776Y4611065D01*
X3642106Y4599533D01*
X3635959Y4587138D01*
X3631539Y4573981D01*
X3628796Y4560417D01*
X3627932Y4546600D01*
X3628796Y4532782D01*
X3631539Y4519168D01*
X3635959Y4506061D01*
X3642106Y4493666D01*
X3649776Y4482134D01*
X3658920Y4471720D01*
X3669334Y4462576D01*
X3680866Y4454906D01*
X3693261Y4448759D01*
X3706368Y4444339D01*
X3719982Y4441596D01*
G37*
G36*
X3733800Y4694732D02*
G01*
X3747617Y4695596D01*
X3761181Y4698339D01*
X3774338Y4702759D01*
X3786733Y4708906D01*
X3798265Y4716576D01*
X3808679Y4725720D01*
X3817823Y4736134D01*
X3825494Y4747666D01*
X3831640Y4760061D01*
X3836060Y4773168D01*
X3838752Y4786782D01*
X3839667Y4800600D01*
X3838752Y4814417D01*
X3836060Y4827981D01*
X3831640Y4841138D01*
X3825494Y4853533D01*
X3817823Y4865065D01*
X3808679Y4875479D01*
X3798265Y4884623D01*
X3786733Y4892294D01*
X3774338Y4898440D01*
X3761181Y4902860D01*
X3747617Y4905552D01*
X3733800Y4906467D01*
X3719982Y4905552D01*
X3706368Y4902860D01*
X3693261Y4898440D01*
X3680866Y4892294D01*
X3669334Y4884623D01*
X3658920Y4875479D01*
X3649776Y4865065D01*
X3642106Y4853533D01*
X3635959Y4841138D01*
X3631539Y4827981D01*
X3628796Y4814417D01*
X3627932Y4800600D01*
X3628796Y4786782D01*
X3631539Y4773168D01*
X3635959Y4760061D01*
X3642106Y4747666D01*
X3649776Y4736134D01*
X3658920Y4725720D01*
X3669334Y4716576D01*
X3680866Y4708906D01*
X3693261Y4702759D01*
X3706368Y4698339D01*
X3719982Y4695596D01*
G37*
G36*
X1401470Y4705654D02*
G01*
X1401470Y4754219D01*
X1352854Y4754219D01*
X1356106Y4747666D01*
X1363776Y4736134D01*
X1372920Y4725720D01*
X1383334Y4716576D01*
X1394866Y4708906D01*
G37*
G36*
X1494129Y4705654D02*
G01*
X1500733Y4708906D01*
X1512265Y4716576D01*
X1522679Y4725720D01*
X1531823Y4736134D01*
X1539494Y4747666D01*
X1542745Y4754219D01*
X1494129Y4754219D01*
G37*
G36*
X2768600Y4768138D02*
G01*
X2782722Y4769104D01*
X2796641Y4771847D01*
X2810052Y4776419D01*
X2822803Y4782667D01*
X2834589Y4790541D01*
X2845257Y4799888D01*
X2854604Y4810556D01*
X2862478Y4822342D01*
X2868726Y4835093D01*
X2873298Y4848504D01*
X2876042Y4862423D01*
X2877007Y4876546D01*
X2876042Y4890668D01*
X2873298Y4904587D01*
X2868726Y4917998D01*
X2862478Y4930749D01*
X2854604Y4942535D01*
X2845257Y4953203D01*
X2834589Y4962550D01*
X2822803Y4970424D01*
X2810052Y4976672D01*
X2796641Y4981244D01*
X2782722Y4983988D01*
X2768600Y4984953D01*
X2754477Y4983988D01*
X2740558Y4981244D01*
X2727147Y4976672D01*
X2714396Y4970424D01*
X2702610Y4962550D01*
X2691942Y4953203D01*
X2682595Y4942535D01*
X2674721Y4930749D01*
X2668473Y4917998D01*
X2663901Y4904587D01*
X2661158Y4890668D01*
X2660192Y4876546D01*
X2661158Y4862423D01*
X2663901Y4848504D01*
X2668473Y4835093D01*
X2674721Y4822342D01*
X2682595Y4810556D01*
X2691942Y4799888D01*
X2702610Y4790541D01*
X2714396Y4782667D01*
X2727147Y4776419D01*
X2740558Y4771847D01*
X2754477Y4769104D01*
G37*
G36*
X2006600Y4768392D02*
G01*
X2020722Y4769358D01*
X2034641Y4772101D01*
X2048052Y4776673D01*
X2060803Y4782921D01*
X2072589Y4790795D01*
X2083257Y4800142D01*
X2092604Y4810810D01*
X2100478Y4822596D01*
X2106726Y4835347D01*
X2111298Y4848758D01*
X2114042Y4862677D01*
X2115007Y4876800D01*
X2114042Y4890973D01*
X2111298Y4904841D01*
X2106726Y4918303D01*
X2100478Y4931003D01*
X2092604Y4942789D01*
X2083257Y4953457D01*
X2072589Y4962804D01*
X2060803Y4970678D01*
X2048052Y4976926D01*
X2034641Y4981498D01*
X2020722Y4984242D01*
X2006600Y4985207D01*
X1992426Y4984242D01*
X1978558Y4981498D01*
X1965096Y4976926D01*
X1952396Y4970678D01*
X1940610Y4962804D01*
X1929942Y4953457D01*
X1920595Y4942789D01*
X1912721Y4931003D01*
X1906473Y4918303D01*
X1901901Y4904841D01*
X1899157Y4890973D01*
X1898192Y4876800D01*
X1899157Y4862677D01*
X1901901Y4848758D01*
X1906473Y4835347D01*
X1912721Y4822596D01*
X1920595Y4810810D01*
X1929942Y4800142D01*
X1940610Y4790795D01*
X1952396Y4782921D01*
X1965096Y4776673D01*
X1978558Y4772101D01*
X1992426Y4769358D01*
G37*
G36*
X3022346Y4768646D02*
G01*
X3036468Y4769612D01*
X3050387Y4772355D01*
X3063798Y4776927D01*
X3076549Y4783175D01*
X3088335Y4791049D01*
X3099003Y4800396D01*
X3108350Y4811064D01*
X3116224Y4822850D01*
X3122472Y4835601D01*
X3127044Y4849012D01*
X3129788Y4862931D01*
X3130753Y4877054D01*
X3129788Y4891176D01*
X3127044Y4905095D01*
X3122472Y4918506D01*
X3116224Y4931257D01*
X3108350Y4943043D01*
X3099003Y4953711D01*
X3088335Y4963058D01*
X3076549Y4970932D01*
X3063798Y4977180D01*
X3050387Y4981752D01*
X3036468Y4984496D01*
X3022346Y4985461D01*
X3008223Y4984496D01*
X2994304Y4981752D01*
X2980893Y4977180D01*
X2968142Y4970932D01*
X2956356Y4963058D01*
X2945688Y4953711D01*
X2936341Y4943043D01*
X2928467Y4931257D01*
X2922219Y4918506D01*
X2917647Y4905095D01*
X2914904Y4891176D01*
X2913938Y4877054D01*
X2914904Y4862931D01*
X2917647Y4849012D01*
X2922219Y4835601D01*
X2928467Y4822850D01*
X2936341Y4811064D01*
X2945688Y4800396D01*
X2956356Y4791049D01*
X2968142Y4783175D01*
X2980893Y4776927D01*
X2994304Y4772355D01*
X3008223Y4769612D01*
G37*
G36*
X3276346Y4768646D02*
G01*
X3290468Y4769612D01*
X3304387Y4772355D01*
X3317798Y4776927D01*
X3330549Y4783175D01*
X3342335Y4791049D01*
X3353003Y4800396D01*
X3362350Y4811064D01*
X3370224Y4822850D01*
X3376472Y4835601D01*
X3381044Y4849012D01*
X3383787Y4862931D01*
X3384753Y4877054D01*
X3383787Y4891176D01*
X3381044Y4905095D01*
X3376472Y4918506D01*
X3370224Y4931257D01*
X3362350Y4943043D01*
X3353003Y4953711D01*
X3342335Y4963058D01*
X3330549Y4970932D01*
X3317798Y4977180D01*
X3304387Y4981752D01*
X3290468Y4984496D01*
X3276346Y4985461D01*
X3262223Y4984496D01*
X3248304Y4981752D01*
X3234893Y4977180D01*
X3222142Y4970932D01*
X3210356Y4963058D01*
X3199688Y4953711D01*
X3190341Y4943043D01*
X3182467Y4931257D01*
X3176219Y4918506D01*
X3171647Y4905095D01*
X3168904Y4891176D01*
X3167938Y4877054D01*
X3168904Y4862931D01*
X3171647Y4849012D01*
X3176219Y4835601D01*
X3182467Y4822850D01*
X3190341Y4811064D01*
X3199688Y4800396D01*
X3210356Y4791049D01*
X3222142Y4783175D01*
X3234893Y4776927D01*
X3248304Y4772355D01*
X3262223Y4769612D01*
G37*
G36*
X2308199Y4768900D02*
G01*
X2342540Y4768900D01*
X2348839Y4769612D01*
X2354326Y4771542D01*
X2359202Y4774590D01*
X2363317Y4778705D01*
X2366365Y4783582D01*
X2368296Y4789068D01*
X2369007Y4795367D01*
X2369007Y4829708D01*
X2308199Y4829708D01*
G37*
G36*
X2178659Y4768900D02*
G01*
X2213000Y4768900D01*
X2213000Y4829708D01*
X2152192Y4829708D01*
X2152192Y4795367D01*
X2152904Y4789068D01*
X2154834Y4783582D01*
X2157882Y4778705D01*
X2161997Y4774590D01*
X2166874Y4771542D01*
X2172360Y4769612D01*
G37*
G36*
X2514600Y4768900D02*
G01*
X2528722Y4769866D01*
X2542641Y4772609D01*
X2556052Y4777181D01*
X2568803Y4783429D01*
X2580589Y4791303D01*
X2591257Y4800650D01*
X2600604Y4811318D01*
X2608478Y4823104D01*
X2614726Y4835855D01*
X2619298Y4849266D01*
X2622042Y4863185D01*
X2623007Y4877308D01*
X2622042Y4891430D01*
X2619298Y4905349D01*
X2614726Y4918760D01*
X2608478Y4931511D01*
X2600604Y4943297D01*
X2591257Y4953965D01*
X2580589Y4963312D01*
X2568803Y4971186D01*
X2556052Y4977434D01*
X2542641Y4982006D01*
X2528722Y4984750D01*
X2514600Y4985715D01*
X2500477Y4984750D01*
X2486558Y4982006D01*
X2473147Y4977434D01*
X2460396Y4971186D01*
X2448610Y4963312D01*
X2437942Y4953965D01*
X2428595Y4943297D01*
X2420721Y4931511D01*
X2414473Y4918760D01*
X2409901Y4905349D01*
X2407158Y4891430D01*
X2406192Y4877308D01*
X2407158Y4863185D01*
X2409901Y4849266D01*
X2414473Y4835855D01*
X2420721Y4823104D01*
X2428595Y4811318D01*
X2437942Y4800650D01*
X2448610Y4791303D01*
X2460396Y4783429D01*
X2473147Y4777181D01*
X2486558Y4772609D01*
X2500477Y4769866D01*
G37*
G36*
X1494129Y4846929D02*
G01*
X1542745Y4846929D01*
X1539494Y4853533D01*
X1531823Y4865065D01*
X1522679Y4875479D01*
X1512265Y4884623D01*
X1500733Y4892294D01*
X1494129Y4895545D01*
G37*
G36*
X1352854Y4846929D02*
G01*
X1401470Y4846929D01*
X1401470Y4895545D01*
X1394866Y4892294D01*
X1383334Y4884623D01*
X1372920Y4875479D01*
X1363776Y4865065D01*
X1356106Y4853533D01*
G37*
G36*
X2152192Y4924907D02*
G01*
X2213000Y4924907D01*
X2213000Y4985715D01*
X2178659Y4985715D01*
X2172360Y4985004D01*
X2166874Y4983073D01*
X2161997Y4980025D01*
X2157882Y4975910D01*
X2154834Y4971034D01*
X2152904Y4965547D01*
X2152192Y4959248D01*
G37*
G36*
X2308199Y4924907D02*
G01*
X2369007Y4924907D01*
X2369007Y4959248D01*
X2368296Y4965547D01*
X2366365Y4971034D01*
X2363317Y4975910D01*
X2359202Y4980025D01*
X2354326Y4983073D01*
X2348839Y4985004D01*
X2342540Y4985715D01*
X2308199Y4985715D01*
G37*
G36*
X1494129Y4959654D02*
G01*
X1500733Y4962906D01*
X1512265Y4970576D01*
X1522679Y4979720D01*
X1531823Y4990134D01*
X1539494Y5001666D01*
X1542745Y5008219D01*
X1494129Y5008219D01*
G37*
G36*
X1401470Y4959654D02*
G01*
X1401470Y5008219D01*
X1352854Y5008219D01*
X1356106Y5001666D01*
X1363776Y4990134D01*
X1372920Y4979720D01*
X1383334Y4970576D01*
X1394866Y4962906D01*
G37*
G36*
X3687470Y4959654D02*
G01*
X3687470Y5008219D01*
X3638854Y5008219D01*
X3642106Y5001666D01*
X3649776Y4990134D01*
X3658920Y4979720D01*
X3669334Y4970576D01*
X3680866Y4962906D01*
G37*
G36*
X3780129Y4959654D02*
G01*
X3786733Y4962906D01*
X3798265Y4970576D01*
X3808679Y4979720D01*
X3817823Y4990134D01*
X3825494Y5001666D01*
X3828745Y5008219D01*
X3780129Y5008219D01*
G37*
G36*
X1494129Y5100929D02*
G01*
X1542745Y5100929D01*
X1539494Y5107533D01*
X1531823Y5119065D01*
X1522679Y5129479D01*
X1512265Y5138572D01*
X1500733Y5146294D01*
X1494129Y5149545D01*
G37*
G36*
X1352854Y5100929D02*
G01*
X1401470Y5100929D01*
X1401470Y5149545D01*
X1394866Y5146294D01*
X1383334Y5138572D01*
X1372920Y5129479D01*
X1363776Y5119065D01*
X1356106Y5107533D01*
G37*
G36*
X3780129Y5100929D02*
G01*
X3828745Y5100929D01*
X3825494Y5107533D01*
X3817823Y5119065D01*
X3808679Y5129479D01*
X3798265Y5138572D01*
X3786733Y5146294D01*
X3780129Y5149545D01*
G37*
G36*
X3638854Y5100929D02*
G01*
X3687470Y5100929D01*
X3687470Y5149545D01*
X3680866Y5146294D01*
X3669334Y5138572D01*
X3658920Y5129479D01*
X3649776Y5119065D01*
X3642106Y5107533D01*
G37*

%LPD*%
D10*
X4051302Y-771451D02*
G01*
X4051302Y-684938D01*
X4051302Y-534266D02*
G01*
X4051302Y-345899D01*
X3989885Y-284482D01*
D11*
G01*
X4051300Y-534275D03*
D12*
G01*
X4051300Y-684936D03*
D13*
G01*
X3733800Y-279397D03*
G01*
X3733800Y-25397D03*
G01*
X3733800Y228602D03*
G01*
X3733800Y482602D03*
G01*
X3733800Y736602D03*
G01*
X3733800Y990602D03*
G01*
X3733800Y1244602D03*
G01*
X3733800Y1498602D03*
G01*
X3733800Y1752602D03*
G01*
X3733800Y2006602D03*
G01*
X3733800Y2260602D03*
G01*
X3733800Y2514602D03*
G01*
X3733800Y2768602D03*
G01*
X3733800Y3022602D03*
G01*
X3733800Y3276602D03*
G01*
X3733800Y3530602D03*
G01*
X3733800Y3784602D03*
G01*
X3733800Y4038602D03*
G01*
X3733800Y4292602D03*
G01*
X3733800Y4546602D03*
G01*
X3733800Y4800602D03*
G01*
X3733800Y5054602D03*
G01*
X1447800Y5054602D03*
G01*
X1447800Y4800602D03*
G01*
X1447800Y4546602D03*
G01*
X1447800Y4292602D03*
G01*
X1447800Y4038602D03*
G01*
X1447800Y3784602D03*
G01*
X1447800Y3530602D03*
G01*
X1447800Y3276602D03*
G01*
X1447800Y3022602D03*
G01*
X1447800Y2768602D03*
G01*
X1447800Y2514602D03*
G01*
X1447800Y2260602D03*
G01*
X1447800Y2006602D03*
G01*
X1447800Y1752602D03*
G01*
X1447800Y1498602D03*
G01*
X1447800Y1244602D03*
G01*
X1447800Y990602D03*
G01*
X1447800Y736602D03*
G01*
X1447800Y482602D03*
G01*
X1447800Y228602D03*
G01*
X1447800Y-25397D03*
G01*
X1447800Y-279397D03*
D14*
G01*
X4166997Y-3043402D03*
G01*
X4166997Y-1265402D03*
D15*
G01*
X1301114Y-1836140D03*
G01*
X1301114Y-2536139D03*
D16*
G01*
X1030096Y-1529156D03*
G01*
X1030096Y-2843148D03*
D18*
G01*
X3138297Y-1138402D03*
G01*
X2884297Y-1138402D03*
G01*
X2630297Y-1138402D03*
G01*
X2376297Y-1138402D03*
G01*
X2122297Y-1138402D03*
G01*
X1868296Y-1138402D03*
G01*
X1614296Y-1138402D03*
G01*
X1360296Y-1138402D03*
D19*
G01*
X2865399Y-2235200D03*
G01*
X2565400Y-2235200D03*
G01*
X2265400Y-2235200D03*
D20*
G01*
X2552700Y1694535D03*
G01*
X2552700Y1445996D03*
G01*
X2552700Y1197432D03*
G01*
X2552700Y939800D03*
G01*
X2552700Y700303D03*
G01*
X2552700Y451764D03*
G01*
X2552700Y203200D03*
G01*
X2552700Y1943100D03*
D21*
G01*
X3276345Y4877054D03*
G01*
X3022345Y4877054D03*
G01*
X2768600Y4876545D03*
G01*
X2514600Y4877307D03*
D22*
G01*
X2260597Y4877302D03*
D23*
G01*
X2006600Y4876800D03*
D20*
G01*
X889002Y1079497D03*
G01*
X901702Y685797D03*
G01*
X901702Y292097D03*
G01*
X901702Y-127002D03*
G01*
X901702Y-533402D03*
G01*
X4191002Y1269997D03*
G01*
X4191002Y761997D03*
G01*
X4191002Y253997D03*
G01*
X4203702Y-139702D03*
D24*
G01*
X3989885Y-284482D03*
G01*
X4051302Y-771451D03*
M02*
