G04 Layer: TopSolderMaskLayer*
G04 EasyEDA v6.5.51, 2026-01-24 23:07:51*
G04 24400cab11b14a41ade87b5bf348eb15,64650944e1e6431b8ca2675abf886f56,10*
G04 Gerber Generator version 0.2*
G04 Scale: 100 percent, Rotated: No, Reflected: No *
G04 Dimensions in millimeters *
G04 leading zeros omitted , absolute positions ,4 integer and 5 decimal *
%FSLAX45Y45*%
%MOMM*%

%AMMACRO1*4,1,8,-0.4531,-0.454,-0.4829,-0.4241,-0.4829,0.4243,-0.4531,0.454,0.4529,0.454,0.4829,0.4243,0.4829,-0.4241,0.4529,-0.454,-0.4531,-0.454,0*%
%AMMACRO2*4,1,8,-0.8463,-0.876,-0.876,-0.8461,-0.876,0.8463,-0.8463,0.876,0.8461,0.876,0.876,0.8463,0.876,-0.8461,0.8461,-0.876,-0.8463,-0.876,0*%
%ADD10MACRO1*%
%ADD11C,1.7016*%
%ADD12C,3.7191*%
%ADD13O,3.11912X1.66116*%
%ADD14C,3.5192*%
%ADD15C,0.0136*%
%ADD16C,1.8796*%
%ADD17O,2.401595X1.301598*%
%ADD18C,1.6256*%
%ADD19C,1.7516*%
%ADD20MACRO2*%
%ADD21C,1.7520*%

%LPD*%
G36*
X751078Y5517184D02*
G01*
X746861Y5514695D01*
X744982Y5513019D01*
X742950Y5510123D01*
X742086Y5506313D01*
X743254Y5500878D01*
X744016Y5499049D01*
X747268Y5493512D01*
X760831Y5478119D01*
X767943Y5470652D01*
X771042Y5466943D01*
X777544Y5459933D01*
X782929Y5454751D01*
X782929Y5454396D01*
X739444Y5454700D01*
X732942Y5453532D01*
X729538Y5451398D01*
X726846Y5447842D01*
X725373Y5445506D01*
X724255Y5442051D01*
X725322Y5438546D01*
X726389Y5436209D01*
X730250Y5431536D01*
X734314Y5429504D01*
X755243Y5428996D01*
X762914Y5428488D01*
X762914Y5427268D01*
X759917Y5424576D01*
X734568Y5397906D01*
X731774Y5393486D01*
X731774Y5386679D01*
X733704Y5382463D01*
X737006Y5379161D01*
X740816Y5377230D01*
X747826Y5377129D01*
X751992Y5380075D01*
X781253Y5412486D01*
X797407Y5428538D01*
X798982Y5428538D01*
X805484Y5421782D01*
X821283Y5403646D01*
X826109Y5398516D01*
X837082Y5385968D01*
X843178Y5379415D01*
X850595Y5369661D01*
X861364Y5357672D01*
X863193Y5355183D01*
X868375Y5349189D01*
X879246Y5335930D01*
X895603Y5317337D01*
X796645Y5317642D01*
X792022Y5316778D01*
X788212Y5313832D01*
X784352Y5309412D01*
X783285Y5305450D01*
X783793Y5300827D01*
X785977Y5296712D01*
X788771Y5293766D01*
X791260Y5292140D01*
X917194Y5291836D01*
X918718Y5291226D01*
X919683Y5288737D01*
X920851Y5282692D01*
X920648Y5237073D01*
X918260Y5209133D01*
X918616Y5197856D01*
X909269Y5197195D01*
X792937Y5197500D01*
X789228Y5195722D01*
X784402Y5190845D01*
X782828Y5186070D01*
X783488Y5182616D01*
X784961Y5179364D01*
X790143Y5173980D01*
X793292Y5172608D01*
X894587Y5172608D01*
X894587Y5171846D01*
X892048Y5168544D01*
X871575Y5144058D01*
X863650Y5135168D01*
X823976Y5088178D01*
X809701Y5072380D01*
X798423Y5060950D01*
X797610Y5060950D01*
X792022Y5066334D01*
X775258Y5084927D01*
X761136Y5099354D01*
X752652Y5109108D01*
X749300Y5111140D01*
X743610Y5112207D01*
X738987Y5111140D01*
X735228Y5108956D01*
X731875Y5104485D01*
X730656Y5100523D01*
X731824Y5095341D01*
X733806Y5091582D01*
X737920Y5086756D01*
X755040Y5068620D01*
X763879Y5060950D01*
X763879Y5060137D01*
X735228Y5059680D01*
X731621Y5058562D01*
X726948Y5054193D01*
X724306Y5050078D01*
X724357Y5045811D01*
X726541Y5041646D01*
X730707Y5037277D01*
X734314Y5035804D01*
X783844Y5036058D01*
X783640Y5035448D01*
X773277Y5024424D01*
X761746Y5011420D01*
X754786Y5003038D01*
X744474Y4992319D01*
X743204Y4989982D01*
X741984Y4986731D01*
X741984Y4981600D01*
X743153Y4978349D01*
X745185Y4975098D01*
X747826Y4973167D01*
X750773Y4971643D01*
X756412Y4971643D01*
X760831Y4973675D01*
X766419Y4979314D01*
X778713Y4994808D01*
X779932Y4996027D01*
X787044Y5005374D01*
X811072Y5034534D01*
X825855Y5053279D01*
X836676Y5065826D01*
X842213Y5072837D01*
X850646Y5082590D01*
X873963Y5110530D01*
X885088Y5124450D01*
X889711Y5130596D01*
X906932Y5151120D01*
X924153Y5173218D01*
X930554Y5180787D01*
X938174Y5188661D01*
X940053Y5191455D01*
X941069Y5195671D01*
X942086Y5202174D01*
X942746Y5276138D01*
X941578Y5284063D01*
X940714Y5294325D01*
X939850Y5297576D01*
X938885Y5300014D01*
X929792Y5311038D01*
X927404Y5313375D01*
X920851Y5320893D01*
X904849Y5341569D01*
X896569Y5351678D01*
X884631Y5366816D01*
X872540Y5383174D01*
X867816Y5388305D01*
X861212Y5396230D01*
X846429Y5412943D01*
X842264Y5418074D01*
X831087Y5430977D01*
X812241Y5453888D01*
X802944Y5466181D01*
X802030Y5466740D01*
X796950Y5473446D01*
X771093Y5503570D01*
X766978Y5509717D01*
X763219Y5514695D01*
X758952Y5517184D01*
G37*
G36*
X873861Y5470093D02*
G01*
X870407Y5469432D01*
X870407Y5464708D01*
X876909Y5438800D01*
X881075Y5423916D01*
X885088Y5411114D01*
X888542Y5401970D01*
X893216Y5392470D01*
X897585Y5385054D01*
X901293Y5379466D01*
X901903Y5379008D01*
X909624Y5367832D01*
X917651Y5357114D01*
X929741Y5342280D01*
X941374Y5330545D01*
X945083Y5327294D01*
X949299Y5324094D01*
X949858Y5323281D01*
X951585Y5323636D01*
X952195Y5326430D01*
X952296Y5341569D01*
X950315Y5349697D01*
X949299Y5351983D01*
X937412Y5369661D01*
X927404Y5382717D01*
X923442Y5388457D01*
X923442Y5389067D01*
X919886Y5394350D01*
X916787Y5399938D01*
X913739Y5405983D01*
X910844Y5413908D01*
X904036Y5435752D01*
X903478Y5438800D01*
X906678Y5438800D01*
X907237Y5437835D01*
X909675Y5437835D01*
X916686Y5435854D01*
X933602Y5428132D01*
X941679Y5421325D01*
X944168Y5418988D01*
X951280Y5410606D01*
X956411Y5401716D01*
X958748Y5396687D01*
X960323Y5392013D01*
X963930Y5377586D01*
X967638Y5358028D01*
X970381Y5347817D01*
X975512Y5332476D01*
X979474Y5319877D01*
X983538Y5309666D01*
X989431Y5298389D01*
X993190Y5292242D01*
X997610Y5286502D01*
X1002792Y5281371D01*
X1012850Y5274970D01*
X1015796Y5273344D01*
X1029766Y5268620D01*
X1035354Y5267604D01*
X1046073Y5266486D01*
X1060043Y5267096D01*
X1125067Y5267655D01*
X1124458Y5266080D01*
X1124458Y5222900D01*
X1060958Y5222900D01*
X1043279Y5221986D01*
X1034186Y5220512D01*
X1027625Y5218938D01*
X1148588Y5218938D01*
X1149096Y5233822D01*
X1149705Y5273497D01*
X1164590Y5274157D01*
X1177290Y5260797D01*
X1181049Y5256174D01*
X1184757Y5250586D01*
X1186129Y5247843D01*
X1186078Y5242661D01*
X1182725Y5236159D01*
X1176477Y5228234D01*
X1171651Y5223103D01*
X1166418Y5218226D01*
X1149299Y5218226D01*
X1148588Y5218938D01*
X1027625Y5218938D01*
X1019556Y5216347D01*
X1009802Y5211622D01*
X1005586Y5208778D01*
X1000963Y5204968D01*
X997864Y5201818D01*
X992479Y5195214D01*
X987501Y5187746D01*
X982218Y5177536D01*
X977798Y5165902D01*
X973328Y5151018D01*
X969873Y5137962D01*
X968603Y5134457D01*
X965352Y5118404D01*
X964285Y5111902D01*
X958697Y5093309D01*
X953058Y5081219D01*
X948486Y5074310D01*
X941527Y5067046D01*
X935329Y5062016D01*
X931113Y5059527D01*
X919480Y5054041D01*
X915314Y5052720D01*
X906475Y5050790D01*
X902055Y5050282D01*
X902055Y5050739D01*
X905916Y5063540D01*
X909878Y5075682D01*
X914349Y5087264D01*
X916787Y5091887D01*
X919734Y5096814D01*
X919734Y5097272D01*
X924915Y5105603D01*
X926033Y5106771D01*
X932078Y5115255D01*
X947470Y5133848D01*
X950518Y5138216D01*
X951992Y5141671D01*
X953211Y5149138D01*
X953262Y5168493D01*
X951890Y5169001D01*
X948842Y5166868D01*
X931976Y5149596D01*
X917092Y5132374D01*
X910183Y5123484D01*
X904798Y5115610D01*
X897585Y5104485D01*
X889203Y5089093D01*
X885901Y5081219D01*
X883513Y5074208D01*
X880618Y5063998D01*
X877874Y5056073D01*
X873760Y5039766D01*
X868578Y5021884D01*
X868578Y5020106D01*
X871982Y5019497D01*
X885545Y5020056D01*
X892962Y5021021D01*
X908354Y5023866D01*
X915314Y5025644D01*
X928827Y5030368D01*
X938428Y5034940D01*
X947419Y5040731D01*
X954887Y5046268D01*
X965200Y5056581D01*
X971854Y5066487D01*
X977950Y5077917D01*
X983030Y5088890D01*
X983030Y5089347D01*
X985570Y5095392D01*
X990092Y5109108D01*
X993343Y5122367D01*
X995121Y5131206D01*
X1000760Y5155438D01*
X1003604Y5165902D01*
X1006449Y5173319D01*
X1010666Y5180787D01*
X1018133Y5189474D01*
X1024839Y5194046D01*
X1025347Y5194046D01*
X1029309Y5195824D01*
X1036777Y5197906D01*
X1103274Y5197652D01*
X1133652Y5197043D01*
X1134922Y5196078D01*
X1138682Y5195011D01*
X1143762Y5194046D01*
X1155090Y5193131D01*
X1164234Y5194046D01*
X1168450Y5195062D01*
X1174038Y5196941D01*
X1178204Y5198872D01*
X1186129Y5204002D01*
X1200150Y5218023D01*
X1205280Y5225897D01*
X1208125Y5233365D01*
X1209090Y5237073D01*
X1210208Y5242915D01*
X1208735Y5255209D01*
X1206601Y5263134D01*
X1204315Y5268264D01*
X1201470Y5271973D01*
X1192631Y5281117D01*
X1183792Y5288788D01*
X1179525Y5291683D01*
X1173327Y5294528D01*
X1172006Y5294528D01*
X1171498Y5295341D01*
X1161694Y5296865D01*
X1151229Y5295950D01*
X1130300Y5292902D01*
X1044194Y5292902D01*
X1035812Y5294020D01*
X1028852Y5295798D01*
X1023366Y5298287D01*
X1019098Y5301234D01*
X1013612Y5306415D01*
X1009243Y5312918D01*
X1005332Y5322163D01*
X1005332Y5323890D01*
X1004519Y5325465D01*
X997356Y5350611D01*
X993343Y5366918D01*
X988263Y5385968D01*
X984453Y5396230D01*
X977087Y5413908D01*
X974598Y5419394D01*
X969467Y5428081D01*
X966114Y5432501D01*
X960069Y5439714D01*
X946658Y5450636D01*
X939495Y5455056D01*
X933856Y5457799D01*
X928827Y5459831D01*
X923239Y5461609D01*
X909269Y5465216D01*
X897178Y5467756D01*
X886612Y5469534D01*
G37*
G36*
X1021181Y5367172D02*
G01*
X1021181Y5360365D01*
X1022553Y5353405D01*
X1023975Y5348020D01*
X1025398Y5345785D01*
X1028852Y5344160D01*
X1033526Y5343296D01*
X1050239Y5341569D01*
X1106576Y5340604D01*
X1176375Y5340604D01*
X1178306Y5340096D01*
X1180033Y5337098D01*
X1207160Y5309666D01*
X1272438Y5244795D01*
X1272438Y5243880D01*
X1242517Y5214721D01*
X1184148Y5155996D01*
X1178509Y5147665D01*
X1138682Y5146954D01*
X1083310Y5146598D01*
X1048410Y5143804D01*
X1039571Y5143804D01*
X1027937Y5142788D01*
X1023721Y5141671D01*
X1022603Y5139283D01*
X1021130Y5131460D01*
X1019302Y5124196D01*
X1019302Y5122875D01*
X1020470Y5122164D01*
X1053998Y5122418D01*
X1075385Y5123332D01*
X1186738Y5123332D01*
X1190396Y5128209D01*
X1208938Y5146802D01*
X1219606Y5157978D01*
X1281531Y5220766D01*
X1288948Y5228691D01*
X1292656Y5233365D01*
X1303121Y5243779D01*
X1303121Y5245506D01*
X1297330Y5252415D01*
X1291640Y5258460D01*
X1288034Y5262676D01*
X1259179Y5292445D01*
X1227937Y5324094D01*
X1210360Y5340858D01*
X1191717Y5359450D01*
X1190244Y5361533D01*
X1187500Y5367172D01*
X1168908Y5365546D01*
X1118209Y5365800D01*
X1033526Y5366715D01*
G37*
G36*
X1035964Y5330444D02*
G01*
X1030884Y5329834D01*
X1025144Y5325922D01*
X1022096Y5321401D01*
X1022146Y5315712D01*
X1023924Y5312003D01*
X1025144Y5310530D01*
X1029309Y5307736D01*
X1032560Y5306415D01*
X1038606Y5306466D01*
X1043279Y5308701D01*
X1045921Y5311038D01*
X1048207Y5315712D01*
X1048207Y5321960D01*
X1045464Y5325973D01*
X1043279Y5327954D01*
X1039063Y5329783D01*
G37*
G36*
X1033221Y5183784D02*
G01*
X1029411Y5181854D01*
X1025042Y5177282D01*
X1023061Y5173319D01*
X1022096Y5169611D01*
X1023264Y5165394D01*
X1024534Y5163108D01*
X1026464Y5160975D01*
X1031189Y5158740D01*
X1035100Y5157622D01*
X1039571Y5158841D01*
X1043025Y5160772D01*
X1046175Y5163718D01*
X1049070Y5169458D01*
X1049070Y5174894D01*
X1046987Y5178806D01*
X1043381Y5181904D01*
X1039317Y5183784D01*
G37*
G36*
X990600Y4938014D02*
G01*
X921258Y4868418D01*
X921258Y4923028D01*
X851662Y4923028D01*
X851662Y4893310D01*
X891286Y4893310D01*
X891286Y4813808D01*
X851662Y4813808D01*
X851662Y4784090D01*
X990600Y4784090D01*
X990600Y4833620D01*
X970787Y4813808D01*
X921258Y4813808D01*
X921258Y4826508D01*
X990600Y4895850D01*
G37*
G36*
X891286Y4774184D02*
G01*
X891286Y4664964D01*
X881380Y4664964D01*
X881380Y4724654D01*
X851662Y4714748D01*
X851662Y4635246D01*
X990600Y4635246D01*
X990600Y4774184D01*
X941069Y4774184D01*
X960882Y4754372D01*
X960882Y4664964D01*
X921258Y4664964D01*
X921258Y4774184D01*
G37*
G36*
X851662Y4625340D02*
G01*
X851662Y4486402D01*
X881380Y4486402D01*
X881380Y4541012D01*
X970787Y4541012D01*
X990600Y4521200D01*
X990600Y4570730D01*
X881380Y4570730D01*
X881380Y4625340D01*
G37*
G36*
X851662Y4476496D02*
G01*
X851662Y4337558D01*
X881380Y4337558D01*
X881380Y4446778D01*
X891286Y4446778D01*
X891286Y4337558D01*
X990600Y4337558D01*
X990600Y4387342D01*
X970787Y4367530D01*
X921258Y4367530D01*
X921258Y4476496D01*
G37*
G36*
X851662Y4327652D02*
G01*
X851662Y4188714D01*
X881380Y4188714D01*
X881380Y4297934D01*
X891286Y4297934D01*
X891286Y4188714D01*
X990600Y4188714D01*
X990600Y4238498D01*
X970787Y4218686D01*
X921258Y4218686D01*
X921258Y4327652D01*
G37*
G36*
X851662Y4178808D02*
G01*
X851662Y4113276D01*
X924814Y4039870D01*
X990600Y4039870D01*
X990600Y4069842D01*
X937260Y4069842D01*
X881380Y4125468D01*
X881380Y4149090D01*
X901192Y4149090D01*
X901192Y4117594D01*
X929386Y4089654D01*
X931164Y4089654D01*
X931164Y4149090D01*
X970787Y4149090D01*
X990600Y4129278D01*
X990600Y4178808D01*
G37*
G36*
X891286Y4035044D02*
G01*
X891286Y3920998D01*
X881380Y3920998D01*
X881380Y3980434D01*
X851662Y3970528D01*
X851662Y3891279D01*
X921258Y3891279D01*
X921258Y4002278D01*
X960882Y3998214D01*
X960882Y3911092D01*
X941069Y3891279D01*
X990600Y3891279D01*
X990600Y4025137D01*
G37*
G36*
X4203700Y3271520D02*
G01*
X4203700Y3137662D01*
X4303014Y3127756D01*
X4303014Y3241802D01*
X4312920Y3241802D01*
X4312920Y3182366D01*
X4342638Y3192272D01*
X4342638Y3271520D01*
X4273042Y3271520D01*
X4273042Y3160522D01*
X4233418Y3164586D01*
X4233418Y3251708D01*
X4253230Y3271520D01*
G37*
G36*
X4203700Y3122930D02*
G01*
X4203700Y3092958D01*
X4257040Y3092958D01*
X4312920Y3037332D01*
X4312920Y3013710D01*
X4293108Y3013710D01*
X4293108Y3045206D01*
X4264914Y3073146D01*
X4263136Y3073146D01*
X4263136Y3013710D01*
X4223512Y3013710D01*
X4203700Y3033522D01*
X4203700Y2983992D01*
X4342638Y2983992D01*
X4342638Y3049524D01*
X4269486Y3122930D01*
G37*
G36*
X4203700Y2974086D02*
G01*
X4203700Y2924302D01*
X4223512Y2944114D01*
X4273042Y2944114D01*
X4273042Y2835148D01*
X4342638Y2835148D01*
X4342638Y2974086D01*
X4312920Y2974086D01*
X4312920Y2864866D01*
X4303014Y2864866D01*
X4303014Y2974086D01*
G37*
G36*
X4203700Y2825242D02*
G01*
X4203700Y2775458D01*
X4223512Y2795270D01*
X4273042Y2795270D01*
X4273042Y2686304D01*
X4342638Y2686304D01*
X4342638Y2825242D01*
X4312920Y2825242D01*
X4312920Y2716022D01*
X4303014Y2716022D01*
X4303014Y2825242D01*
G37*
G36*
X4203700Y2676398D02*
G01*
X4203700Y2537460D01*
X4253230Y2537460D01*
X4233418Y2557272D01*
X4233418Y2646680D01*
X4322826Y2646680D01*
X4342638Y2626614D01*
X4342638Y2676398D01*
G37*
G36*
X4203700Y2527554D02*
G01*
X4203700Y2497836D01*
X4342638Y2497836D01*
X4342638Y2527554D01*
G37*
G36*
X4203700Y2487930D02*
G01*
X4203700Y2438146D01*
X4223512Y2457958D01*
X4304792Y2457958D01*
X4258818Y2378710D01*
X4203700Y2378710D01*
X4203700Y2348992D01*
X4342638Y2348992D01*
X4342638Y2378710D01*
X4293108Y2378710D01*
X4356100Y2487930D01*
G37*
G36*
X4203700Y2339086D02*
G01*
X4203700Y2200148D01*
X4303014Y2200148D01*
X4303014Y2299208D01*
X4253230Y2299208D01*
X4273042Y2279396D01*
X4273042Y2229866D01*
X4233418Y2229866D01*
X4233418Y2309114D01*
X4312920Y2309114D01*
X4312920Y2249678D01*
X4342638Y2259584D01*
X4342638Y2339086D01*
G37*
D10*
G01*
X4051300Y-534276D03*
G01*
X4051300Y-684923D03*
D11*
G01*
X3733800Y-279397D03*
G01*
X3733800Y-25397D03*
G01*
X3733800Y228602D03*
G01*
X3733800Y482602D03*
G01*
X3733800Y736602D03*
G01*
X3733800Y990602D03*
G01*
X3733800Y1244602D03*
G01*
X3733800Y1498602D03*
G01*
X3733800Y1752602D03*
G01*
X3733800Y2006602D03*
G01*
X3733800Y2260602D03*
G01*
X3733800Y2514602D03*
G01*
X3733800Y2768602D03*
G01*
X3733800Y3022602D03*
G01*
X3733800Y3276602D03*
G01*
X3733800Y3530602D03*
G01*
X3733800Y3784602D03*
G01*
X3733800Y4038602D03*
G01*
X3733800Y4292602D03*
G01*
X3733800Y4546602D03*
G01*
X3733800Y4800602D03*
G01*
X3733800Y5054602D03*
G01*
X1447800Y5054602D03*
G01*
X1447800Y4800602D03*
G01*
X1447800Y4546602D03*
G01*
X1447800Y4292602D03*
G01*
X1447800Y4038602D03*
G01*
X1447800Y3784602D03*
G01*
X1447800Y3530602D03*
G01*
X1447800Y3276602D03*
G01*
X1447800Y3022602D03*
G01*
X1447800Y2768602D03*
G01*
X1447800Y2514602D03*
G01*
X1447800Y2260602D03*
G01*
X1447800Y2006602D03*
G01*
X1447800Y1752602D03*
G01*
X1447800Y1498602D03*
G01*
X1447800Y1244602D03*
G01*
X1447800Y990602D03*
G01*
X1447800Y736602D03*
G01*
X1447800Y482602D03*
G01*
X1447800Y228602D03*
G01*
X1447800Y-25397D03*
G01*
X1447800Y-279397D03*
D12*
G01*
X4166997Y-3043402D03*
G01*
X4166997Y-1265402D03*
D13*
G01*
X1301114Y-1836140D03*
G01*
X1301114Y-2536139D03*
D14*
G01*
X1030096Y-1529156D03*
G01*
X1030096Y-2843148D03*
D16*
G01*
X3138297Y-1138402D03*
G01*
X2884297Y-1138402D03*
G01*
X2630297Y-1138402D03*
G01*
X2376297Y-1138402D03*
G01*
X2122297Y-1138402D03*
G01*
X1868296Y-1138402D03*
G01*
X1614296Y-1138402D03*
G01*
X1360296Y-1138402D03*
D17*
G01*
X2865399Y-2235200D03*
G01*
X2565400Y-2235200D03*
G01*
X2265400Y-2235200D03*
D18*
G01*
X2552700Y1694535D03*
G01*
X2552700Y1445996D03*
G01*
X2552700Y1197432D03*
G01*
X2552700Y939800D03*
G01*
X2552700Y700303D03*
G01*
X2552700Y451764D03*
G01*
X2552700Y203200D03*
G01*
X2552700Y1943100D03*
D19*
G01*
X3276345Y4877054D03*
G01*
X3022345Y4877054D03*
G01*
X2768600Y4876545D03*
G01*
X2514600Y4877307D03*
D20*
G01*
X2260600Y4877307D03*
D21*
G01*
X2006600Y4876800D03*
D18*
G01*
X889002Y1079497D03*
G01*
X901702Y685797D03*
G01*
X901702Y292097D03*
G01*
X901702Y-127002D03*
G01*
X901702Y-533402D03*
G01*
X4191002Y1269997D03*
G01*
X4191002Y761997D03*
G01*
X4191002Y253997D03*
G01*
X4203702Y-139702D03*
M02*
