G04 Layer: InnerLayer2*
G04 EasyEDA v6.5.51, 2026-01-24 23:07:51*
G04 24400cab11b14a41ade87b5bf348eb15,64650944e1e6431b8ca2675abf886f56,10*
G04 Gerber Generator version 0.2*
G04 Scale: 100 percent, Rotated: No, Reflected: No *
G04 Dimensions in millimeters *
G04 leading zeros omitted , absolute positions ,4 integer and 5 decimal *
%FSLAX45Y45*%
%MOMM*%

%AMMACRO1*21,1,$1,$2,0,0,$3*%
%ADD10C,0.2540*%
%ADD11C,1.6000*%
%ADD12C,3.5159*%
%ADD13O,2.91592X1.45796*%
%ADD14C,3.3160*%
%ADD15C,0.0186*%
%ADD16C,1.6764*%
%ADD17O,2.299995X1.199998*%
%ADD18C,1.5240*%
%ADD19C,1.6500*%
%ADD20MACRO1,1.65X1.65X0.0000*%
%ADD21C,1.6500*%
%ADD22C,0.6096*%

%LPD*%
D10*
X2630299Y-1138405D02*
G01*
X2630299Y-1870306D01*
X2265403Y-2235202D01*
X2552702Y1197429D02*
G01*
X3267534Y482597D01*
X3733802Y482597D01*
X2552702Y1445994D02*
G01*
X3262099Y736597D01*
X3733802Y736597D01*
X995707Y1079497D02*
G01*
X1287807Y1371597D01*
X2130554Y1371597D01*
X2311885Y1552928D01*
X2740383Y1552928D01*
X3048713Y1244597D01*
X3733802Y1244597D01*
X889002Y1079497D02*
G01*
X995707Y1079497D01*
X1008407Y292097D02*
G01*
X1198907Y101597D01*
X1496265Y101597D01*
X1956462Y561794D01*
X2991309Y561794D01*
X3705506Y-152402D01*
X3857805Y-152402D01*
X3989885Y-284482D01*
X901702Y292097D02*
G01*
X1008407Y292097D01*
X901702Y-20297D02*
G01*
X782170Y99235D01*
X782170Y1247874D01*
X1413893Y1879597D01*
X1484886Y1879597D01*
X3587904Y3982615D01*
X3587904Y4654699D01*
X3733802Y4800597D01*
X901702Y-127002D02*
G01*
X901702Y-20297D01*
X1447802Y-279402D02*
G01*
X1262407Y-279402D01*
X1008407Y-533402D01*
X901702Y-533402D02*
G01*
X1008407Y-533402D01*
X2552702Y451761D02*
G01*
X1821538Y-279402D01*
X1447802Y-279402D01*
X2552702Y1943097D02*
G01*
X3124202Y1371597D01*
X3777312Y1371597D01*
X3854096Y1294813D01*
X3854096Y94891D01*
X3733802Y-25402D01*
D11*
G01*
X3733800Y-279397D03*
G01*
X3733800Y-25397D03*
G01*
X3733800Y228602D03*
G01*
X3733800Y482602D03*
G01*
X3733800Y736602D03*
G01*
X3733800Y990602D03*
G01*
X3733800Y1244602D03*
G01*
X3733800Y1498602D03*
G01*
X3733800Y1752602D03*
G01*
X3733800Y2006602D03*
G01*
X3733800Y2260602D03*
G01*
X3733800Y2514602D03*
G01*
X3733800Y2768602D03*
G01*
X3733800Y3022602D03*
G01*
X3733800Y3276602D03*
G01*
X3733800Y3530602D03*
G01*
X3733800Y3784602D03*
G01*
X3733800Y4038602D03*
G01*
X3733800Y4292602D03*
G01*
X3733800Y4546602D03*
G01*
X3733800Y4800602D03*
G01*
X3733800Y5054602D03*
G01*
X1447800Y5054602D03*
G01*
X1447800Y4800602D03*
G01*
X1447800Y4546602D03*
G01*
X1447800Y4292602D03*
G01*
X1447800Y4038602D03*
G01*
X1447800Y3784602D03*
G01*
X1447800Y3530602D03*
G01*
X1447800Y3276602D03*
G01*
X1447800Y3022602D03*
G01*
X1447800Y2768602D03*
G01*
X1447800Y2514602D03*
G01*
X1447800Y2260602D03*
G01*
X1447800Y2006602D03*
G01*
X1447800Y1752602D03*
G01*
X1447800Y1498602D03*
G01*
X1447800Y1244602D03*
G01*
X1447800Y990602D03*
G01*
X1447800Y736602D03*
G01*
X1447800Y482602D03*
G01*
X1447800Y228602D03*
G01*
X1447800Y-25397D03*
G01*
X1447800Y-279397D03*
D12*
G01*
X4166997Y-3043402D03*
G01*
X4166997Y-1265402D03*
D13*
G01*
X1301114Y-1836140D03*
G01*
X1301114Y-2536139D03*
D14*
G01*
X1030096Y-1529156D03*
G01*
X1030096Y-2843148D03*
D16*
G01*
X3138297Y-1138402D03*
G01*
X2884297Y-1138402D03*
G01*
X2630297Y-1138402D03*
G01*
X2376297Y-1138402D03*
G01*
X2122297Y-1138402D03*
G01*
X1868296Y-1138402D03*
G01*
X1614296Y-1138402D03*
G01*
X1360296Y-1138402D03*
D17*
G01*
X2865399Y-2235200D03*
G01*
X2565400Y-2235200D03*
G01*
X2265400Y-2235200D03*
D18*
G01*
X2552700Y1694535D03*
G01*
X2552700Y1445996D03*
G01*
X2552700Y1197432D03*
G01*
X2552700Y939800D03*
G01*
X2552700Y700303D03*
G01*
X2552700Y451764D03*
G01*
X2552700Y203200D03*
G01*
X2552700Y1943100D03*
D19*
G01*
X3276345Y4877054D03*
G01*
X3022345Y4877054D03*
G01*
X2768600Y4876545D03*
G01*
X2514600Y4877307D03*
D20*
G01*
X2260597Y4877302D03*
D21*
G01*
X2006600Y4876800D03*
D18*
G01*
X889002Y1079497D03*
G01*
X901702Y685797D03*
G01*
X901702Y292097D03*
G01*
X901702Y-127002D03*
G01*
X901702Y-533402D03*
G01*
X4191002Y1269997D03*
G01*
X4191002Y761997D03*
G01*
X4191002Y253997D03*
G01*
X4203702Y-139702D03*
D22*
G01*
X3989885Y-284482D03*
G01*
X4051302Y-771451D03*
M02*
