M48
METRIC,LZ,000.000
;FILE_FORMAT=3:3
;TYPE=PLATED
;Layer: PTH_Through
;EasyEDA v6.5.51, 2026-01-27 03:17:30
;77339762291546cc9e75e89c24e87ab3,64650944e1e6431b8ca2675abf886f56,10
;Gerber Generator version 0.2
;Holesize 1 = 0.305 mm
T01C0.305
;Holesize 2 = 0.600 mm
T02C0.600
;Holesize 3 = 0.891 mm
T03C0.891
;Holesize 4 = 0.914 mm
T04C0.914
;Holesize 5 = 0.915 mm
T05C0.915
;Holesize 6 = 0.950 mm
T06C0.950
;Holesize 7 = 1.000 mm
T07C1.000
;Holesize 8 = 2.301 mm
T08C2.301
;Holesize 9 = 2.500 mm
T09C2.500
%
G05
G90
T01
X020506Y044955
X011784Y036028
X015512Y012700
T02
X032766Y034423G85X032766Y035523
X032766Y037423G85X032766Y038523
X032766Y040423G85X032766Y041523
T03
X015624Y005712
X018164Y005712
X020701Y005718
X023241Y005710
X025781Y005710
X028321Y005715
T04
X010541Y034039G85X010541Y034033
T05
X013027Y034039G85X013027Y034033
X015512Y034039G85X015512Y034033
X017998Y034039G85X017998Y034033
X020574Y034039G85X020574Y034033
X022969Y034039G85X022969Y034033
X025454Y034039G85X025454Y034033
X027940Y034039G85X027940Y034033
X015240Y050800
X020320Y050800
X025654Y050800
X030480Y050800
X035560Y049657
X040640Y049657
X040640Y044577
X040640Y039243
X040767Y034417
X040767Y029337
X040640Y024130
X040640Y024130
X040767Y019050
X040767Y014097
X040640Y009017
X040640Y003810
T06
X028394Y-003992G85X028394Y-003997
X035394Y-003992G85X035394Y-003997
T07
X008890Y022860
X008890Y020320
X008890Y017780
X008890Y015240
X008890Y012700
X008890Y010160
X008890Y007620
X008890Y005080
X008890Y002540
X008890Y000000
X008890Y-002540
X008890Y-005080
X008890Y-007620
X008890Y-010160
X008890Y-012700
X008890Y-015240
X008890Y-017780
X008890Y-020320
X008890Y-022860
X008890Y-025400
X008890Y-027940
X008890Y-030480
X031750Y-030480
X031750Y-027940
X031750Y-025400
X031750Y-022860
X031750Y-020320
X031750Y-017780
X031750Y-015240
X031750Y-012700
X031750Y-010160
X031750Y-007620
X031750Y-005080
X031750Y-002540
X031750Y000000
X031750Y002540
X031750Y005080
X031750Y007620
X031750Y010160
X031750Y012700
X031750Y015240
X031750Y017780
X031750Y020320
X031750Y022860
X021417Y-022366G85X021417Y-022366
X021417Y-019826G85X021417Y-019826
X021417Y-017286G85X021417Y-017286
X021417Y-014746G85X021417Y-014746
X021417Y-012206G85X021417Y-012206
X021417Y-009666G85X021417Y-009666
X021417Y-007126G85X021417Y-007126
X021417Y-004586G85X021417Y-004586
T08
X025325Y-001284G85X025324Y-001284
X038464Y-001284G85X038465Y-001284
T09
X040467Y-032656G85X040467Y-032650
X022687Y-032656G85X022687Y-032650
M30
