G04 Layer: BottomSilkscreenLayer*
G04 EasyEDA v6.5.51, 2026-01-27 03:17:30*
G04 77339762291546cc9e75e89c24e87ab3,64650944e1e6431b8ca2675abf886f56,10*
G04 Gerber Generator version 0.2*
G04 Scale: 100 percent, Rotated: No, Reflected: No *
G04 Dimensions in millimeters *
G04 leading zeros omitted , absolute positions ,4 integer and 5 decimal *
%FSLAX45Y45*%
%MOMM*%

%ADD10C,0.1524*%
%ADD11C,0.2500*%
%ADD12C,0.1219*%
%ADD13C,0.2540*%
%ADD14C,0.3048*%
%ADD15C,0.1000*%
%ADD16C,0.2032*%
%ADD17C,0.0105*%

%LPD*%
D10*
X2273172Y3328543D02*
G01*
X2273172Y3250564D01*
X2268093Y3235070D01*
X2257679Y3224656D01*
X2241931Y3219577D01*
X2231516Y3219577D01*
X2216022Y3224656D01*
X2205609Y3235070D01*
X2200529Y3250564D01*
X2200529Y3328543D01*
X2160904Y3302635D02*
G01*
X2160904Y3307714D01*
X2155825Y3318129D01*
X2150490Y3323462D01*
X2140077Y3328543D01*
X2119502Y3328543D01*
X2109088Y3323462D01*
X2103754Y3318129D01*
X2098675Y3307714D01*
X2098675Y3297301D01*
X2103754Y3286887D01*
X2114168Y3271393D01*
X2166238Y3219577D01*
X2093340Y3219577D01*
D11*
X2514467Y210202D02*
G01*
X2514467Y95648D01*
X2514467Y210202D02*
G01*
X2465445Y210202D01*
X2448935Y204614D01*
X2443601Y199280D01*
X2438013Y188358D01*
X2438013Y177436D01*
X2443601Y166514D01*
X2448935Y160926D01*
X2465445Y155592D01*
X2514467Y155592D02*
G01*
X2465445Y155592D01*
X2448935Y150004D01*
X2443601Y144670D01*
X2438013Y133748D01*
X2438013Y117492D01*
X2443601Y106570D01*
X2448935Y100982D01*
X2465445Y95648D01*
X2514467Y95648D01*
X2402199Y210202D02*
G01*
X2402199Y95648D01*
X2402199Y210202D02*
G01*
X2358511Y95648D01*
X2314823Y210202D02*
G01*
X2358511Y95648D01*
X2314823Y210202D02*
G01*
X2314823Y95648D01*
X2278755Y210202D02*
G01*
X2278755Y95648D01*
X2278755Y210202D02*
G01*
X2207889Y210202D01*
X2278755Y155592D02*
G01*
X2235321Y155592D01*
X2278755Y95648D02*
G01*
X2207889Y95648D01*
X2106543Y193692D02*
G01*
X2111877Y204614D01*
X2128387Y210202D01*
X2139309Y210202D01*
X2155565Y204614D01*
X2166487Y188358D01*
X2172075Y160926D01*
X2172075Y133748D01*
X2166487Y111904D01*
X2155565Y100982D01*
X2139309Y95648D01*
X2133721Y95648D01*
X2117465Y100982D01*
X2106543Y111904D01*
X2100955Y128414D01*
X2100955Y133748D01*
X2106543Y150004D01*
X2117465Y160926D01*
X2133721Y166514D01*
X2139309Y166514D01*
X2155565Y160926D01*
X2166487Y150004D01*
X2172075Y133748D01*
X2037709Y210202D02*
G01*
X2054219Y204614D01*
X2059553Y193692D01*
X2059553Y182770D01*
X2054219Y171848D01*
X2043297Y166514D01*
X2021453Y160926D01*
X2004943Y155592D01*
X1994275Y144670D01*
X1988687Y133748D01*
X1988687Y117492D01*
X1994275Y106570D01*
X1999609Y100982D01*
X2015865Y95648D01*
X2037709Y95648D01*
X2054219Y100982D01*
X2059553Y106570D01*
X2065141Y117492D01*
X2065141Y133748D01*
X2059553Y144670D01*
X2048631Y155592D01*
X2032375Y160926D01*
X2010531Y166514D01*
X1999609Y171848D01*
X1994275Y182770D01*
X1994275Y193692D01*
X1999609Y204614D01*
X2015865Y210202D01*
X2037709Y210202D01*
X1919853Y210202D02*
G01*
X1936363Y204614D01*
X1947285Y188358D01*
X1952619Y160926D01*
X1952619Y144670D01*
X1947285Y117492D01*
X1936363Y100982D01*
X1919853Y95648D01*
X1909185Y95648D01*
X1892675Y100982D01*
X1881753Y117492D01*
X1876419Y144670D01*
X1876419Y160926D01*
X1881753Y188358D01*
X1892675Y204614D01*
X1909185Y210202D01*
X1919853Y210202D01*
D10*
X4674615Y-1701800D02*
G01*
X4596638Y-1701800D01*
X4581143Y-1696720D01*
X4570729Y-1686305D01*
X4565650Y-1670557D01*
X4565650Y-1660144D01*
X4570729Y-1644650D01*
X4581143Y-1634236D01*
X4596638Y-1629155D01*
X4674615Y-1629155D01*
X4659122Y-1532381D02*
G01*
X4669536Y-1537715D01*
X4674615Y-1553210D01*
X4674615Y-1563623D01*
X4669536Y-1579118D01*
X4653788Y-1589531D01*
X4627879Y-1594865D01*
X4601972Y-1594865D01*
X4581143Y-1589531D01*
X4570729Y-1579118D01*
X4565650Y-1563623D01*
X4565650Y-1558289D01*
X4570729Y-1542795D01*
X4581143Y-1532381D01*
X4596638Y-1527302D01*
X4601972Y-1527302D01*
X4617465Y-1532381D01*
X4627879Y-1542795D01*
X4632959Y-1558289D01*
X4632959Y-1563623D01*
X4627879Y-1579118D01*
X4617465Y-1589531D01*
X4601972Y-1594865D01*
D12*
X2326386Y-1276860D02*
G01*
X2335784Y-1281432D01*
X2344927Y-1290830D01*
X2349500Y-1299974D01*
X2349500Y-1318516D01*
X2344927Y-1327660D01*
X2335784Y-1337058D01*
X2326386Y-1341630D01*
X2312670Y-1346202D01*
X2289556Y-1346202D01*
X2275586Y-1341630D01*
X2266441Y-1337058D01*
X2257297Y-1327660D01*
X2252472Y-1318516D01*
X2252472Y-1299974D01*
X2257297Y-1290830D01*
X2266441Y-1281432D01*
X2275586Y-1276860D01*
X2289556Y-1276860D01*
X2289556Y-1299974D02*
G01*
X2289556Y-1276860D01*
X2349500Y-1246380D02*
G01*
X2252472Y-1246380D01*
X2349500Y-1246380D02*
G01*
X2252472Y-1181864D01*
X2349500Y-1181864D02*
G01*
X2252472Y-1181864D01*
X2349500Y-1151384D02*
G01*
X2252472Y-1151384D01*
X2349500Y-1151384D02*
G01*
X2349500Y-1118872D01*
X2344927Y-1105156D01*
X2335784Y-1096012D01*
X2326386Y-1091186D01*
X2312670Y-1086614D01*
X2289556Y-1086614D01*
X2275586Y-1091186D01*
X2266441Y-1096012D01*
X2257297Y-1105156D01*
X2252472Y-1118872D01*
X2252472Y-1151384D01*
X2349474Y-1550796D02*
G01*
X2252446Y-1550796D01*
X2349474Y-1550796D02*
G01*
X2349474Y-1490853D01*
X2303246Y-1550796D02*
G01*
X2303246Y-1513967D01*
X2252446Y-1550796D02*
G01*
X2252446Y-1490853D01*
X2349474Y-1460372D02*
G01*
X2252446Y-1460372D01*
X2349474Y-1460372D02*
G01*
X2252446Y-1395603D01*
X2349474Y-1395603D02*
G01*
X2252446Y-1395603D01*
X3116072Y-2451100D02*
G01*
X3019043Y-2451100D01*
X3116072Y-2451100D02*
G01*
X3116072Y-2409444D01*
X3111500Y-2395728D01*
X3106927Y-2391155D01*
X3097529Y-2386329D01*
X3083813Y-2386329D01*
X3074670Y-2391155D01*
X3069843Y-2395728D01*
X3065272Y-2409444D01*
X3065272Y-2451100D01*
X3083813Y-2332989D02*
G01*
X3079241Y-2342134D01*
X3069843Y-2351278D01*
X3056127Y-2355850D01*
X3046729Y-2355850D01*
X3033013Y-2351278D01*
X3023870Y-2342134D01*
X3019043Y-2332989D01*
X3019043Y-2319020D01*
X3023870Y-2309876D01*
X3033013Y-2300478D01*
X3046729Y-2295905D01*
X3056127Y-2295905D01*
X3069843Y-2300478D01*
X3079241Y-2309876D01*
X3083813Y-2319020D01*
X3083813Y-2332989D01*
X3083813Y-2265426D02*
G01*
X3019043Y-2246884D01*
X3083813Y-2228595D02*
G01*
X3019043Y-2246884D01*
X3083813Y-2228595D02*
G01*
X3019043Y-2210054D01*
X3083813Y-2191512D02*
G01*
X3019043Y-2210054D01*
X3056127Y-2161031D02*
G01*
X3056127Y-2105660D01*
X3065272Y-2105660D01*
X3074670Y-2110231D01*
X3079241Y-2114804D01*
X3083813Y-2124202D01*
X3083813Y-2137918D01*
X3079241Y-2147315D01*
X3069843Y-2156460D01*
X3056127Y-2161031D01*
X3046729Y-2161031D01*
X3033013Y-2156460D01*
X3023870Y-2147315D01*
X3019043Y-2137918D01*
X3019043Y-2124202D01*
X3023870Y-2114804D01*
X3033013Y-2105660D01*
X3083813Y-2075179D02*
G01*
X3019043Y-2075179D01*
X3056127Y-2075179D02*
G01*
X3069843Y-2070607D01*
X3079241Y-2061210D01*
X3083813Y-2052065D01*
X3083813Y-2038350D01*
X3116072Y-2007870D02*
G01*
X3019043Y-2007870D01*
X3116072Y-2007870D02*
G01*
X3116072Y-1966213D01*
X3111500Y-1952244D01*
X3106927Y-1947671D01*
X3097529Y-1943100D01*
X3088386Y-1943100D01*
X3079241Y-1947671D01*
X3074670Y-1952244D01*
X3069843Y-1966213D01*
X3069843Y-2007870D02*
G01*
X3069843Y-1966213D01*
X3065272Y-1952244D01*
X3060700Y-1947671D01*
X3051556Y-1943100D01*
X3037586Y-1943100D01*
X3028441Y-1947671D01*
X3023870Y-1952244D01*
X3019043Y-1966213D01*
X3019043Y-2007870D01*
X3083813Y-1889505D02*
G01*
X3079241Y-1898650D01*
X3069843Y-1908047D01*
X3056127Y-1912620D01*
X3046729Y-1912620D01*
X3033013Y-1908047D01*
X3023870Y-1898650D01*
X3019043Y-1889505D01*
X3019043Y-1875789D01*
X3023870Y-1866392D01*
X3033013Y-1857247D01*
X3046729Y-1852676D01*
X3056127Y-1852676D01*
X3069843Y-1857247D01*
X3079241Y-1866392D01*
X3083813Y-1875789D01*
X3083813Y-1889505D01*
X3083813Y-1799081D02*
G01*
X3079241Y-1808226D01*
X3069843Y-1817370D01*
X3056127Y-1822195D01*
X3046729Y-1822195D01*
X3033013Y-1817370D01*
X3023870Y-1808226D01*
X3019043Y-1799081D01*
X3019043Y-1785112D01*
X3023870Y-1775968D01*
X3033013Y-1766570D01*
X3046729Y-1761997D01*
X3056127Y-1761997D01*
X3069843Y-1766570D01*
X3079241Y-1775968D01*
X3083813Y-1785112D01*
X3083813Y-1799081D01*
X3069843Y-1680718D02*
G01*
X3079241Y-1685289D01*
X3083813Y-1699260D01*
X3083813Y-1713229D01*
X3079241Y-1726945D01*
X3069843Y-1731518D01*
X3060700Y-1726945D01*
X3056127Y-1717802D01*
X3051556Y-1694687D01*
X3046729Y-1685289D01*
X3037586Y-1680718D01*
X3033013Y-1680718D01*
X3023870Y-1685289D01*
X3019043Y-1699260D01*
X3019043Y-1713229D01*
X3023870Y-1726945D01*
X3033013Y-1731518D01*
X3116072Y-1636521D02*
G01*
X3037586Y-1636521D01*
X3023870Y-1631950D01*
X3019043Y-1622552D01*
X3019043Y-1613407D01*
X3083813Y-1650237D02*
G01*
X3083813Y-1617979D01*
X3097529Y-1511807D02*
G01*
X3102356Y-1502410D01*
X3116072Y-1488694D01*
X3019043Y-1488694D01*
X3116072Y-1430528D02*
G01*
X3111500Y-1444244D01*
X3097529Y-1453642D01*
X3074670Y-1458213D01*
X3060700Y-1458213D01*
X3037586Y-1453642D01*
X3023870Y-1444244D01*
X3019043Y-1430528D01*
X3019043Y-1421129D01*
X3023870Y-1407413D01*
X3037586Y-1398270D01*
X3060700Y-1393444D01*
X3074670Y-1393444D01*
X3097529Y-1398270D01*
X3111500Y-1407413D01*
X3116072Y-1421129D01*
X3116072Y-1430528D01*
X3116072Y-1335278D02*
G01*
X3111500Y-1349247D01*
X3097529Y-1358392D01*
X3074670Y-1362963D01*
X3060700Y-1362963D01*
X3037586Y-1358392D01*
X3023870Y-1349247D01*
X3019043Y-1335278D01*
X3019043Y-1326134D01*
X3023870Y-1312163D01*
X3037586Y-1303020D01*
X3060700Y-1298447D01*
X3074670Y-1298447D01*
X3097529Y-1303020D01*
X3111500Y-1312163D01*
X3116072Y-1326134D01*
X3116072Y-1335278D01*
X3116072Y-1240281D02*
G01*
X3111500Y-1253997D01*
X3097529Y-1263395D01*
X3074670Y-1267968D01*
X3060700Y-1267968D01*
X3037586Y-1263395D01*
X3023870Y-1253997D01*
X3019043Y-1240281D01*
X3019043Y-1230884D01*
X3023870Y-1217168D01*
X3037586Y-1207770D01*
X3060700Y-1203197D01*
X3074670Y-1203197D01*
X3097529Y-1207770D01*
X3111500Y-1217168D01*
X3116072Y-1230884D01*
X3116072Y-1240281D01*
X3092958Y-1103629D02*
G01*
X3102356Y-1108202D01*
X3111500Y-1117345D01*
X3116072Y-1126489D01*
X3116072Y-1145031D01*
X3111500Y-1154429D01*
X3102356Y-1163573D01*
X3092958Y-1168145D01*
X3079241Y-1172718D01*
X3056127Y-1172718D01*
X3042158Y-1168145D01*
X3033013Y-1163573D01*
X3023870Y-1154429D01*
X3019043Y-1145031D01*
X3019043Y-1126489D01*
X3023870Y-1117345D01*
X3033013Y-1108202D01*
X3042158Y-1103629D01*
X2349474Y-2096896D02*
G01*
X2252446Y-2096896D01*
X2349474Y-2096896D02*
G01*
X2349474Y-2055240D01*
X2344902Y-2041525D01*
X2340330Y-2036953D01*
X2330932Y-2032127D01*
X2321788Y-2032127D01*
X2312644Y-2036953D01*
X2308072Y-2041525D01*
X2303246Y-2055240D01*
X2303246Y-2096896D02*
G01*
X2303246Y-2055240D01*
X2298674Y-2041525D01*
X2294102Y-2036953D01*
X2284958Y-2032127D01*
X2270988Y-2032127D01*
X2261844Y-2036953D01*
X2257272Y-2041525D01*
X2252446Y-2055240D01*
X2252446Y-2096896D01*
X2317216Y-1946275D02*
G01*
X2252446Y-1946275D01*
X2303246Y-1946275D02*
G01*
X2312644Y-1955672D01*
X2317216Y-1964817D01*
X2317216Y-1978787D01*
X2312644Y-1987930D01*
X2303246Y-1997075D01*
X2289530Y-2001646D01*
X2280132Y-2001646D01*
X2266416Y-1997075D01*
X2257272Y-1987930D01*
X2252446Y-1978787D01*
X2252446Y-1964817D01*
X2257272Y-1955672D01*
X2266416Y-1946275D01*
X2349474Y-1902079D02*
G01*
X2270988Y-1902079D01*
X2257272Y-1897506D01*
X2252446Y-1888109D01*
X2252446Y-1878964D01*
X2317216Y-1915795D02*
G01*
X2317216Y-1883537D01*
X2349474Y-2414396D02*
G01*
X2280132Y-2414396D01*
X2266416Y-2409825D01*
X2257272Y-2400427D01*
X2252446Y-2386711D01*
X2252446Y-2377567D01*
X2257272Y-2363596D01*
X2266416Y-2354453D01*
X2280132Y-2349627D01*
X2349474Y-2349627D01*
X2335758Y-2254630D02*
G01*
X2344902Y-2263775D01*
X2349474Y-2277745D01*
X2349474Y-2296287D01*
X2344902Y-2310003D01*
X2335758Y-2319146D01*
X2326360Y-2319146D01*
X2317216Y-2314575D01*
X2312644Y-2310003D01*
X2308072Y-2300859D01*
X2298674Y-2273172D01*
X2294102Y-2263775D01*
X2289530Y-2259203D01*
X2280132Y-2254630D01*
X2266416Y-2254630D01*
X2257272Y-2263775D01*
X2252446Y-2277745D01*
X2252446Y-2296287D01*
X2257272Y-2310003D01*
X2266416Y-2319146D01*
X2349474Y-2224151D02*
G01*
X2252446Y-2224151D01*
X2349474Y-2224151D02*
G01*
X2349474Y-2182495D01*
X2344902Y-2168779D01*
X2340330Y-2164206D01*
X2330932Y-2159380D01*
X2321788Y-2159380D01*
X2312644Y-2164206D01*
X2308072Y-2168779D01*
X2303246Y-2182495D01*
X2303246Y-2224151D02*
G01*
X2303246Y-2182495D01*
X2298674Y-2168779D01*
X2294102Y-2164206D01*
X2284958Y-2159380D01*
X2270988Y-2159380D01*
X2261844Y-2164206D01*
X2257272Y-2168779D01*
X2252446Y-2182495D01*
X2252446Y-2224151D01*
X2349474Y-1804796D02*
G01*
X2252446Y-1767967D01*
X2349474Y-1730882D02*
G01*
X2252446Y-1767967D01*
X2303246Y-1649603D02*
G01*
X2312644Y-1654175D01*
X2317216Y-1668145D01*
X2317216Y-1681861D01*
X2312644Y-1695830D01*
X2303246Y-1700403D01*
X2294102Y-1695830D01*
X2289530Y-1686687D01*
X2284958Y-1663572D01*
X2280132Y-1654175D01*
X2270988Y-1649603D01*
X2266416Y-1649603D01*
X2257272Y-1654175D01*
X2252446Y-1668145D01*
X2252446Y-1681861D01*
X2257272Y-1695830D01*
X2266416Y-1700403D01*
D10*
X4508502Y-2208532D02*
G01*
X4404362Y-2208532D01*
X4456432Y-2260602D02*
G01*
X4456432Y-2156716D01*
X4457700Y-2768600D02*
G01*
X4457700Y-2664713D01*
D12*
X2362174Y-492125D02*
G01*
X2362174Y-538353D01*
X2320772Y-542925D01*
X2325344Y-538353D01*
X2329916Y-524382D01*
X2329916Y-510667D01*
X2325344Y-496696D01*
X2315946Y-487553D01*
X2302230Y-482727D01*
X2292832Y-482727D01*
X2279116Y-487553D01*
X2269972Y-496696D01*
X2265146Y-510667D01*
X2265146Y-524382D01*
X2269972Y-538353D01*
X2274544Y-542925D01*
X2283688Y-547496D01*
X2362174Y-452246D02*
G01*
X2265146Y-415417D01*
X2362174Y-378587D02*
G01*
X2265146Y-415417D01*
X2330958Y-654557D02*
G01*
X2340356Y-659129D01*
X2349500Y-668528D01*
X2354072Y-677671D01*
X2354072Y-696213D01*
X2349500Y-705357D01*
X2340356Y-714755D01*
X2330958Y-719328D01*
X2317241Y-723900D01*
X2294127Y-723900D01*
X2280158Y-719328D01*
X2271013Y-714755D01*
X2261870Y-705357D01*
X2257043Y-696213D01*
X2257043Y-677671D01*
X2261870Y-668528D01*
X2271013Y-659129D01*
X2280158Y-654557D01*
X2294127Y-654557D01*
X2294127Y-677671D02*
G01*
X2294127Y-654557D01*
X2349502Y-1028700D02*
G01*
X2252474Y-1028700D01*
X2252474Y-1028700D02*
G01*
X2252474Y-973328D01*
X2349502Y-942847D02*
G01*
X2252474Y-942847D01*
X2349502Y-942847D02*
G01*
X2349502Y-901192D01*
X2344930Y-887476D01*
X2340358Y-882650D01*
X2330960Y-878078D01*
X2321816Y-878078D01*
X2312672Y-882650D01*
X2308100Y-887476D01*
X2303274Y-901192D01*
X2303274Y-942847D02*
G01*
X2303274Y-901192D01*
X2298702Y-887476D01*
X2294130Y-882650D01*
X2284986Y-878078D01*
X2271016Y-878078D01*
X2261872Y-882650D01*
X2257300Y-887476D01*
X2252474Y-901192D01*
X2252474Y-942847D01*
X2349502Y-819912D02*
G01*
X2344930Y-829310D01*
X2335786Y-838454D01*
X2326388Y-843026D01*
X2312672Y-847597D01*
X2289558Y-847597D01*
X2275588Y-843026D01*
X2266444Y-838454D01*
X2257300Y-829310D01*
X2252474Y-819912D01*
X2252474Y-801370D01*
X2257300Y-792226D01*
X2266444Y-783081D01*
X2275588Y-778510D01*
X2289558Y-773684D01*
X2312672Y-773684D01*
X2326388Y-778510D01*
X2335786Y-783081D01*
X2344930Y-792226D01*
X2349502Y-801370D01*
X2349502Y-819912D01*
D13*
X1049047Y3166719D02*
G01*
X3748684Y3166719D01*
X749300Y266700D02*
G01*
X3448936Y266700D01*
X3749301Y566671D02*
G01*
X3749301Y3166673D01*
X749300Y266700D02*
G01*
X749300Y2866671D01*
X3086100Y812800D02*
G01*
X1308100Y812800D01*
X1308100Y317500D01*
X3086100Y317500D01*
X3086100Y812800D01*
D14*
X2637002Y-368122D02*
G01*
X2637002Y-447497D01*
X2676677Y-407796D02*
G01*
X2597327Y-407796D01*
X3794277Y-407796D02*
G01*
X3714902Y-407796D01*
D15*
X4279900Y-3517900D02*
G01*
X4279900Y139700D01*
X1981200Y139700D01*
X1981200Y-3517900D01*
X4279900Y-3517900D01*
D13*
G75*
G01*
X3449094Y266548D02*
G03*
X3749065Y566778I-28J299999D01*
G75*
G01*
X1049048Y3166720D02*
G03*
X749069Y2866751I20J-300000D01*
D16*
G75*
G01*
X2268703Y-3065297D02*
G02*
X2268220Y-3065297I-242J-200000D01*
G75*
G01*
X2637003Y-329641D02*
G02*
X2636596Y-329641I-204J-78181D01*
G75*
G01*
X3832758Y-407797D02*
G02*
X3832758Y-407391I-78181J203D01*
G75*
G01*
X4046703Y-3065297D02*
G02*
X4046220Y-3065297I-242J-200000D01*
M02*
