G04 Layer: TopSolderMaskLayer*
G04 EasyEDA v6.5.51, 2026-01-27 03:17:30*
G04 77339762291546cc9e75e89c24e87ab3,64650944e1e6431b8ca2675abf886f56,10*
G04 Gerber Generator version 0.2*
G04 Scale: 100 percent, Rotated: No, Reflected: No *
G04 Dimensions in millimeters *
G04 leading zeros omitted , absolute positions ,4 integer and 5 decimal *
%FSLAX45Y45*%
%MOMM*%

%AMMACRO1*4,1,8,-0.8463,-0.876,-0.876,-0.8461,-0.876,0.8463,-0.8463,0.876,0.8461,0.876,0.876,0.8463,0.876,-0.8461,0.8461,-0.876,-0.8463,-0.876,0*%
%ADD10O,1.301598X2.401595*%
%ADD11C,1.6256*%
%ADD12C,1.7016*%
%ADD13C,1.7516*%
%ADD14MACRO1*%
%ADD15C,1.7520*%
%ADD16C,3.7191*%
%ADD17C,0.0112*%
%ADD18O,1.66116X3.11912*%
%ADD19C,3.5192*%
%ADD20C,1.8796*%

%LPD*%
D10*
G01*
X3276600Y3497300D03*
G01*
X3276600Y3797300D03*
G01*
X3276600Y4097299D03*
D11*
G01*
X1302664Y3403600D03*
G01*
X1551203Y3403600D03*
G01*
X1799767Y3403600D03*
G01*
X2057400Y3403600D03*
G01*
X2296896Y3403600D03*
G01*
X2545435Y3403600D03*
G01*
X2794000Y3403600D03*
G01*
X1054100Y3403600D03*
D12*
G01*
X889000Y2285997D03*
G01*
X889000Y2031997D03*
G01*
X889000Y1777997D03*
G01*
X889000Y1523997D03*
G01*
X889000Y1269997D03*
G01*
X889000Y1015997D03*
G01*
X889000Y761997D03*
G01*
X889000Y507997D03*
G01*
X889000Y253997D03*
G01*
X889000Y-2D03*
G01*
X889000Y-254002D03*
G01*
X889000Y-508002D03*
G01*
X889000Y-762002D03*
G01*
X889000Y-1016002D03*
G01*
X889000Y-1270002D03*
G01*
X889000Y-1524002D03*
G01*
X889000Y-1778002D03*
G01*
X889000Y-2032002D03*
G01*
X889000Y-2286002D03*
G01*
X889000Y-2540002D03*
G01*
X889000Y-2794002D03*
G01*
X889000Y-3048002D03*
G01*
X3175000Y-3048002D03*
G01*
X3175000Y-2794002D03*
G01*
X3175000Y-2540002D03*
G01*
X3175000Y-2286002D03*
G01*
X3175000Y-2032002D03*
G01*
X3175000Y-1778002D03*
G01*
X3175000Y-1524002D03*
G01*
X3175000Y-1270002D03*
G01*
X3175000Y-1016002D03*
G01*
X3175000Y-762002D03*
G01*
X3175000Y-508002D03*
G01*
X3175000Y-254002D03*
G01*
X3175000Y-2D03*
G01*
X3175000Y253997D03*
G01*
X3175000Y507997D03*
G01*
X3175000Y761997D03*
G01*
X3175000Y1015997D03*
G01*
X3175000Y1269997D03*
G01*
X3175000Y1523997D03*
G01*
X3175000Y1777997D03*
G01*
X3175000Y2031997D03*
G01*
X3175000Y2285997D03*
D13*
G01*
X1562354Y571245D03*
G01*
X1816354Y571245D03*
G01*
X2070100Y571754D03*
G01*
X2324100Y570992D03*
D14*
G01*
X2578100Y570992D03*
D15*
G01*
X2832100Y571500D03*
D16*
G01*
X4046702Y-3265296D03*
G01*
X2268702Y-3265296D03*
D18*
G01*
X2839440Y-399414D03*
G01*
X3539439Y-399414D03*
D19*
G01*
X2532456Y-128396D03*
G01*
X3846449Y-128396D03*
D20*
G01*
X2141702Y-2236596D03*
G01*
X2141702Y-1982596D03*
G01*
X2141702Y-1728596D03*
G01*
X2141702Y-1474596D03*
G01*
X2141702Y-1220596D03*
G01*
X2141702Y-966596D03*
G01*
X2141702Y-712596D03*
G01*
X2141702Y-458596D03*
D11*
G01*
X1524002Y5079997D03*
G01*
X2032002Y5079997D03*
G01*
X2565402Y5079997D03*
G01*
X3048002Y5079997D03*
G01*
X3556002Y4965697D03*
G01*
X4064002Y4965697D03*
G01*
X4064002Y4457697D03*
G01*
X4064002Y3924297D03*
G01*
X4076702Y3441697D03*
G01*
X4076702Y2933697D03*
G01*
X4064002Y2412997D03*
G01*
X4064002Y2412997D03*
G01*
X4076702Y1904997D03*
G01*
X4076702Y1409697D03*
G01*
X4064002Y901697D03*
G01*
X4064002Y380997D03*
M02*
