G04 Layer: BottomLayer*
G04 EasyEDA v6.5.51, 2026-01-27 03:17:30*
G04 77339762291546cc9e75e89c24e87ab3,64650944e1e6431b8ca2675abf886f56,10*
G04 Gerber Generator version 0.2*
G04 Scale: 100 percent, Rotated: No, Reflected: No *
G04 Dimensions in millimeters *
G04 leading zeros omitted , absolute positions ,4 integer and 5 decimal *
%FSLAX45Y45*%
%MOMM*%

%AMMACRO1*21,1,$1,$2,0,0,$3*%
%ADD10C,0.2540*%
%ADD11O,1.199998X2.299995*%
%ADD12C,1.5240*%
%ADD13C,1.6000*%
%ADD14C,1.6500*%
%ADD15MACRO1,1.65X1.65X0.0000*%
%ADD16C,1.6500*%
%ADD17C,3.5159*%
%ADD18C,0.0175*%
%ADD19O,1.45796X2.91592*%
%ADD20C,3.3160*%
%ADD21C,1.6764*%
%ADD22C,0.6096*%

%LPD*%
D10*
X2141705Y-966599D02*
G01*
X889002Y-2219302D01*
X889002Y-2286002D01*
X889002Y-1778002D02*
G01*
X1943000Y-724004D01*
X1943000Y2552595D01*
X2794002Y3403597D01*
X3276602Y3797297D02*
G01*
X3425294Y3797297D01*
X4231261Y2991330D01*
X4231261Y350390D01*
X3948229Y67358D01*
X3764561Y67358D01*
X3309546Y-387657D01*
X3123643Y-387657D01*
X2669974Y-841326D01*
X2669974Y-946330D01*
X2141705Y-1474599D01*
X2070102Y571751D02*
G01*
X2908048Y1409697D01*
X4076702Y1409697D01*
X2324102Y570989D02*
G01*
X2642110Y888997D01*
X3776525Y888997D01*
X4183534Y1296007D01*
X4183534Y1691459D01*
X4076702Y1798292D01*
X4076702Y1904997D02*
G01*
X4076702Y1798292D01*
X4064002Y3924297D02*
G01*
X3957297Y3924297D01*
X3957297Y3924297D02*
G01*
X3638273Y4243321D01*
X1818871Y4243321D01*
X1178384Y3602835D01*
X2032002Y4973292D02*
G01*
X770232Y3711521D01*
X770232Y1134767D01*
X889002Y1015997D01*
X2032002Y5079997D02*
G01*
X2032002Y4973292D01*
X2050620Y4495467D02*
G01*
X3487066Y4495467D01*
X3957297Y4965697D01*
X4064002Y4965697D02*
G01*
X3957297Y4965697D01*
X4064002Y4457697D02*
G01*
X3957297Y4457697D01*
X3957297Y4457697D02*
G01*
X3936519Y4436920D01*
X1929665Y4436920D01*
X948641Y3455896D01*
X948641Y3347819D01*
X997079Y3299381D01*
X997079Y-1161925D01*
X889002Y-1270002D01*
X3175002Y2285997D02*
G01*
X3830297Y2285997D01*
X3957297Y2412997D01*
X4064002Y2412997D02*
G01*
X3957297Y2412997D01*
X2545438Y3403597D02*
G01*
X2439570Y3509464D01*
X1408534Y3509464D01*
X1302666Y3403597D01*
X2545438Y3403597D02*
G01*
X2656156Y3514316D01*
X2903146Y3514316D01*
X3483764Y2933697D01*
X4076702Y2933697D01*
X2578102Y570989D02*
G01*
X2578102Y515769D01*
X2578102Y515769D02*
G01*
X2578102Y460524D01*
X2578102Y515769D02*
G01*
X2757858Y695525D01*
X2901063Y695525D01*
X2946453Y650135D01*
X3705735Y650135D01*
X3957297Y901697D01*
X4064002Y901697D02*
G01*
X3957297Y901697D01*
X2141705Y-712599D02*
G01*
X2258138Y-596165D01*
X2258138Y140561D01*
X2578102Y460524D01*
X2141705Y-712599D02*
G01*
X2253617Y-824511D01*
X2253617Y-1016485D01*
X2176503Y-1093599D01*
X2098423Y-1093599D01*
X2012927Y-1179095D01*
X2012927Y-3048002D01*
X3175002Y-3048002D02*
G01*
X2012927Y-3048002D01*
X2012927Y-3048002D02*
G01*
X889002Y-3048002D01*
X2141705Y-458599D02*
G01*
X2021207Y-579097D01*
X2021207Y-810414D01*
X926619Y-1905002D01*
X853747Y-1905002D01*
X770765Y-1987984D01*
X770765Y-2675765D01*
X889002Y-2794002D01*
X2832102Y571497D02*
G01*
X3022602Y380997D01*
X4064002Y380997D01*
X4076702Y3441697D02*
G01*
X3969997Y3441697D01*
X1054102Y3403597D02*
G01*
X1061976Y3403597D01*
X1598830Y3940451D01*
X3471242Y3940451D01*
X3969997Y3441697D01*
D11*
G01*
X3276600Y3497300D03*
G01*
X3276600Y3797300D03*
G01*
X3276600Y4097299D03*
D12*
G01*
X1302664Y3403600D03*
G01*
X1551203Y3403600D03*
G01*
X1799767Y3403600D03*
G01*
X2057400Y3403600D03*
G01*
X2296896Y3403600D03*
G01*
X2545435Y3403600D03*
G01*
X2794000Y3403600D03*
G01*
X1054100Y3403600D03*
D13*
G01*
X889000Y2285997D03*
G01*
X889000Y2031997D03*
G01*
X889000Y1777997D03*
G01*
X889000Y1523997D03*
G01*
X889000Y1269997D03*
G01*
X889000Y1015997D03*
G01*
X889000Y761997D03*
G01*
X889000Y507997D03*
G01*
X889000Y253997D03*
G01*
X889000Y-2D03*
G01*
X889000Y-254002D03*
G01*
X889000Y-508002D03*
G01*
X889000Y-762002D03*
G01*
X889000Y-1016002D03*
G01*
X889000Y-1270002D03*
G01*
X889000Y-1524002D03*
G01*
X889000Y-1778002D03*
G01*
X889000Y-2032002D03*
G01*
X889000Y-2286002D03*
G01*
X889000Y-2540002D03*
G01*
X889000Y-2794002D03*
G01*
X889000Y-3048002D03*
G01*
X3175000Y-3048002D03*
G01*
X3175000Y-2794002D03*
G01*
X3175000Y-2540002D03*
G01*
X3175000Y-2286002D03*
G01*
X3175000Y-2032002D03*
G01*
X3175000Y-1778002D03*
G01*
X3175000Y-1524002D03*
G01*
X3175000Y-1270002D03*
G01*
X3175000Y-1016002D03*
G01*
X3175000Y-762002D03*
G01*
X3175000Y-508002D03*
G01*
X3175000Y-254002D03*
G01*
X3175000Y-2D03*
G01*
X3175000Y253997D03*
G01*
X3175000Y507997D03*
G01*
X3175000Y761997D03*
G01*
X3175000Y1015997D03*
G01*
X3175000Y1269997D03*
G01*
X3175000Y1523997D03*
G01*
X3175000Y1777997D03*
G01*
X3175000Y2031997D03*
G01*
X3175000Y2285997D03*
D14*
G01*
X1562354Y571245D03*
G01*
X1816354Y571245D03*
G01*
X2070100Y571754D03*
G01*
X2324100Y570992D03*
D15*
G01*
X2578102Y570997D03*
D16*
G01*
X2832100Y571500D03*
D17*
G01*
X4046702Y-3265296D03*
G01*
X2268702Y-3265296D03*
D19*
G01*
X2839440Y-399414D03*
G01*
X3539439Y-399414D03*
D20*
G01*
X2532456Y-128396D03*
G01*
X3846449Y-128396D03*
D21*
G01*
X2141702Y-2236596D03*
G01*
X2141702Y-1982596D03*
G01*
X2141702Y-1728596D03*
G01*
X2141702Y-1474596D03*
G01*
X2141702Y-1220596D03*
G01*
X2141702Y-966596D03*
G01*
X2141702Y-712596D03*
G01*
X2141702Y-458596D03*
D12*
G01*
X1524002Y5079997D03*
G01*
X2032002Y5079997D03*
G01*
X2565402Y5079997D03*
G01*
X3048002Y5079997D03*
G01*
X3556002Y4965697D03*
G01*
X4064002Y4965697D03*
G01*
X4064002Y4457697D03*
G01*
X4064002Y3924297D03*
G01*
X4076702Y3441697D03*
G01*
X4076702Y2933697D03*
G01*
X4064002Y2412997D03*
G01*
X4064002Y2412997D03*
G01*
X4076702Y1904997D03*
G01*
X4076702Y1409697D03*
G01*
X4064002Y901697D03*
G01*
X4064002Y380997D03*
D22*
G01*
X2050620Y4495467D03*
G01*
X1178384Y3602835D03*
G01*
X1551205Y1269997D03*
M02*
