G04 Layer: TopLayer*
G04 EasyEDA v6.5.51, 2026-01-27 03:17:30*
G04 77339762291546cc9e75e89c24e87ab3,64650944e1e6431b8ca2675abf886f56,10*
G04 Gerber Generator version 0.2*
G04 Scale: 100 percent, Rotated: No, Reflected: No *
G04 Dimensions in millimeters *
G04 leading zeros omitted , absolute positions ,4 integer and 5 decimal *
%FSLAX45Y45*%
%MOMM*%

%AMMACRO1*21,1,$1,$2,0,0,$3*%
%ADD10O,1.199998X2.299995*%
%ADD11C,1.5240*%
%ADD12C,1.6000*%
%ADD13C,1.6500*%
%ADD14MACRO1,1.65X1.65X0.0000*%
%ADD15C,1.6500*%
%ADD16C,0.0178*%
%ADD17C,3.5159*%
%ADD18O,1.45796X2.91592*%
%ADD19C,3.3160*%
%ADD20C,1.6764*%
%ADD21C,0.6096*%

%LPD*%
G36*
X736092Y-3574084D02*
G01*
X732180Y-3573322D01*
X728878Y-3571087D01*
X726694Y-3567836D01*
X725932Y-3563924D01*
X725932Y5363921D01*
X726694Y5367832D01*
X728878Y5371084D01*
X732180Y5373319D01*
X736092Y5374081D01*
X4463948Y5374081D01*
X4467809Y5373319D01*
X4471111Y5371084D01*
X4473295Y5367832D01*
X4474108Y5363921D01*
X4474108Y-3563924D01*
X4473295Y-3567836D01*
X4471111Y-3571087D01*
X4467809Y-3573322D01*
X4463948Y-3574084D01*
G37*

%LPC*%
G36*
X4046728Y-3466998D02*
G01*
X4066184Y-3466033D01*
X4085437Y-3463239D01*
X4104386Y-3458565D01*
X4122775Y-3452114D01*
X4140454Y-3443884D01*
X4157218Y-3434029D01*
X4173016Y-3422548D01*
X4187596Y-3409645D01*
X4200855Y-3395370D01*
X4212691Y-3379876D01*
X4222953Y-3363315D01*
X4231589Y-3345840D01*
X4238498Y-3327603D01*
X4243628Y-3308807D01*
X4246930Y-3289604D01*
X4248353Y-3270148D01*
X4247845Y-3250692D01*
X4245508Y-3231337D01*
X4241292Y-3212287D01*
X4235297Y-3193796D01*
X4227525Y-3175914D01*
X4218025Y-3158896D01*
X4206951Y-3142843D01*
X4194403Y-3127959D01*
X4180433Y-3114344D01*
X4165244Y-3102102D01*
X4148937Y-3091434D01*
X4131716Y-3082391D01*
X4113631Y-3075025D01*
X4094987Y-3069488D01*
X4075836Y-3065729D01*
X4056430Y-3063849D01*
X4036974Y-3063849D01*
X4017568Y-3065729D01*
X3998417Y-3069488D01*
X3979773Y-3075025D01*
X3961688Y-3082391D01*
X3944467Y-3091434D01*
X3928160Y-3102102D01*
X3912971Y-3114344D01*
X3899001Y-3127959D01*
X3886454Y-3142843D01*
X3875379Y-3158896D01*
X3865879Y-3175914D01*
X3858107Y-3193796D01*
X3852113Y-3212287D01*
X3847896Y-3231337D01*
X3845560Y-3250692D01*
X3845051Y-3270148D01*
X3846474Y-3289604D01*
X3849776Y-3308807D01*
X3854907Y-3327603D01*
X3861815Y-3345840D01*
X3870451Y-3363315D01*
X3880713Y-3379876D01*
X3892550Y-3395370D01*
X3905808Y-3409645D01*
X3920388Y-3422548D01*
X3936187Y-3434029D01*
X3952951Y-3443884D01*
X3970629Y-3452114D01*
X3989019Y-3458565D01*
X4007967Y-3463239D01*
X4027220Y-3466033D01*
G37*
G36*
X2268728Y-3466998D02*
G01*
X2288184Y-3466033D01*
X2307437Y-3463239D01*
X2326386Y-3458565D01*
X2344775Y-3452114D01*
X2362454Y-3443884D01*
X2379218Y-3434029D01*
X2395016Y-3422548D01*
X2409596Y-3409645D01*
X2422855Y-3395370D01*
X2434691Y-3379876D01*
X2444953Y-3363315D01*
X2453589Y-3345840D01*
X2460498Y-3327603D01*
X2465628Y-3308807D01*
X2468930Y-3289604D01*
X2470353Y-3270148D01*
X2469845Y-3250692D01*
X2467508Y-3231337D01*
X2463292Y-3212287D01*
X2457297Y-3193796D01*
X2449525Y-3175914D01*
X2440025Y-3158896D01*
X2428951Y-3142843D01*
X2416403Y-3127959D01*
X2402433Y-3114344D01*
X2387244Y-3102102D01*
X2370937Y-3091434D01*
X2353716Y-3082391D01*
X2335631Y-3075025D01*
X2316988Y-3069488D01*
X2297836Y-3065729D01*
X2278430Y-3063849D01*
X2258974Y-3063849D01*
X2239568Y-3065729D01*
X2220417Y-3069488D01*
X2201773Y-3075025D01*
X2183688Y-3082391D01*
X2166467Y-3091434D01*
X2150160Y-3102102D01*
X2134971Y-3114344D01*
X2121001Y-3127959D01*
X2108454Y-3142843D01*
X2097379Y-3158896D01*
X2087880Y-3175914D01*
X2080107Y-3193796D01*
X2074113Y-3212287D01*
X2069896Y-3231337D01*
X2067560Y-3250692D01*
X2067052Y-3270148D01*
X2068474Y-3289604D01*
X2071776Y-3308807D01*
X2076907Y-3327603D01*
X2083816Y-3345840D01*
X2092452Y-3363315D01*
X2102713Y-3379876D01*
X2114550Y-3395370D01*
X2127808Y-3409645D01*
X2142388Y-3422548D01*
X2158187Y-3434029D01*
X2174951Y-3443884D01*
X2192629Y-3452114D01*
X2211019Y-3458565D01*
X2229967Y-3463239D01*
X2249220Y-3466033D01*
G37*
G36*
X935329Y-3142945D02*
G01*
X941933Y-3139694D01*
X953465Y-3131972D01*
X963879Y-3122879D01*
X973023Y-3112465D01*
X980694Y-3100933D01*
X983945Y-3094329D01*
X935329Y-3094329D01*
G37*
G36*
X842670Y-3142945D02*
G01*
X842670Y-3094329D01*
X794054Y-3094329D01*
X797306Y-3100933D01*
X804976Y-3112465D01*
X814120Y-3122879D01*
X824534Y-3131972D01*
X836066Y-3139694D01*
G37*
G36*
X3128670Y-3142945D02*
G01*
X3128670Y-3094329D01*
X3080054Y-3094329D01*
X3083306Y-3100933D01*
X3090976Y-3112465D01*
X3100120Y-3122879D01*
X3110534Y-3131972D01*
X3122066Y-3139694D01*
G37*
G36*
X3221329Y-3142945D02*
G01*
X3227933Y-3139694D01*
X3239465Y-3131972D01*
X3249879Y-3122879D01*
X3259023Y-3112465D01*
X3266694Y-3100933D01*
X3269945Y-3094329D01*
X3221329Y-3094329D01*
G37*
G36*
X935329Y-3001619D02*
G01*
X983945Y-3001619D01*
X980694Y-2995066D01*
X973023Y-2983534D01*
X963879Y-2973120D01*
X953465Y-2963976D01*
X941933Y-2956306D01*
X935329Y-2953054D01*
G37*
G36*
X794054Y-3001619D02*
G01*
X842670Y-3001619D01*
X842670Y-2953054D01*
X836066Y-2956306D01*
X824534Y-2963976D01*
X814120Y-2973120D01*
X804976Y-2983534D01*
X797306Y-2995066D01*
G37*
G36*
X3080054Y-3001619D02*
G01*
X3128670Y-3001619D01*
X3128670Y-2953054D01*
X3122066Y-2956306D01*
X3110534Y-2963976D01*
X3100120Y-2973120D01*
X3090976Y-2983534D01*
X3083306Y-2995066D01*
G37*
G36*
X3221329Y-3001619D02*
G01*
X3269945Y-3001619D01*
X3266694Y-2995066D01*
X3259023Y-2983534D01*
X3249879Y-2973120D01*
X3239465Y-2963976D01*
X3227933Y-2956306D01*
X3221329Y-2953054D01*
G37*
G36*
X889000Y-2899867D02*
G01*
X902817Y-2898952D01*
X916432Y-2896260D01*
X929538Y-2891840D01*
X941933Y-2885694D01*
X953465Y-2878023D01*
X963879Y-2868879D01*
X973023Y-2858465D01*
X980694Y-2846933D01*
X986840Y-2834538D01*
X991260Y-2821381D01*
X994003Y-2807817D01*
X994867Y-2794000D01*
X994003Y-2780182D01*
X991260Y-2766568D01*
X986840Y-2753461D01*
X980694Y-2741066D01*
X973023Y-2729534D01*
X963879Y-2719120D01*
X953465Y-2709976D01*
X941933Y-2702306D01*
X929538Y-2696159D01*
X916432Y-2691739D01*
X902817Y-2688996D01*
X889000Y-2688132D01*
X875182Y-2688996D01*
X861618Y-2691739D01*
X848461Y-2696159D01*
X836066Y-2702306D01*
X824534Y-2709976D01*
X814120Y-2719120D01*
X804976Y-2729534D01*
X797306Y-2741066D01*
X791159Y-2753461D01*
X786739Y-2766568D01*
X784047Y-2780182D01*
X783132Y-2794000D01*
X784047Y-2807817D01*
X786739Y-2821381D01*
X791159Y-2834538D01*
X797306Y-2846933D01*
X804976Y-2858465D01*
X814120Y-2868879D01*
X824534Y-2878023D01*
X836066Y-2885694D01*
X848461Y-2891840D01*
X861618Y-2896260D01*
X875182Y-2898952D01*
G37*
G36*
X3128670Y-2888945D02*
G01*
X3128670Y-2840329D01*
X3080054Y-2840329D01*
X3083306Y-2846933D01*
X3090976Y-2858465D01*
X3100120Y-2868879D01*
X3110534Y-2878023D01*
X3122066Y-2885694D01*
G37*
G36*
X3221329Y-2888945D02*
G01*
X3227933Y-2885694D01*
X3239465Y-2878023D01*
X3249879Y-2868879D01*
X3259023Y-2858465D01*
X3266694Y-2846933D01*
X3269945Y-2840329D01*
X3221329Y-2840329D01*
G37*
G36*
X3080054Y-2747670D02*
G01*
X3128670Y-2747670D01*
X3128670Y-2699054D01*
X3122066Y-2702306D01*
X3110534Y-2709976D01*
X3100120Y-2719120D01*
X3090976Y-2729534D01*
X3083306Y-2741066D01*
G37*
G36*
X3221329Y-2747670D02*
G01*
X3269945Y-2747670D01*
X3266694Y-2741066D01*
X3259023Y-2729534D01*
X3249879Y-2719120D01*
X3239465Y-2709976D01*
X3227933Y-2702306D01*
X3221329Y-2699054D01*
G37*
G36*
X889000Y-2645867D02*
G01*
X902817Y-2644952D01*
X916432Y-2642260D01*
X929538Y-2637840D01*
X941933Y-2631694D01*
X953465Y-2624023D01*
X963879Y-2614879D01*
X973023Y-2604465D01*
X980694Y-2592933D01*
X986840Y-2580538D01*
X991260Y-2567381D01*
X994003Y-2553817D01*
X994867Y-2540000D01*
X994003Y-2526182D01*
X991260Y-2512568D01*
X986840Y-2499461D01*
X980694Y-2487066D01*
X973023Y-2475534D01*
X963879Y-2465120D01*
X953465Y-2455976D01*
X941933Y-2448306D01*
X929538Y-2442159D01*
X916432Y-2437739D01*
X902817Y-2434996D01*
X889000Y-2434132D01*
X875182Y-2434996D01*
X861618Y-2437739D01*
X848461Y-2442159D01*
X836066Y-2448306D01*
X824534Y-2455976D01*
X814120Y-2465120D01*
X804976Y-2475534D01*
X797306Y-2487066D01*
X791159Y-2499461D01*
X786739Y-2512568D01*
X784047Y-2526182D01*
X783132Y-2540000D01*
X784047Y-2553817D01*
X786739Y-2567381D01*
X791159Y-2580538D01*
X797306Y-2592933D01*
X804976Y-2604465D01*
X814120Y-2614879D01*
X824534Y-2624023D01*
X836066Y-2631694D01*
X848461Y-2637840D01*
X861618Y-2642260D01*
X875182Y-2644952D01*
G37*
G36*
X3175000Y-2645867D02*
G01*
X3188817Y-2644952D01*
X3202381Y-2642260D01*
X3215538Y-2637840D01*
X3227933Y-2631694D01*
X3239465Y-2624023D01*
X3249879Y-2614879D01*
X3259023Y-2604465D01*
X3266694Y-2592933D01*
X3272840Y-2580538D01*
X3277260Y-2567381D01*
X3279952Y-2553817D01*
X3280867Y-2540000D01*
X3279952Y-2526182D01*
X3277260Y-2512568D01*
X3272840Y-2499461D01*
X3266694Y-2487066D01*
X3259023Y-2475534D01*
X3249879Y-2465120D01*
X3239465Y-2455976D01*
X3227933Y-2448306D01*
X3215538Y-2442159D01*
X3202381Y-2437739D01*
X3188817Y-2434996D01*
X3175000Y-2434132D01*
X3161182Y-2434996D01*
X3147568Y-2437739D01*
X3134461Y-2442159D01*
X3122066Y-2448306D01*
X3110534Y-2455976D01*
X3100120Y-2465120D01*
X3090976Y-2475534D01*
X3083306Y-2487066D01*
X3077159Y-2499461D01*
X3072739Y-2512568D01*
X3069996Y-2526182D01*
X3069132Y-2540000D01*
X3069996Y-2553817D01*
X3072739Y-2567381D01*
X3077159Y-2580538D01*
X3083306Y-2592933D01*
X3090976Y-2604465D01*
X3100120Y-2614879D01*
X3110534Y-2624023D01*
X3122066Y-2631694D01*
X3134461Y-2637840D01*
X3147568Y-2642260D01*
X3161182Y-2644952D01*
G37*
G36*
X889000Y-2391867D02*
G01*
X902817Y-2390952D01*
X916432Y-2388260D01*
X929538Y-2383840D01*
X941933Y-2377694D01*
X953465Y-2370023D01*
X963879Y-2360879D01*
X973023Y-2350465D01*
X980694Y-2338933D01*
X986840Y-2326538D01*
X991260Y-2313381D01*
X994003Y-2299817D01*
X994867Y-2286000D01*
X994003Y-2272182D01*
X991260Y-2258568D01*
X986840Y-2245461D01*
X980694Y-2233066D01*
X973023Y-2221534D01*
X963879Y-2211120D01*
X953465Y-2201976D01*
X941933Y-2194306D01*
X929538Y-2188159D01*
X916432Y-2183739D01*
X902817Y-2180996D01*
X889000Y-2180132D01*
X875182Y-2180996D01*
X861618Y-2183739D01*
X848461Y-2188159D01*
X836066Y-2194306D01*
X824534Y-2201976D01*
X814120Y-2211120D01*
X804976Y-2221534D01*
X797306Y-2233066D01*
X791159Y-2245461D01*
X786739Y-2258568D01*
X784047Y-2272182D01*
X783132Y-2286000D01*
X784047Y-2299817D01*
X786739Y-2313381D01*
X791159Y-2326538D01*
X797306Y-2338933D01*
X804976Y-2350465D01*
X814120Y-2360879D01*
X824534Y-2370023D01*
X836066Y-2377694D01*
X848461Y-2383840D01*
X861618Y-2388260D01*
X875182Y-2390952D01*
G37*
G36*
X3175000Y-2391867D02*
G01*
X3188817Y-2390952D01*
X3202381Y-2388260D01*
X3215538Y-2383840D01*
X3227933Y-2377694D01*
X3239465Y-2370023D01*
X3249879Y-2360879D01*
X3259023Y-2350465D01*
X3266694Y-2338933D01*
X3272840Y-2326538D01*
X3277260Y-2313381D01*
X3279952Y-2299817D01*
X3280867Y-2286000D01*
X3279952Y-2272182D01*
X3277260Y-2258568D01*
X3272840Y-2245461D01*
X3266694Y-2233066D01*
X3259023Y-2221534D01*
X3249879Y-2211120D01*
X3239465Y-2201976D01*
X3227933Y-2194306D01*
X3215538Y-2188159D01*
X3202381Y-2183739D01*
X3188817Y-2180996D01*
X3175000Y-2180132D01*
X3161182Y-2180996D01*
X3147568Y-2183739D01*
X3134461Y-2188159D01*
X3122066Y-2194306D01*
X3110534Y-2201976D01*
X3100120Y-2211120D01*
X3090976Y-2221534D01*
X3083306Y-2233066D01*
X3077159Y-2245461D01*
X3072739Y-2258568D01*
X3069996Y-2272182D01*
X3069132Y-2286000D01*
X3069996Y-2299817D01*
X3072739Y-2313381D01*
X3077159Y-2326538D01*
X3083306Y-2338933D01*
X3090976Y-2350465D01*
X3100120Y-2360879D01*
X3110534Y-2370023D01*
X3122066Y-2377694D01*
X3134461Y-2383840D01*
X3147568Y-2388260D01*
X3161182Y-2390952D01*
G37*
G36*
X2138172Y-2346248D02*
G01*
X2152243Y-2345791D01*
X2166112Y-2343556D01*
X2179574Y-2339543D01*
X2192426Y-2333853D01*
X2204466Y-2326589D01*
X2215438Y-2317800D01*
X2225243Y-2307691D01*
X2233625Y-2296464D01*
X2240534Y-2284222D01*
X2245817Y-2271166D01*
X2249373Y-2257552D01*
X2251202Y-2243632D01*
X2251202Y-2229561D01*
X2249373Y-2215642D01*
X2245817Y-2202027D01*
X2240534Y-2188972D01*
X2233625Y-2176729D01*
X2225243Y-2165502D01*
X2215438Y-2155393D01*
X2204466Y-2146604D01*
X2192426Y-2139340D01*
X2179574Y-2133650D01*
X2166112Y-2129637D01*
X2152243Y-2127402D01*
X2138172Y-2126945D01*
X2124202Y-2128316D01*
X2110486Y-2131415D01*
X2097278Y-2136292D01*
X2084832Y-2142794D01*
X2073300Y-2150821D01*
X2062886Y-2160270D01*
X2053793Y-2170988D01*
X2046122Y-2182774D01*
X2040026Y-2195423D01*
X2035606Y-2208784D01*
X2032914Y-2222550D01*
X2032000Y-2236622D01*
X2032914Y-2250643D01*
X2035606Y-2264410D01*
X2040026Y-2277770D01*
X2046122Y-2290419D01*
X2053793Y-2302205D01*
X2062886Y-2312924D01*
X2073300Y-2322372D01*
X2084832Y-2330399D01*
X2097278Y-2336901D01*
X2110486Y-2341778D01*
X2124202Y-2344877D01*
G37*
G36*
X889000Y-2137867D02*
G01*
X902817Y-2136952D01*
X916432Y-2134260D01*
X929538Y-2129840D01*
X941933Y-2123694D01*
X953465Y-2116023D01*
X963879Y-2106879D01*
X973023Y-2096465D01*
X980694Y-2084933D01*
X986840Y-2072538D01*
X991260Y-2059381D01*
X994003Y-2045817D01*
X994867Y-2032000D01*
X994003Y-2018182D01*
X991260Y-2004568D01*
X986840Y-1991461D01*
X980694Y-1979066D01*
X973023Y-1967534D01*
X963879Y-1957120D01*
X953465Y-1947976D01*
X941933Y-1940306D01*
X929538Y-1934159D01*
X916432Y-1929739D01*
X902817Y-1926996D01*
X889000Y-1926132D01*
X875182Y-1926996D01*
X861618Y-1929739D01*
X848461Y-1934159D01*
X836066Y-1940306D01*
X824534Y-1947976D01*
X814120Y-1957120D01*
X804976Y-1967534D01*
X797306Y-1979066D01*
X791159Y-1991461D01*
X786739Y-2004568D01*
X784047Y-2018182D01*
X783132Y-2032000D01*
X784047Y-2045817D01*
X786739Y-2059381D01*
X791159Y-2072538D01*
X797306Y-2084933D01*
X804976Y-2096465D01*
X814120Y-2106879D01*
X824534Y-2116023D01*
X836066Y-2123694D01*
X848461Y-2129840D01*
X861618Y-2134260D01*
X875182Y-2136952D01*
G37*
G36*
X3175000Y-2137867D02*
G01*
X3188817Y-2136952D01*
X3202381Y-2134260D01*
X3215538Y-2129840D01*
X3227933Y-2123694D01*
X3239465Y-2116023D01*
X3249879Y-2106879D01*
X3259023Y-2096465D01*
X3266694Y-2084933D01*
X3272840Y-2072538D01*
X3277260Y-2059381D01*
X3279952Y-2045817D01*
X3280867Y-2032000D01*
X3279952Y-2018182D01*
X3277260Y-2004568D01*
X3272840Y-1991461D01*
X3266694Y-1979066D01*
X3259023Y-1967534D01*
X3249879Y-1957120D01*
X3239465Y-1947976D01*
X3227933Y-1940306D01*
X3215538Y-1934159D01*
X3202381Y-1929739D01*
X3188817Y-1926996D01*
X3175000Y-1926132D01*
X3161182Y-1926996D01*
X3147568Y-1929739D01*
X3134461Y-1934159D01*
X3122066Y-1940306D01*
X3110534Y-1947976D01*
X3100120Y-1957120D01*
X3090976Y-1967534D01*
X3083306Y-1979066D01*
X3077159Y-1991461D01*
X3072739Y-2004568D01*
X3069996Y-2018182D01*
X3069132Y-2032000D01*
X3069996Y-2045817D01*
X3072739Y-2059381D01*
X3077159Y-2072538D01*
X3083306Y-2084933D01*
X3090976Y-2096465D01*
X3100120Y-2106879D01*
X3110534Y-2116023D01*
X3122066Y-2123694D01*
X3134461Y-2129840D01*
X3147568Y-2134260D01*
X3161182Y-2136952D01*
G37*
G36*
X2138172Y-2092248D02*
G01*
X2152243Y-2091791D01*
X2166112Y-2089556D01*
X2179574Y-2085543D01*
X2192426Y-2079853D01*
X2204466Y-2072589D01*
X2215438Y-2063800D01*
X2225243Y-2053691D01*
X2233625Y-2042464D01*
X2240534Y-2030222D01*
X2245817Y-2017166D01*
X2249373Y-2003552D01*
X2251202Y-1989632D01*
X2251202Y-1975561D01*
X2249373Y-1961642D01*
X2245817Y-1948027D01*
X2240534Y-1934972D01*
X2233625Y-1922729D01*
X2225243Y-1911502D01*
X2215438Y-1901393D01*
X2204466Y-1892604D01*
X2192426Y-1885340D01*
X2179574Y-1879650D01*
X2166112Y-1875637D01*
X2152243Y-1873402D01*
X2138172Y-1872945D01*
X2124202Y-1874316D01*
X2110486Y-1877415D01*
X2097278Y-1882292D01*
X2084832Y-1888794D01*
X2073300Y-1896821D01*
X2062886Y-1906270D01*
X2053793Y-1916988D01*
X2046122Y-1928774D01*
X2040026Y-1941423D01*
X2035606Y-1954784D01*
X2032914Y-1968550D01*
X2032000Y-1982622D01*
X2032914Y-1996643D01*
X2035606Y-2010410D01*
X2040026Y-2023770D01*
X2046122Y-2036419D01*
X2053793Y-2048205D01*
X2062886Y-2058924D01*
X2073300Y-2068372D01*
X2084832Y-2076399D01*
X2097278Y-2082901D01*
X2110486Y-2087778D01*
X2124202Y-2090877D01*
G37*
G36*
X889000Y-1883867D02*
G01*
X902817Y-1882952D01*
X916432Y-1880260D01*
X929538Y-1875840D01*
X941933Y-1869693D01*
X953465Y-1862023D01*
X963879Y-1852879D01*
X973023Y-1842465D01*
X980694Y-1830933D01*
X986840Y-1818538D01*
X991260Y-1805381D01*
X994003Y-1791817D01*
X994867Y-1778000D01*
X994003Y-1764182D01*
X991260Y-1750568D01*
X986840Y-1737461D01*
X980694Y-1725066D01*
X973023Y-1713534D01*
X963879Y-1703120D01*
X953465Y-1693976D01*
X941933Y-1686306D01*
X929538Y-1680159D01*
X916432Y-1675739D01*
X902817Y-1672996D01*
X889000Y-1672132D01*
X875182Y-1672996D01*
X861618Y-1675739D01*
X848461Y-1680159D01*
X836066Y-1686306D01*
X824534Y-1693976D01*
X814120Y-1703120D01*
X804976Y-1713534D01*
X797306Y-1725066D01*
X791159Y-1737461D01*
X786739Y-1750568D01*
X784047Y-1764182D01*
X783132Y-1778000D01*
X784047Y-1791817D01*
X786739Y-1805381D01*
X791159Y-1818538D01*
X797306Y-1830933D01*
X804976Y-1842465D01*
X814120Y-1852879D01*
X824534Y-1862023D01*
X836066Y-1869693D01*
X848461Y-1875840D01*
X861618Y-1880260D01*
X875182Y-1882952D01*
G37*
G36*
X3175000Y-1883867D02*
G01*
X3188817Y-1882952D01*
X3202381Y-1880260D01*
X3215538Y-1875840D01*
X3227933Y-1869693D01*
X3239465Y-1862023D01*
X3249879Y-1852879D01*
X3259023Y-1842465D01*
X3266694Y-1830933D01*
X3272840Y-1818538D01*
X3277260Y-1805381D01*
X3279952Y-1791817D01*
X3280867Y-1778000D01*
X3279952Y-1764182D01*
X3277260Y-1750568D01*
X3272840Y-1737461D01*
X3266694Y-1725066D01*
X3259023Y-1713534D01*
X3249879Y-1703120D01*
X3239465Y-1693976D01*
X3227933Y-1686306D01*
X3215538Y-1680159D01*
X3202381Y-1675739D01*
X3188817Y-1672996D01*
X3175000Y-1672132D01*
X3161182Y-1672996D01*
X3147568Y-1675739D01*
X3134461Y-1680159D01*
X3122066Y-1686306D01*
X3110534Y-1693976D01*
X3100120Y-1703120D01*
X3090976Y-1713534D01*
X3083306Y-1725066D01*
X3077159Y-1737461D01*
X3072739Y-1750568D01*
X3069996Y-1764182D01*
X3069132Y-1778000D01*
X3069996Y-1791817D01*
X3072739Y-1805381D01*
X3077159Y-1818538D01*
X3083306Y-1830933D01*
X3090976Y-1842465D01*
X3100120Y-1852879D01*
X3110534Y-1862023D01*
X3122066Y-1869693D01*
X3134461Y-1875840D01*
X3147568Y-1880260D01*
X3161182Y-1882952D01*
G37*
G36*
X2138172Y-1838248D02*
G01*
X2152243Y-1837791D01*
X2166112Y-1835556D01*
X2179574Y-1831543D01*
X2192426Y-1825853D01*
X2204466Y-1818589D01*
X2215438Y-1809800D01*
X2225243Y-1799691D01*
X2233625Y-1788464D01*
X2240534Y-1776222D01*
X2245817Y-1763166D01*
X2249373Y-1749552D01*
X2251202Y-1735632D01*
X2251202Y-1721561D01*
X2249373Y-1707642D01*
X2245817Y-1694027D01*
X2240534Y-1680972D01*
X2233625Y-1668729D01*
X2225243Y-1657502D01*
X2215438Y-1647393D01*
X2204466Y-1638604D01*
X2192426Y-1631340D01*
X2179574Y-1625650D01*
X2166112Y-1621637D01*
X2152243Y-1619402D01*
X2138172Y-1618945D01*
X2124202Y-1620316D01*
X2110486Y-1623415D01*
X2097278Y-1628292D01*
X2084832Y-1634794D01*
X2073300Y-1642821D01*
X2062886Y-1652270D01*
X2053793Y-1662988D01*
X2046122Y-1674774D01*
X2040026Y-1687423D01*
X2035606Y-1700784D01*
X2032914Y-1714550D01*
X2032000Y-1728622D01*
X2032914Y-1742643D01*
X2035606Y-1756410D01*
X2040026Y-1769770D01*
X2046122Y-1782419D01*
X2053793Y-1794205D01*
X2062886Y-1804924D01*
X2073300Y-1814372D01*
X2084832Y-1822399D01*
X2097278Y-1828901D01*
X2110486Y-1833778D01*
X2124202Y-1836877D01*
G37*
G36*
X889000Y-1629867D02*
G01*
X902817Y-1628952D01*
X916432Y-1626260D01*
X929538Y-1621840D01*
X941933Y-1615694D01*
X953465Y-1608023D01*
X963879Y-1598879D01*
X973023Y-1588465D01*
X980694Y-1576933D01*
X986840Y-1564538D01*
X991260Y-1551381D01*
X994003Y-1537817D01*
X994867Y-1524000D01*
X994003Y-1510182D01*
X991260Y-1496568D01*
X986840Y-1483461D01*
X980694Y-1471066D01*
X973023Y-1459534D01*
X963879Y-1449120D01*
X953465Y-1439976D01*
X941933Y-1432306D01*
X929538Y-1426159D01*
X916432Y-1421739D01*
X902817Y-1418996D01*
X889000Y-1418132D01*
X875182Y-1418996D01*
X861618Y-1421739D01*
X848461Y-1426159D01*
X836066Y-1432306D01*
X824534Y-1439976D01*
X814120Y-1449120D01*
X804976Y-1459534D01*
X797306Y-1471066D01*
X791159Y-1483461D01*
X786739Y-1496568D01*
X784047Y-1510182D01*
X783132Y-1524000D01*
X784047Y-1537817D01*
X786739Y-1551381D01*
X791159Y-1564538D01*
X797306Y-1576933D01*
X804976Y-1588465D01*
X814120Y-1598879D01*
X824534Y-1608023D01*
X836066Y-1615694D01*
X848461Y-1621840D01*
X861618Y-1626260D01*
X875182Y-1628952D01*
G37*
G36*
X3175000Y-1629867D02*
G01*
X3188817Y-1628952D01*
X3202381Y-1626260D01*
X3215538Y-1621840D01*
X3227933Y-1615694D01*
X3239465Y-1608023D01*
X3249879Y-1598879D01*
X3259023Y-1588465D01*
X3266694Y-1576933D01*
X3272840Y-1564538D01*
X3277260Y-1551381D01*
X3279952Y-1537817D01*
X3280867Y-1524000D01*
X3279952Y-1510182D01*
X3277260Y-1496568D01*
X3272840Y-1483461D01*
X3266694Y-1471066D01*
X3259023Y-1459534D01*
X3249879Y-1449120D01*
X3239465Y-1439976D01*
X3227933Y-1432306D01*
X3215538Y-1426159D01*
X3202381Y-1421739D01*
X3188817Y-1418996D01*
X3175000Y-1418132D01*
X3161182Y-1418996D01*
X3147568Y-1421739D01*
X3134461Y-1426159D01*
X3122066Y-1432306D01*
X3110534Y-1439976D01*
X3100120Y-1449120D01*
X3090976Y-1459534D01*
X3083306Y-1471066D01*
X3077159Y-1483461D01*
X3072739Y-1496568D01*
X3069996Y-1510182D01*
X3069132Y-1524000D01*
X3069996Y-1537817D01*
X3072739Y-1551381D01*
X3077159Y-1564538D01*
X3083306Y-1576933D01*
X3090976Y-1588465D01*
X3100120Y-1598879D01*
X3110534Y-1608023D01*
X3122066Y-1615694D01*
X3134461Y-1621840D01*
X3147568Y-1626260D01*
X3161182Y-1628952D01*
G37*
G36*
X2138172Y-1584248D02*
G01*
X2152243Y-1583791D01*
X2166112Y-1581556D01*
X2179574Y-1577543D01*
X2192426Y-1571853D01*
X2204466Y-1564589D01*
X2215438Y-1555800D01*
X2225243Y-1545691D01*
X2233625Y-1534464D01*
X2240534Y-1522222D01*
X2245817Y-1509166D01*
X2249373Y-1495552D01*
X2251202Y-1481632D01*
X2251202Y-1467561D01*
X2249373Y-1453642D01*
X2245817Y-1440027D01*
X2240534Y-1426972D01*
X2233625Y-1414729D01*
X2225243Y-1403502D01*
X2215438Y-1393393D01*
X2204466Y-1384604D01*
X2192426Y-1377340D01*
X2179574Y-1371650D01*
X2166112Y-1367637D01*
X2152243Y-1365402D01*
X2138172Y-1364945D01*
X2124202Y-1366316D01*
X2110486Y-1369415D01*
X2097278Y-1374292D01*
X2084832Y-1380794D01*
X2073300Y-1388821D01*
X2062886Y-1398270D01*
X2053793Y-1408988D01*
X2046122Y-1420774D01*
X2040026Y-1433423D01*
X2035606Y-1446784D01*
X2032914Y-1460550D01*
X2032000Y-1474622D01*
X2032914Y-1488643D01*
X2035606Y-1502410D01*
X2040026Y-1515770D01*
X2046122Y-1528419D01*
X2053793Y-1540205D01*
X2062886Y-1550924D01*
X2073300Y-1560372D01*
X2084832Y-1568399D01*
X2097278Y-1574901D01*
X2110486Y-1579778D01*
X2124202Y-1582877D01*
G37*
G36*
X889000Y-1375867D02*
G01*
X902817Y-1374952D01*
X916432Y-1372260D01*
X929538Y-1367840D01*
X941933Y-1361694D01*
X953465Y-1354023D01*
X963879Y-1344879D01*
X973023Y-1334465D01*
X980694Y-1322933D01*
X986840Y-1310538D01*
X991260Y-1297381D01*
X994003Y-1283817D01*
X994867Y-1270000D01*
X994003Y-1256182D01*
X991260Y-1242568D01*
X986840Y-1229461D01*
X980694Y-1217066D01*
X973023Y-1205534D01*
X963879Y-1195120D01*
X953465Y-1185976D01*
X941933Y-1178306D01*
X929538Y-1172159D01*
X916432Y-1167739D01*
X902817Y-1164996D01*
X889000Y-1164132D01*
X875182Y-1164996D01*
X861618Y-1167739D01*
X848461Y-1172159D01*
X836066Y-1178306D01*
X824534Y-1185976D01*
X814120Y-1195120D01*
X804976Y-1205534D01*
X797306Y-1217066D01*
X791159Y-1229461D01*
X786739Y-1242568D01*
X784047Y-1256182D01*
X783132Y-1270000D01*
X784047Y-1283817D01*
X786739Y-1297381D01*
X791159Y-1310538D01*
X797306Y-1322933D01*
X804976Y-1334465D01*
X814120Y-1344879D01*
X824534Y-1354023D01*
X836066Y-1361694D01*
X848461Y-1367840D01*
X861618Y-1372260D01*
X875182Y-1374952D01*
G37*
G36*
X3175000Y-1375867D02*
G01*
X3188817Y-1374952D01*
X3202381Y-1372260D01*
X3215538Y-1367840D01*
X3227933Y-1361694D01*
X3239465Y-1354023D01*
X3249879Y-1344879D01*
X3259023Y-1334465D01*
X3266694Y-1322933D01*
X3272840Y-1310538D01*
X3277260Y-1297381D01*
X3279952Y-1283817D01*
X3280867Y-1270000D01*
X3279952Y-1256182D01*
X3277260Y-1242568D01*
X3272840Y-1229461D01*
X3266694Y-1217066D01*
X3259023Y-1205534D01*
X3249879Y-1195120D01*
X3239465Y-1185976D01*
X3227933Y-1178306D01*
X3215538Y-1172159D01*
X3202381Y-1167739D01*
X3188817Y-1164996D01*
X3175000Y-1164132D01*
X3161182Y-1164996D01*
X3147568Y-1167739D01*
X3134461Y-1172159D01*
X3122066Y-1178306D01*
X3110534Y-1185976D01*
X3100120Y-1195120D01*
X3090976Y-1205534D01*
X3083306Y-1217066D01*
X3077159Y-1229461D01*
X3072739Y-1242568D01*
X3069996Y-1256182D01*
X3069132Y-1270000D01*
X3069996Y-1283817D01*
X3072739Y-1297381D01*
X3077159Y-1310538D01*
X3083306Y-1322933D01*
X3090976Y-1334465D01*
X3100120Y-1344879D01*
X3110534Y-1354023D01*
X3122066Y-1361694D01*
X3134461Y-1367840D01*
X3147568Y-1372260D01*
X3161182Y-1374952D01*
G37*
G36*
X2138172Y-1330248D02*
G01*
X2152243Y-1329791D01*
X2166112Y-1327556D01*
X2179574Y-1323543D01*
X2192426Y-1317853D01*
X2204466Y-1310589D01*
X2215438Y-1301800D01*
X2225243Y-1291691D01*
X2233625Y-1280464D01*
X2240534Y-1268222D01*
X2245817Y-1255166D01*
X2249373Y-1241552D01*
X2251202Y-1227632D01*
X2251202Y-1213561D01*
X2249373Y-1199642D01*
X2245817Y-1186027D01*
X2240534Y-1172972D01*
X2233625Y-1160729D01*
X2225243Y-1149502D01*
X2215438Y-1139393D01*
X2204466Y-1130604D01*
X2192426Y-1123340D01*
X2179574Y-1117650D01*
X2166112Y-1113637D01*
X2152243Y-1111402D01*
X2138172Y-1110945D01*
X2124202Y-1112316D01*
X2110486Y-1115415D01*
X2097278Y-1120292D01*
X2084832Y-1126794D01*
X2073300Y-1134821D01*
X2062886Y-1144270D01*
X2053793Y-1154988D01*
X2046122Y-1166774D01*
X2040026Y-1179423D01*
X2035606Y-1192784D01*
X2032914Y-1206550D01*
X2032000Y-1220622D01*
X2032914Y-1234643D01*
X2035606Y-1248410D01*
X2040026Y-1261770D01*
X2046122Y-1274419D01*
X2053793Y-1286205D01*
X2062886Y-1296924D01*
X2073300Y-1306372D01*
X2084832Y-1314399D01*
X2097278Y-1320901D01*
X2110486Y-1325778D01*
X2124202Y-1328877D01*
G37*
G36*
X889000Y-1121867D02*
G01*
X902817Y-1120952D01*
X916432Y-1118260D01*
X929538Y-1113840D01*
X941933Y-1107694D01*
X953465Y-1100023D01*
X963879Y-1090879D01*
X973023Y-1080465D01*
X980694Y-1068933D01*
X986840Y-1056538D01*
X991260Y-1043381D01*
X994003Y-1029817D01*
X994867Y-1016000D01*
X994003Y-1002182D01*
X991260Y-988568D01*
X986840Y-975461D01*
X980694Y-963066D01*
X973023Y-951534D01*
X963879Y-941120D01*
X953465Y-931976D01*
X941933Y-924306D01*
X929538Y-918159D01*
X916432Y-913739D01*
X902817Y-910996D01*
X889000Y-910132D01*
X875182Y-910996D01*
X861618Y-913739D01*
X848461Y-918159D01*
X836066Y-924306D01*
X824534Y-931976D01*
X814120Y-941120D01*
X804976Y-951534D01*
X797306Y-963066D01*
X791159Y-975461D01*
X786739Y-988568D01*
X784047Y-1002182D01*
X783132Y-1016000D01*
X784047Y-1029817D01*
X786739Y-1043381D01*
X791159Y-1056538D01*
X797306Y-1068933D01*
X804976Y-1080465D01*
X814120Y-1090879D01*
X824534Y-1100023D01*
X836066Y-1107694D01*
X848461Y-1113840D01*
X861618Y-1118260D01*
X875182Y-1120952D01*
G37*
G36*
X3175000Y-1121867D02*
G01*
X3188817Y-1120952D01*
X3202381Y-1118260D01*
X3215538Y-1113840D01*
X3227933Y-1107694D01*
X3239465Y-1100023D01*
X3249879Y-1090879D01*
X3259023Y-1080465D01*
X3266694Y-1068933D01*
X3272840Y-1056538D01*
X3277260Y-1043381D01*
X3279952Y-1029817D01*
X3280867Y-1016000D01*
X3279952Y-1002182D01*
X3277260Y-988568D01*
X3272840Y-975461D01*
X3266694Y-963066D01*
X3259023Y-951534D01*
X3249879Y-941120D01*
X3239465Y-931976D01*
X3227933Y-924306D01*
X3215538Y-918159D01*
X3202381Y-913739D01*
X3188817Y-910996D01*
X3175000Y-910132D01*
X3161182Y-910996D01*
X3147568Y-913739D01*
X3134461Y-918159D01*
X3122066Y-924306D01*
X3110534Y-931976D01*
X3100120Y-941120D01*
X3090976Y-951534D01*
X3083306Y-963066D01*
X3077159Y-975461D01*
X3072739Y-988568D01*
X3069996Y-1002182D01*
X3069132Y-1016000D01*
X3069996Y-1029817D01*
X3072739Y-1043381D01*
X3077159Y-1056538D01*
X3083306Y-1068933D01*
X3090976Y-1080465D01*
X3100120Y-1090879D01*
X3110534Y-1100023D01*
X3122066Y-1107694D01*
X3134461Y-1113840D01*
X3147568Y-1118260D01*
X3161182Y-1120952D01*
G37*
G36*
X2138172Y-1076248D02*
G01*
X2152243Y-1075791D01*
X2166112Y-1073556D01*
X2179574Y-1069543D01*
X2192426Y-1063853D01*
X2204466Y-1056589D01*
X2215438Y-1047800D01*
X2225243Y-1037691D01*
X2233625Y-1026464D01*
X2240534Y-1014221D01*
X2245817Y-1001166D01*
X2249373Y-987552D01*
X2251202Y-973632D01*
X2251202Y-959561D01*
X2249373Y-945642D01*
X2245817Y-932027D01*
X2240534Y-918971D01*
X2233625Y-906729D01*
X2225243Y-895502D01*
X2215438Y-885393D01*
X2204466Y-876604D01*
X2192426Y-869340D01*
X2179574Y-863650D01*
X2166112Y-859637D01*
X2152243Y-857402D01*
X2138172Y-856945D01*
X2124202Y-858316D01*
X2110486Y-861415D01*
X2097278Y-866292D01*
X2084832Y-872794D01*
X2073300Y-880821D01*
X2062886Y-890269D01*
X2053793Y-900988D01*
X2046122Y-912774D01*
X2040026Y-925423D01*
X2035606Y-938784D01*
X2032914Y-952550D01*
X2032000Y-966622D01*
X2032914Y-980643D01*
X2035606Y-994410D01*
X2040026Y-1007770D01*
X2046122Y-1020419D01*
X2053793Y-1032205D01*
X2062886Y-1042924D01*
X2073300Y-1052372D01*
X2084832Y-1060399D01*
X2097278Y-1066901D01*
X2110486Y-1071778D01*
X2124202Y-1074877D01*
G37*
G36*
X889000Y-867867D02*
G01*
X902817Y-866952D01*
X916432Y-864260D01*
X929538Y-859840D01*
X941933Y-853694D01*
X953465Y-846023D01*
X963879Y-836879D01*
X973023Y-826465D01*
X980694Y-814933D01*
X986840Y-802538D01*
X991260Y-789381D01*
X994003Y-775817D01*
X994867Y-762000D01*
X994003Y-748182D01*
X991260Y-734568D01*
X986840Y-721461D01*
X980694Y-709066D01*
X973023Y-697534D01*
X963879Y-687120D01*
X953465Y-677976D01*
X941933Y-670306D01*
X929538Y-664159D01*
X916432Y-659739D01*
X902817Y-656996D01*
X889000Y-656132D01*
X875182Y-656996D01*
X861618Y-659739D01*
X848461Y-664159D01*
X836066Y-670306D01*
X824534Y-677976D01*
X814120Y-687120D01*
X804976Y-697534D01*
X797306Y-709066D01*
X791159Y-721461D01*
X786739Y-734568D01*
X784047Y-748182D01*
X783132Y-762000D01*
X784047Y-775817D01*
X786739Y-789381D01*
X791159Y-802538D01*
X797306Y-814933D01*
X804976Y-826465D01*
X814120Y-836879D01*
X824534Y-846023D01*
X836066Y-853694D01*
X848461Y-859840D01*
X861618Y-864260D01*
X875182Y-866952D01*
G37*
G36*
X3175000Y-867867D02*
G01*
X3188817Y-866952D01*
X3202381Y-864260D01*
X3215538Y-859840D01*
X3227933Y-853694D01*
X3239465Y-846023D01*
X3249879Y-836879D01*
X3259023Y-826465D01*
X3266694Y-814933D01*
X3272840Y-802538D01*
X3277260Y-789381D01*
X3279952Y-775817D01*
X3280867Y-762000D01*
X3279952Y-748182D01*
X3277260Y-734568D01*
X3272840Y-721461D01*
X3266694Y-709066D01*
X3259023Y-697534D01*
X3249879Y-687120D01*
X3239465Y-677976D01*
X3227933Y-670306D01*
X3215538Y-664159D01*
X3202381Y-659739D01*
X3188817Y-656996D01*
X3175000Y-656132D01*
X3161182Y-656996D01*
X3147568Y-659739D01*
X3134461Y-664159D01*
X3122066Y-670306D01*
X3110534Y-677976D01*
X3100120Y-687120D01*
X3090976Y-697534D01*
X3083306Y-709066D01*
X3077159Y-721461D01*
X3072739Y-734568D01*
X3069996Y-748182D01*
X3069132Y-762000D01*
X3069996Y-775817D01*
X3072739Y-789381D01*
X3077159Y-802538D01*
X3083306Y-814933D01*
X3090976Y-826465D01*
X3100120Y-836879D01*
X3110534Y-846023D01*
X3122066Y-853694D01*
X3134461Y-859840D01*
X3147568Y-864260D01*
X3161182Y-866952D01*
G37*
G36*
X2189988Y-810971D02*
G01*
X2192426Y-809853D01*
X2204466Y-802589D01*
X2215438Y-793800D01*
X2225243Y-783691D01*
X2233625Y-772464D01*
X2240178Y-760882D01*
X2189988Y-760882D01*
G37*
G36*
X2093468Y-810920D02*
G01*
X2093468Y-760882D01*
X2043430Y-760882D01*
X2046122Y-766419D01*
X2053793Y-778205D01*
X2062886Y-788924D01*
X2073300Y-798372D01*
X2084832Y-806399D01*
G37*
G36*
X2043430Y-664362D02*
G01*
X2093468Y-664362D01*
X2093468Y-614273D01*
X2084832Y-618794D01*
X2073300Y-626821D01*
X2062886Y-636270D01*
X2053793Y-646988D01*
X2046122Y-658774D01*
G37*
G36*
X2189988Y-664362D02*
G01*
X2240178Y-664362D01*
X2233625Y-652729D01*
X2225243Y-641502D01*
X2215438Y-631393D01*
X2204466Y-622604D01*
X2192426Y-615340D01*
X2189988Y-614222D01*
G37*
G36*
X889000Y-613867D02*
G01*
X902817Y-612952D01*
X916432Y-610260D01*
X929538Y-605840D01*
X941933Y-599694D01*
X953465Y-592023D01*
X963879Y-582879D01*
X973023Y-572465D01*
X980694Y-560933D01*
X986840Y-548538D01*
X991260Y-535381D01*
X994003Y-521817D01*
X994867Y-508000D01*
X994003Y-494182D01*
X991260Y-480568D01*
X986840Y-467461D01*
X980694Y-455066D01*
X973023Y-443534D01*
X963879Y-433120D01*
X953465Y-423976D01*
X941933Y-416306D01*
X929538Y-410159D01*
X916432Y-405739D01*
X902817Y-402996D01*
X889000Y-402132D01*
X875182Y-402996D01*
X861618Y-405739D01*
X848461Y-410159D01*
X836066Y-416306D01*
X824534Y-423976D01*
X814120Y-433120D01*
X804976Y-443534D01*
X797306Y-455066D01*
X791159Y-467461D01*
X786739Y-480568D01*
X784047Y-494182D01*
X783132Y-508000D01*
X784047Y-521817D01*
X786739Y-535381D01*
X791159Y-548538D01*
X797306Y-560933D01*
X804976Y-572465D01*
X814120Y-582879D01*
X824534Y-592023D01*
X836066Y-599694D01*
X848461Y-605840D01*
X861618Y-610260D01*
X875182Y-612952D01*
G37*
G36*
X3175000Y-613867D02*
G01*
X3188817Y-612952D01*
X3202381Y-610260D01*
X3215538Y-605840D01*
X3227933Y-599694D01*
X3239465Y-592023D01*
X3249879Y-582879D01*
X3259023Y-572465D01*
X3266694Y-560933D01*
X3272840Y-548538D01*
X3277260Y-535381D01*
X3279952Y-521817D01*
X3280867Y-508000D01*
X3279952Y-494182D01*
X3277260Y-480568D01*
X3272840Y-467461D01*
X3266694Y-455066D01*
X3259023Y-443534D01*
X3249879Y-433120D01*
X3239465Y-423976D01*
X3227933Y-416306D01*
X3215538Y-410159D01*
X3202381Y-405739D01*
X3188817Y-402996D01*
X3175000Y-402132D01*
X3161182Y-402996D01*
X3147568Y-405739D01*
X3134461Y-410159D01*
X3122066Y-416306D01*
X3110534Y-423976D01*
X3100120Y-433120D01*
X3090976Y-443534D01*
X3083306Y-455066D01*
X3077159Y-467461D01*
X3072739Y-480568D01*
X3069996Y-494182D01*
X3069132Y-508000D01*
X3069996Y-521817D01*
X3072739Y-535381D01*
X3077159Y-548538D01*
X3083306Y-560933D01*
X3090976Y-572465D01*
X3100120Y-582879D01*
X3110534Y-592023D01*
X3122066Y-599694D01*
X3134461Y-605840D01*
X3147568Y-610260D01*
X3161182Y-612952D01*
G37*
G36*
X2839415Y-571093D02*
G01*
X2852318Y-570230D01*
X2865018Y-567740D01*
X2877261Y-563575D01*
X2888843Y-557885D01*
X2899562Y-550672D01*
X2909316Y-542188D01*
X2917799Y-532434D01*
X2925013Y-521716D01*
X2930702Y-510133D01*
X2934868Y-497890D01*
X2937357Y-485190D01*
X2938272Y-471982D01*
X2938272Y-326847D01*
X2937357Y-313639D01*
X2934868Y-300939D01*
X2930702Y-288696D01*
X2925013Y-277114D01*
X2917799Y-266395D01*
X2909316Y-256641D01*
X2899562Y-248158D01*
X2888843Y-240944D01*
X2877261Y-235254D01*
X2865018Y-231089D01*
X2852318Y-228600D01*
X2839415Y-227736D01*
X2826562Y-228600D01*
X2813862Y-231089D01*
X2801620Y-235254D01*
X2790037Y-240944D01*
X2779318Y-248158D01*
X2769565Y-256641D01*
X2761081Y-266395D01*
X2753868Y-277114D01*
X2748178Y-288696D01*
X2744012Y-300939D01*
X2741523Y-313639D01*
X2740660Y-326847D01*
X2740660Y-471982D01*
X2741523Y-485190D01*
X2744012Y-497890D01*
X2748178Y-510133D01*
X2753868Y-521716D01*
X2761081Y-532434D01*
X2769565Y-542188D01*
X2779318Y-550672D01*
X2790037Y-557885D01*
X2801620Y-563575D01*
X2813862Y-567740D01*
X2826562Y-570230D01*
G37*
G36*
X3539439Y-571093D02*
G01*
X3552342Y-570230D01*
X3564991Y-567740D01*
X3577234Y-563575D01*
X3588816Y-557885D01*
X3599586Y-550672D01*
X3609289Y-542188D01*
X3617823Y-532434D01*
X3624986Y-521716D01*
X3630726Y-510133D01*
X3634841Y-497890D01*
X3637381Y-485190D01*
X3638245Y-471982D01*
X3638245Y-326847D01*
X3637381Y-313639D01*
X3634841Y-300939D01*
X3630726Y-288696D01*
X3624986Y-277114D01*
X3617823Y-266395D01*
X3609289Y-256641D01*
X3599586Y-248158D01*
X3588816Y-240944D01*
X3577234Y-235254D01*
X3564991Y-231089D01*
X3552342Y-228600D01*
X3539439Y-227736D01*
X3526536Y-228600D01*
X3513886Y-231089D01*
X3501644Y-235254D01*
X3490061Y-240944D01*
X3479292Y-248158D01*
X3469589Y-256641D01*
X3461054Y-266395D01*
X3453892Y-277114D01*
X3448151Y-288696D01*
X3444036Y-300939D01*
X3441496Y-313639D01*
X3440633Y-326847D01*
X3440633Y-471982D01*
X3441496Y-485190D01*
X3444036Y-497890D01*
X3448151Y-510133D01*
X3453892Y-521716D01*
X3461054Y-532434D01*
X3469589Y-542188D01*
X3479292Y-550672D01*
X3490061Y-557885D01*
X3501644Y-563575D01*
X3513886Y-567740D01*
X3526536Y-570230D01*
G37*
G36*
X2138172Y-568248D02*
G01*
X2152243Y-567791D01*
X2166112Y-565556D01*
X2179574Y-561543D01*
X2192426Y-555853D01*
X2204466Y-548589D01*
X2215438Y-539800D01*
X2225243Y-529691D01*
X2233625Y-518464D01*
X2240534Y-506222D01*
X2245817Y-493166D01*
X2249373Y-479551D01*
X2251202Y-465632D01*
X2251202Y-451561D01*
X2249373Y-437642D01*
X2245817Y-424027D01*
X2240534Y-410972D01*
X2233625Y-398729D01*
X2225243Y-387502D01*
X2215438Y-377393D01*
X2204466Y-368604D01*
X2192426Y-361340D01*
X2179574Y-355650D01*
X2166112Y-351637D01*
X2152243Y-349402D01*
X2138172Y-348945D01*
X2124202Y-350316D01*
X2110486Y-353415D01*
X2097278Y-358292D01*
X2084832Y-364794D01*
X2073300Y-372821D01*
X2062886Y-382270D01*
X2053793Y-392988D01*
X2046122Y-404774D01*
X2040026Y-417423D01*
X2035606Y-430784D01*
X2032914Y-444550D01*
X2032000Y-458622D01*
X2032914Y-472643D01*
X2035606Y-486409D01*
X2040026Y-499770D01*
X2046122Y-512419D01*
X2053793Y-524205D01*
X2062886Y-534924D01*
X2073300Y-544372D01*
X2084832Y-552399D01*
X2097278Y-558901D01*
X2110486Y-563778D01*
X2124202Y-566877D01*
G37*
G36*
X889000Y-359867D02*
G01*
X902817Y-359003D01*
X916432Y-356260D01*
X929538Y-351840D01*
X941933Y-345694D01*
X953465Y-338023D01*
X963879Y-328879D01*
X973023Y-318465D01*
X980694Y-306933D01*
X986840Y-294538D01*
X991260Y-281381D01*
X994003Y-267817D01*
X994867Y-254000D01*
X994003Y-240182D01*
X991260Y-226618D01*
X986840Y-213461D01*
X980694Y-201066D01*
X973023Y-189534D01*
X963879Y-179120D01*
X953465Y-169976D01*
X941933Y-162306D01*
X929538Y-156159D01*
X916432Y-151739D01*
X902817Y-148996D01*
X889000Y-148132D01*
X875182Y-148996D01*
X861618Y-151739D01*
X848461Y-156159D01*
X836066Y-162306D01*
X824534Y-169976D01*
X814120Y-179120D01*
X804976Y-189534D01*
X797306Y-201066D01*
X791159Y-213461D01*
X786739Y-226618D01*
X784047Y-240182D01*
X783132Y-254000D01*
X784047Y-267817D01*
X786739Y-281381D01*
X791159Y-294538D01*
X797306Y-306933D01*
X804976Y-318465D01*
X814120Y-328879D01*
X824534Y-338023D01*
X836066Y-345694D01*
X848461Y-351840D01*
X861618Y-356260D01*
X875182Y-359003D01*
G37*
G36*
X3175000Y-359867D02*
G01*
X3188817Y-359003D01*
X3202381Y-356260D01*
X3215538Y-351840D01*
X3227933Y-345694D01*
X3239465Y-338023D01*
X3249879Y-328879D01*
X3259023Y-318465D01*
X3266694Y-306933D01*
X3272840Y-294538D01*
X3277260Y-281381D01*
X3279952Y-267817D01*
X3280867Y-254000D01*
X3279952Y-240182D01*
X3277260Y-226618D01*
X3272840Y-213461D01*
X3266694Y-201066D01*
X3259023Y-189534D01*
X3249879Y-179120D01*
X3239465Y-169976D01*
X3227933Y-162306D01*
X3215538Y-156159D01*
X3202381Y-151739D01*
X3188817Y-148996D01*
X3175000Y-148132D01*
X3161182Y-148996D01*
X3147568Y-151739D01*
X3134461Y-156159D01*
X3122066Y-162306D01*
X3110534Y-169976D01*
X3100120Y-179120D01*
X3090976Y-189534D01*
X3083306Y-201066D01*
X3077159Y-213461D01*
X3072739Y-226618D01*
X3069996Y-240182D01*
X3069132Y-254000D01*
X3069996Y-267817D01*
X3072739Y-281381D01*
X3077159Y-294538D01*
X3083306Y-306933D01*
X3090976Y-318465D01*
X3100120Y-328879D01*
X3110534Y-338023D01*
X3122066Y-345694D01*
X3134461Y-351840D01*
X3147568Y-356260D01*
X3161182Y-359003D01*
G37*
G36*
X3841648Y-320040D02*
G01*
X3860749Y-319532D01*
X3879748Y-317195D01*
X3898392Y-312928D01*
X3916476Y-306832D01*
X3933901Y-298958D01*
X3950462Y-289407D01*
X3965956Y-278282D01*
X3980281Y-265633D01*
X3993286Y-251612D01*
X4004818Y-236372D01*
X4014774Y-220065D01*
X4023106Y-202844D01*
X4029608Y-184912D01*
X4034332Y-166370D01*
X4037177Y-147472D01*
X4038142Y-128422D01*
X4037177Y-109321D01*
X4034332Y-90424D01*
X4029608Y-71882D01*
X4023106Y-53949D01*
X4014774Y-36728D01*
X4004818Y-20421D01*
X3993286Y-5181D01*
X3980281Y8839D01*
X3965956Y21488D01*
X3950462Y32613D01*
X3933901Y42164D01*
X3916476Y50038D01*
X3898392Y56134D01*
X3879748Y60401D01*
X3860749Y62738D01*
X3841648Y63246D01*
X3822598Y61823D01*
X3803802Y58470D01*
X3785412Y53340D01*
X3767632Y46329D01*
X3750614Y37592D01*
X3734562Y27228D01*
X3719626Y15341D01*
X3705910Y1981D01*
X3693668Y-12649D01*
X3682898Y-28448D01*
X3673754Y-45212D01*
X3666337Y-62839D01*
X3660698Y-81076D01*
X3656888Y-99822D01*
X3655009Y-118821D01*
X3655009Y-137972D01*
X3656888Y-156972D01*
X3660698Y-175717D01*
X3666337Y-193954D01*
X3673754Y-211582D01*
X3682898Y-228346D01*
X3693668Y-244144D01*
X3705910Y-258775D01*
X3719626Y-272135D01*
X3734562Y-284022D01*
X3750614Y-294386D01*
X3767632Y-303123D01*
X3785412Y-310134D01*
X3803802Y-315264D01*
X3822598Y-318617D01*
G37*
G36*
X2537256Y-320040D02*
G01*
X2556306Y-318617D01*
X2575102Y-315264D01*
X2593492Y-310134D01*
X2611272Y-303123D01*
X2628290Y-294386D01*
X2644343Y-284022D01*
X2659278Y-272135D01*
X2672994Y-258775D01*
X2685237Y-244144D01*
X2696006Y-228346D01*
X2705150Y-211582D01*
X2712567Y-193954D01*
X2718206Y-175717D01*
X2722016Y-156972D01*
X2723896Y-137972D01*
X2723896Y-118821D01*
X2722016Y-99822D01*
X2718206Y-81076D01*
X2712567Y-62839D01*
X2705150Y-45212D01*
X2696006Y-28448D01*
X2685237Y-12649D01*
X2672994Y1981D01*
X2659278Y15341D01*
X2644343Y27228D01*
X2628290Y37592D01*
X2611272Y46329D01*
X2593492Y53340D01*
X2575102Y58470D01*
X2556306Y61823D01*
X2537256Y63246D01*
X2518156Y62738D01*
X2499156Y60401D01*
X2480513Y56134D01*
X2462428Y50038D01*
X2445004Y42164D01*
X2428443Y32613D01*
X2412949Y21488D01*
X2398623Y8839D01*
X2385618Y-5181D01*
X2374087Y-20421D01*
X2364130Y-36728D01*
X2355799Y-53949D01*
X2349296Y-71882D01*
X2344572Y-90424D01*
X2341727Y-109321D01*
X2340762Y-128422D01*
X2341727Y-147472D01*
X2344572Y-166370D01*
X2349296Y-184912D01*
X2355799Y-202844D01*
X2364130Y-220065D01*
X2374087Y-236372D01*
X2385618Y-251612D01*
X2398623Y-265633D01*
X2412949Y-278282D01*
X2428443Y-289407D01*
X2445004Y-298958D01*
X2462428Y-306832D01*
X2480513Y-312928D01*
X2499156Y-317195D01*
X2518156Y-319532D01*
G37*
G36*
X889000Y-105867D02*
G01*
X902817Y-105003D01*
X916432Y-102260D01*
X929538Y-97840D01*
X941933Y-91694D01*
X953465Y-84023D01*
X963879Y-74879D01*
X973023Y-64465D01*
X980694Y-52933D01*
X986840Y-40538D01*
X991260Y-27381D01*
X994003Y-13817D01*
X994867Y0D01*
X994003Y13817D01*
X991260Y27381D01*
X986840Y40538D01*
X980694Y52933D01*
X973023Y64465D01*
X963879Y74879D01*
X953465Y84023D01*
X941933Y91694D01*
X929538Y97840D01*
X916432Y102260D01*
X902817Y105003D01*
X889000Y105867D01*
X875182Y105003D01*
X861618Y102260D01*
X848461Y97840D01*
X836066Y91694D01*
X824534Y84023D01*
X814120Y74879D01*
X804976Y64465D01*
X797306Y52933D01*
X791159Y40538D01*
X786739Y27381D01*
X784047Y13817D01*
X783132Y0D01*
X784047Y-13817D01*
X786739Y-27381D01*
X791159Y-40538D01*
X797306Y-52933D01*
X804976Y-64465D01*
X814120Y-74879D01*
X824534Y-84023D01*
X836066Y-91694D01*
X848461Y-97840D01*
X861618Y-102260D01*
X875182Y-105003D01*
G37*
G36*
X3175000Y-105867D02*
G01*
X3188817Y-105003D01*
X3202381Y-102260D01*
X3215538Y-97840D01*
X3227933Y-91694D01*
X3239465Y-84023D01*
X3249879Y-74879D01*
X3259023Y-64465D01*
X3266694Y-52933D01*
X3272840Y-40538D01*
X3277260Y-27381D01*
X3279952Y-13817D01*
X3280867Y0D01*
X3279952Y13817D01*
X3277260Y27381D01*
X3272840Y40538D01*
X3266694Y52933D01*
X3259023Y64465D01*
X3249879Y74879D01*
X3239465Y84023D01*
X3227933Y91694D01*
X3215538Y97840D01*
X3202381Y102260D01*
X3188817Y105003D01*
X3175000Y105867D01*
X3161182Y105003D01*
X3147568Y102260D01*
X3134461Y97840D01*
X3122066Y91694D01*
X3110534Y84023D01*
X3100120Y74879D01*
X3090976Y64465D01*
X3083306Y52933D01*
X3077159Y40538D01*
X3072739Y27381D01*
X3069996Y13817D01*
X3069132Y0D01*
X3069996Y-13817D01*
X3072739Y-27381D01*
X3077159Y-40538D01*
X3083306Y-52933D01*
X3090976Y-64465D01*
X3100120Y-74879D01*
X3110534Y-84023D01*
X3122066Y-91694D01*
X3134461Y-97840D01*
X3147568Y-102260D01*
X3161182Y-105003D01*
G37*
G36*
X889000Y148132D02*
G01*
X902817Y148996D01*
X916432Y151739D01*
X929538Y156159D01*
X941933Y162306D01*
X953465Y169976D01*
X963879Y179120D01*
X973023Y189534D01*
X980694Y201066D01*
X986840Y213461D01*
X991260Y226618D01*
X994003Y240182D01*
X994867Y254000D01*
X994003Y267817D01*
X991260Y281381D01*
X986840Y294538D01*
X980694Y306933D01*
X973023Y318465D01*
X963879Y328879D01*
X953465Y338023D01*
X941933Y345694D01*
X929538Y351840D01*
X916432Y356260D01*
X902817Y359003D01*
X889000Y359867D01*
X875182Y359003D01*
X861618Y356260D01*
X848461Y351840D01*
X836066Y345694D01*
X824534Y338023D01*
X814120Y328879D01*
X804976Y318465D01*
X797306Y306933D01*
X791159Y294538D01*
X786739Y281381D01*
X784047Y267817D01*
X783132Y254000D01*
X784047Y240182D01*
X786739Y226618D01*
X791159Y213461D01*
X797306Y201066D01*
X804976Y189534D01*
X814120Y179120D01*
X824534Y169976D01*
X836066Y162306D01*
X848461Y156159D01*
X861618Y151739D01*
X875182Y148996D01*
G37*
G36*
X3175000Y148132D02*
G01*
X3188817Y148996D01*
X3202381Y151739D01*
X3215538Y156159D01*
X3227933Y162306D01*
X3239465Y169976D01*
X3249879Y179120D01*
X3259023Y189534D01*
X3266694Y201066D01*
X3272840Y213461D01*
X3277260Y226618D01*
X3279952Y240182D01*
X3280867Y254000D01*
X3279952Y267817D01*
X3277260Y281381D01*
X3272840Y294538D01*
X3266694Y306933D01*
X3259023Y318465D01*
X3249879Y328879D01*
X3239465Y338023D01*
X3227933Y345694D01*
X3215538Y351840D01*
X3202381Y356260D01*
X3188817Y359003D01*
X3175000Y359867D01*
X3161182Y359003D01*
X3147568Y356260D01*
X3134461Y351840D01*
X3122066Y345694D01*
X3110534Y338023D01*
X3100120Y328879D01*
X3090976Y318465D01*
X3083306Y306933D01*
X3077159Y294538D01*
X3072739Y281381D01*
X3069996Y267817D01*
X3069132Y254000D01*
X3069996Y240182D01*
X3072739Y226618D01*
X3077159Y213461D01*
X3083306Y201066D01*
X3090976Y189534D01*
X3100120Y179120D01*
X3110534Y169976D01*
X3122066Y162306D01*
X3134461Y156159D01*
X3147568Y151739D01*
X3161182Y148996D01*
G37*
G36*
X4060596Y278993D02*
G01*
X4074210Y279400D01*
X4087672Y281686D01*
X4100677Y285750D01*
X4113072Y291490D01*
X4124553Y298805D01*
X4134967Y307594D01*
X4144111Y317754D01*
X4151833Y328980D01*
X4157979Y341122D01*
X4162450Y354025D01*
X4165193Y367385D01*
X4166108Y381000D01*
X4165193Y394614D01*
X4162450Y407974D01*
X4157979Y420827D01*
X4151833Y433019D01*
X4144111Y444246D01*
X4134967Y454355D01*
X4124553Y463194D01*
X4113072Y470509D01*
X4100677Y476250D01*
X4087672Y480314D01*
X4074210Y482549D01*
X4060596Y483006D01*
X4047032Y481685D01*
X4033774Y478485D01*
X4021023Y473608D01*
X4009085Y467055D01*
X3998112Y458978D01*
X3988308Y449478D01*
X3979824Y438759D01*
X3972864Y427024D01*
X3967581Y414477D01*
X3963974Y401320D01*
X3962146Y387807D01*
X3962146Y374192D01*
X3963974Y360680D01*
X3967581Y347522D01*
X3972864Y334975D01*
X3979824Y323240D01*
X3988308Y312521D01*
X3998112Y303022D01*
X4009085Y294944D01*
X4021023Y288391D01*
X4033774Y283514D01*
X4047032Y280314D01*
G37*
G36*
X889000Y402132D02*
G01*
X902817Y402996D01*
X916432Y405739D01*
X929538Y410159D01*
X941933Y416306D01*
X953465Y423976D01*
X963879Y433120D01*
X973023Y443534D01*
X980694Y455066D01*
X986840Y467461D01*
X991260Y480618D01*
X994003Y494182D01*
X994867Y508000D01*
X994003Y521817D01*
X991260Y535381D01*
X986840Y548538D01*
X980694Y560933D01*
X973023Y572465D01*
X963879Y582879D01*
X953465Y592023D01*
X941933Y599694D01*
X929538Y605840D01*
X916432Y610260D01*
X902817Y613003D01*
X889000Y613867D01*
X875182Y613003D01*
X861618Y610260D01*
X848461Y605840D01*
X836066Y599694D01*
X824534Y592023D01*
X814120Y582879D01*
X804976Y572465D01*
X797306Y560933D01*
X791159Y548538D01*
X786739Y535381D01*
X784047Y521817D01*
X783132Y508000D01*
X784047Y494182D01*
X786739Y480618D01*
X791159Y467461D01*
X797306Y455066D01*
X804976Y443534D01*
X814120Y433120D01*
X824534Y423976D01*
X836066Y416306D01*
X848461Y410159D01*
X861618Y405739D01*
X875182Y402996D01*
G37*
G36*
X3175000Y402132D02*
G01*
X3188817Y402996D01*
X3202381Y405739D01*
X3215538Y410159D01*
X3227933Y416306D01*
X3239465Y423976D01*
X3249879Y433120D01*
X3259023Y443534D01*
X3266694Y455066D01*
X3272840Y467461D01*
X3277260Y480618D01*
X3279952Y494182D01*
X3280867Y508000D01*
X3279952Y521817D01*
X3277260Y535381D01*
X3272840Y548538D01*
X3266694Y560933D01*
X3259023Y572465D01*
X3249879Y582879D01*
X3239465Y592023D01*
X3227933Y599694D01*
X3215538Y605840D01*
X3202381Y610260D01*
X3188817Y613003D01*
X3175000Y613867D01*
X3161182Y613003D01*
X3147568Y610260D01*
X3134461Y605840D01*
X3122066Y599694D01*
X3110534Y592023D01*
X3100120Y582879D01*
X3090976Y572465D01*
X3083306Y560933D01*
X3077159Y548538D01*
X3072739Y535381D01*
X3069996Y521817D01*
X3069132Y508000D01*
X3069996Y494182D01*
X3072739Y480618D01*
X3077159Y467461D01*
X3083306Y455066D01*
X3090976Y443534D01*
X3100120Y433120D01*
X3110534Y423976D01*
X3122066Y416306D01*
X3134461Y410159D01*
X3147568Y405739D01*
X3161182Y402996D01*
G37*
G36*
X2496159Y462584D02*
G01*
X2530500Y462584D01*
X2530500Y523392D01*
X2469692Y523392D01*
X2469692Y489051D01*
X2470404Y482752D01*
X2472334Y477266D01*
X2475382Y472389D01*
X2479497Y468274D01*
X2484374Y465226D01*
X2489860Y463296D01*
G37*
G36*
X2625699Y462584D02*
G01*
X2660040Y462584D01*
X2666339Y463296D01*
X2671826Y465226D01*
X2676702Y468274D01*
X2680817Y472389D01*
X2683865Y477266D01*
X2685796Y482752D01*
X2686507Y489051D01*
X2686507Y523392D01*
X2625699Y523392D01*
G37*
G36*
X2324100Y462584D02*
G01*
X2338222Y463550D01*
X2352141Y466293D01*
X2365552Y470865D01*
X2378303Y477113D01*
X2390089Y484987D01*
X2400757Y494334D01*
X2410104Y505002D01*
X2417978Y516788D01*
X2424226Y529539D01*
X2428798Y542950D01*
X2431542Y556869D01*
X2432507Y570992D01*
X2431542Y585114D01*
X2428798Y599033D01*
X2424226Y612444D01*
X2417978Y625195D01*
X2410104Y636981D01*
X2400757Y647649D01*
X2390089Y656996D01*
X2378303Y664870D01*
X2365552Y671118D01*
X2352141Y675690D01*
X2338222Y678434D01*
X2324100Y679399D01*
X2309977Y678434D01*
X2296058Y675690D01*
X2282647Y671118D01*
X2269896Y664870D01*
X2258110Y656996D01*
X2247442Y647649D01*
X2238095Y636981D01*
X2230221Y625195D01*
X2223973Y612444D01*
X2219401Y599033D01*
X2216658Y585114D01*
X2215692Y570992D01*
X2216658Y556869D01*
X2219401Y542950D01*
X2223973Y529539D01*
X2230221Y516788D01*
X2238095Y505002D01*
X2247442Y494334D01*
X2258110Y484987D01*
X2269896Y477113D01*
X2282647Y470865D01*
X2296058Y466293D01*
X2309977Y463550D01*
G37*
G36*
X1816354Y462838D02*
G01*
X1830476Y463804D01*
X1844395Y466547D01*
X1857806Y471119D01*
X1870557Y477367D01*
X1882343Y485241D01*
X1893011Y494588D01*
X1902358Y505256D01*
X1910232Y517042D01*
X1916480Y529793D01*
X1921052Y543204D01*
X1923796Y557123D01*
X1924761Y571246D01*
X1923796Y585368D01*
X1921052Y599287D01*
X1916480Y612698D01*
X1910232Y625449D01*
X1902358Y637235D01*
X1893011Y647903D01*
X1882343Y657250D01*
X1870557Y665124D01*
X1857806Y671372D01*
X1844395Y675944D01*
X1830476Y678688D01*
X1816354Y679653D01*
X1802231Y678688D01*
X1788312Y675944D01*
X1774901Y671372D01*
X1762150Y665124D01*
X1750364Y657250D01*
X1739696Y647903D01*
X1730349Y637235D01*
X1722475Y625449D01*
X1716227Y612698D01*
X1711655Y599287D01*
X1708912Y585368D01*
X1707946Y571246D01*
X1708912Y557123D01*
X1711655Y543204D01*
X1716227Y529793D01*
X1722475Y517042D01*
X1730349Y505256D01*
X1739696Y494588D01*
X1750364Y485241D01*
X1762150Y477367D01*
X1774901Y471119D01*
X1788312Y466547D01*
X1802231Y463804D01*
G37*
G36*
X1562354Y462838D02*
G01*
X1576476Y463804D01*
X1590395Y466547D01*
X1603806Y471119D01*
X1616557Y477367D01*
X1628343Y485241D01*
X1639011Y494588D01*
X1648358Y505256D01*
X1656232Y517042D01*
X1662480Y529793D01*
X1667052Y543204D01*
X1669796Y557123D01*
X1670761Y571246D01*
X1669796Y585368D01*
X1667052Y599287D01*
X1662480Y612698D01*
X1656232Y625449D01*
X1648358Y637235D01*
X1639011Y647903D01*
X1628343Y657250D01*
X1616557Y665124D01*
X1603806Y671372D01*
X1590395Y675944D01*
X1576476Y678688D01*
X1562354Y679653D01*
X1548231Y678688D01*
X1534312Y675944D01*
X1520901Y671372D01*
X1508150Y665124D01*
X1496364Y657250D01*
X1485696Y647903D01*
X1476349Y637235D01*
X1468475Y625449D01*
X1462227Y612698D01*
X1457655Y599287D01*
X1454912Y585368D01*
X1453946Y571246D01*
X1454912Y557123D01*
X1457655Y543204D01*
X1462227Y529793D01*
X1468475Y517042D01*
X1476349Y505256D01*
X1485696Y494588D01*
X1496364Y485241D01*
X1508150Y477367D01*
X1520901Y471119D01*
X1534312Y466547D01*
X1548231Y463804D01*
G37*
G36*
X2832100Y463092D02*
G01*
X2846273Y464058D01*
X2860141Y466801D01*
X2873603Y471373D01*
X2886303Y477621D01*
X2898089Y485495D01*
X2908757Y494842D01*
X2918104Y505510D01*
X2925978Y517296D01*
X2932226Y529996D01*
X2936798Y543458D01*
X2939542Y557326D01*
X2940507Y571500D01*
X2939542Y585622D01*
X2936798Y599541D01*
X2932226Y612952D01*
X2925978Y625703D01*
X2918104Y637489D01*
X2908757Y648157D01*
X2898089Y657504D01*
X2886303Y665378D01*
X2873603Y671626D01*
X2860141Y676198D01*
X2846273Y678942D01*
X2832100Y679907D01*
X2817977Y678942D01*
X2804058Y676198D01*
X2790647Y671626D01*
X2777896Y665378D01*
X2766110Y657504D01*
X2755442Y648157D01*
X2746095Y637489D01*
X2738221Y625703D01*
X2731973Y612952D01*
X2727401Y599541D01*
X2724658Y585622D01*
X2723692Y571500D01*
X2724658Y557326D01*
X2727401Y543458D01*
X2731973Y529996D01*
X2738221Y517296D01*
X2746095Y505510D01*
X2755442Y494842D01*
X2766110Y485495D01*
X2777896Y477621D01*
X2790647Y471373D01*
X2804058Y466801D01*
X2817977Y464058D01*
G37*
G36*
X2070100Y463346D02*
G01*
X2084222Y464312D01*
X2098141Y467055D01*
X2111552Y471627D01*
X2124303Y477875D01*
X2136089Y485749D01*
X2146757Y495096D01*
X2156104Y505764D01*
X2163978Y517550D01*
X2170226Y530301D01*
X2174798Y543712D01*
X2177542Y557631D01*
X2178507Y571754D01*
X2177542Y585876D01*
X2174798Y599795D01*
X2170226Y613206D01*
X2163978Y625957D01*
X2156104Y637743D01*
X2146757Y648411D01*
X2136089Y657758D01*
X2124303Y665632D01*
X2111552Y671880D01*
X2098141Y676452D01*
X2084222Y679196D01*
X2070100Y680161D01*
X2055977Y679196D01*
X2042058Y676452D01*
X2028647Y671880D01*
X2015896Y665632D01*
X2004110Y657758D01*
X1993442Y648411D01*
X1984095Y637743D01*
X1976221Y625957D01*
X1969973Y613206D01*
X1965401Y599795D01*
X1962657Y585876D01*
X1961692Y571754D01*
X1962657Y557631D01*
X1965401Y543712D01*
X1969973Y530301D01*
X1976221Y517550D01*
X1984095Y505764D01*
X1993442Y495096D01*
X2004110Y485749D01*
X2015896Y477875D01*
X2028647Y471627D01*
X2042058Y467055D01*
X2055977Y464312D01*
G37*
G36*
X2469692Y618591D02*
G01*
X2530500Y618591D01*
X2530500Y679399D01*
X2496159Y679399D01*
X2489860Y678688D01*
X2484374Y676757D01*
X2479497Y673709D01*
X2475382Y669594D01*
X2472334Y664718D01*
X2470404Y659231D01*
X2469692Y652932D01*
G37*
G36*
X2625699Y618591D02*
G01*
X2686507Y618591D01*
X2686507Y652932D01*
X2685796Y659231D01*
X2683865Y664718D01*
X2680817Y669594D01*
X2676702Y673709D01*
X2671826Y676757D01*
X2666339Y678688D01*
X2660040Y679399D01*
X2625699Y679399D01*
G37*
G36*
X889000Y656132D02*
G01*
X902817Y656996D01*
X916432Y659739D01*
X929538Y664159D01*
X941933Y670306D01*
X953465Y677976D01*
X963879Y687120D01*
X973023Y697534D01*
X980694Y709066D01*
X986840Y721461D01*
X991260Y734618D01*
X994003Y748182D01*
X994867Y762000D01*
X994003Y775817D01*
X991260Y789381D01*
X986840Y802538D01*
X980694Y814933D01*
X973023Y826465D01*
X963879Y836879D01*
X953465Y846023D01*
X941933Y853694D01*
X929538Y859840D01*
X916432Y864260D01*
X902817Y867003D01*
X889000Y867867D01*
X875182Y867003D01*
X861618Y864260D01*
X848461Y859840D01*
X836066Y853694D01*
X824534Y846023D01*
X814120Y836879D01*
X804976Y826465D01*
X797306Y814933D01*
X791159Y802538D01*
X786739Y789381D01*
X784047Y775817D01*
X783132Y762000D01*
X784047Y748182D01*
X786739Y734618D01*
X791159Y721461D01*
X797306Y709066D01*
X804976Y697534D01*
X814120Y687120D01*
X824534Y677976D01*
X836066Y670306D01*
X848461Y664159D01*
X861618Y659739D01*
X875182Y656996D01*
G37*
G36*
X3175000Y656132D02*
G01*
X3188817Y656996D01*
X3202381Y659739D01*
X3215538Y664159D01*
X3227933Y670306D01*
X3239465Y677976D01*
X3249879Y687120D01*
X3259023Y697534D01*
X3266694Y709066D01*
X3272840Y721461D01*
X3277260Y734618D01*
X3279952Y748182D01*
X3280867Y762000D01*
X3279952Y775817D01*
X3277260Y789381D01*
X3272840Y802538D01*
X3266694Y814933D01*
X3259023Y826465D01*
X3249879Y836879D01*
X3239465Y846023D01*
X3227933Y853694D01*
X3215538Y859840D01*
X3202381Y864260D01*
X3188817Y867003D01*
X3175000Y867867D01*
X3161182Y867003D01*
X3147568Y864260D01*
X3134461Y859840D01*
X3122066Y853694D01*
X3110534Y846023D01*
X3100120Y836879D01*
X3090976Y826465D01*
X3083306Y814933D01*
X3077159Y802538D01*
X3072739Y789381D01*
X3069996Y775817D01*
X3069132Y762000D01*
X3069996Y748182D01*
X3072739Y734618D01*
X3077159Y721461D01*
X3083306Y709066D01*
X3090976Y697534D01*
X3100120Y687120D01*
X3110534Y677976D01*
X3122066Y670306D01*
X3134461Y664159D01*
X3147568Y659739D01*
X3161182Y656996D01*
G37*
G36*
X4019550Y809904D02*
G01*
X4019550Y857250D01*
X3972204Y857250D01*
X3972864Y855675D01*
X3979824Y843940D01*
X3988308Y833221D01*
X3998112Y823721D01*
X4009085Y815644D01*
G37*
G36*
X4108450Y810056D02*
G01*
X4113072Y812190D01*
X4124553Y819505D01*
X4134967Y828294D01*
X4144111Y838453D01*
X4151833Y849680D01*
X4155643Y857250D01*
X4108450Y857250D01*
G37*
G36*
X889000Y910132D02*
G01*
X902817Y910996D01*
X916432Y913739D01*
X929538Y918159D01*
X941933Y924306D01*
X953465Y931976D01*
X963879Y941120D01*
X973023Y951534D01*
X980694Y963066D01*
X986840Y975461D01*
X991260Y988568D01*
X994003Y1002182D01*
X994867Y1016000D01*
X994003Y1029817D01*
X991260Y1043381D01*
X986840Y1056538D01*
X980694Y1068933D01*
X973023Y1080465D01*
X963879Y1090879D01*
X953465Y1100023D01*
X941933Y1107694D01*
X929538Y1113840D01*
X916432Y1118260D01*
X902817Y1120952D01*
X889000Y1121867D01*
X875182Y1120952D01*
X861618Y1118260D01*
X848461Y1113840D01*
X836066Y1107694D01*
X824534Y1100023D01*
X814120Y1090879D01*
X804976Y1080465D01*
X797306Y1068933D01*
X791159Y1056538D01*
X786739Y1043381D01*
X784047Y1029817D01*
X783132Y1016000D01*
X784047Y1002182D01*
X786739Y988568D01*
X791159Y975461D01*
X797306Y963066D01*
X804976Y951534D01*
X814120Y941120D01*
X824534Y931976D01*
X836066Y924306D01*
X848461Y918159D01*
X861618Y913739D01*
X875182Y910996D01*
G37*
G36*
X3175000Y910132D02*
G01*
X3188817Y910996D01*
X3202381Y913739D01*
X3215538Y918159D01*
X3227933Y924306D01*
X3239465Y931976D01*
X3249879Y941120D01*
X3259023Y951534D01*
X3266694Y963066D01*
X3272840Y975461D01*
X3277260Y988568D01*
X3279952Y1002182D01*
X3280867Y1016000D01*
X3279952Y1029817D01*
X3277260Y1043381D01*
X3272840Y1056538D01*
X3266694Y1068933D01*
X3259023Y1080465D01*
X3249879Y1090879D01*
X3239465Y1100023D01*
X3227933Y1107694D01*
X3215538Y1113840D01*
X3202381Y1118260D01*
X3188817Y1120952D01*
X3175000Y1121867D01*
X3161182Y1120952D01*
X3147568Y1118260D01*
X3134461Y1113840D01*
X3122066Y1107694D01*
X3110534Y1100023D01*
X3100120Y1090879D01*
X3090976Y1080465D01*
X3083306Y1068933D01*
X3077159Y1056538D01*
X3072739Y1043381D01*
X3069996Y1029817D01*
X3069132Y1016000D01*
X3069996Y1002182D01*
X3072739Y988568D01*
X3077159Y975461D01*
X3083306Y963066D01*
X3090976Y951534D01*
X3100120Y941120D01*
X3110534Y931976D01*
X3122066Y924306D01*
X3134461Y918159D01*
X3147568Y913739D01*
X3161182Y910996D01*
G37*
G36*
X4108450Y946150D02*
G01*
X4155643Y946150D01*
X4151833Y953719D01*
X4144111Y964946D01*
X4134967Y975055D01*
X4124553Y983894D01*
X4113072Y991209D01*
X4108450Y993343D01*
G37*
G36*
X3972204Y946150D02*
G01*
X4019550Y946150D01*
X4019550Y993495D01*
X4009085Y987755D01*
X3998112Y979678D01*
X3988308Y970178D01*
X3979824Y959459D01*
X3972864Y947724D01*
G37*
G36*
X889000Y1164132D02*
G01*
X902817Y1164996D01*
X916432Y1167739D01*
X929538Y1172159D01*
X941933Y1178306D01*
X953465Y1185976D01*
X963879Y1195120D01*
X973023Y1205534D01*
X980694Y1217066D01*
X986840Y1229461D01*
X991260Y1242568D01*
X994003Y1256182D01*
X994867Y1270000D01*
X994003Y1283817D01*
X991260Y1297381D01*
X986840Y1310538D01*
X980694Y1322933D01*
X973023Y1334465D01*
X963879Y1344879D01*
X953465Y1354023D01*
X941933Y1361694D01*
X929538Y1367840D01*
X916432Y1372260D01*
X902817Y1374952D01*
X889000Y1375867D01*
X875182Y1374952D01*
X861618Y1372260D01*
X848461Y1367840D01*
X836066Y1361694D01*
X824534Y1354023D01*
X814120Y1344879D01*
X804976Y1334465D01*
X797306Y1322933D01*
X791159Y1310538D01*
X786739Y1297381D01*
X784047Y1283817D01*
X783132Y1270000D01*
X784047Y1256182D01*
X786739Y1242568D01*
X791159Y1229461D01*
X797306Y1217066D01*
X804976Y1205534D01*
X814120Y1195120D01*
X824534Y1185976D01*
X836066Y1178306D01*
X848461Y1172159D01*
X861618Y1167739D01*
X875182Y1164996D01*
G37*
G36*
X3175000Y1164132D02*
G01*
X3188817Y1164996D01*
X3202381Y1167739D01*
X3215538Y1172159D01*
X3227933Y1178306D01*
X3239465Y1185976D01*
X3249879Y1195120D01*
X3259023Y1205534D01*
X3266694Y1217066D01*
X3272840Y1229461D01*
X3277260Y1242568D01*
X3279952Y1256182D01*
X3280867Y1270000D01*
X3279952Y1283817D01*
X3277260Y1297381D01*
X3272840Y1310538D01*
X3266694Y1322933D01*
X3259023Y1334465D01*
X3249879Y1344879D01*
X3239465Y1354023D01*
X3227933Y1361694D01*
X3215538Y1367840D01*
X3202381Y1372260D01*
X3188817Y1374952D01*
X3175000Y1375867D01*
X3161182Y1374952D01*
X3147568Y1372260D01*
X3134461Y1367840D01*
X3122066Y1361694D01*
X3110534Y1354023D01*
X3100120Y1344879D01*
X3090976Y1334465D01*
X3083306Y1322933D01*
X3077159Y1310538D01*
X3072739Y1297381D01*
X3069996Y1283817D01*
X3069132Y1270000D01*
X3069996Y1256182D01*
X3072739Y1242568D01*
X3077159Y1229461D01*
X3083306Y1217066D01*
X3090976Y1205534D01*
X3100120Y1195120D01*
X3110534Y1185976D01*
X3122066Y1178306D01*
X3134461Y1172159D01*
X3147568Y1167739D01*
X3161182Y1164996D01*
G37*
G36*
X1551228Y1213662D02*
G01*
X1560982Y1214526D01*
X1570482Y1217066D01*
X1579372Y1221181D01*
X1587449Y1226820D01*
X1594358Y1233779D01*
X1599996Y1241806D01*
X1604162Y1250746D01*
X1606702Y1260195D01*
X1607566Y1270000D01*
X1606702Y1279804D01*
X1604162Y1289253D01*
X1599996Y1298194D01*
X1594358Y1306220D01*
X1587449Y1313180D01*
X1579372Y1318818D01*
X1570482Y1322933D01*
X1560982Y1325473D01*
X1551228Y1326337D01*
X1541424Y1325473D01*
X1531924Y1322933D01*
X1523034Y1318818D01*
X1515008Y1313180D01*
X1508048Y1306220D01*
X1502410Y1298194D01*
X1498244Y1289253D01*
X1495704Y1279804D01*
X1494840Y1270000D01*
X1495704Y1260195D01*
X1498244Y1250746D01*
X1502410Y1241806D01*
X1508048Y1233779D01*
X1515008Y1226820D01*
X1523034Y1221181D01*
X1531924Y1217066D01*
X1541424Y1214526D01*
G37*
G36*
X4073296Y1307693D02*
G01*
X4086910Y1308100D01*
X4100372Y1310386D01*
X4113377Y1314450D01*
X4125772Y1320190D01*
X4137253Y1327505D01*
X4147667Y1336294D01*
X4156811Y1346454D01*
X4164533Y1357680D01*
X4170679Y1369822D01*
X4175150Y1382725D01*
X4177893Y1396085D01*
X4178808Y1409700D01*
X4177893Y1423314D01*
X4175150Y1436674D01*
X4170679Y1449527D01*
X4164533Y1461719D01*
X4156811Y1472946D01*
X4147667Y1483055D01*
X4137253Y1491894D01*
X4125772Y1499209D01*
X4113377Y1504950D01*
X4100372Y1509014D01*
X4086910Y1511249D01*
X4073296Y1511706D01*
X4059732Y1510385D01*
X4046474Y1507185D01*
X4033723Y1502308D01*
X4021785Y1495755D01*
X4010812Y1487678D01*
X4001008Y1478178D01*
X3992524Y1467459D01*
X3985564Y1455724D01*
X3980281Y1443177D01*
X3976674Y1430020D01*
X3974846Y1416507D01*
X3974846Y1402892D01*
X3976674Y1389380D01*
X3980281Y1376222D01*
X3985564Y1363675D01*
X3992524Y1351940D01*
X4001008Y1341221D01*
X4010812Y1331722D01*
X4021785Y1323644D01*
X4033723Y1317091D01*
X4046474Y1312214D01*
X4059732Y1309014D01*
G37*
G36*
X889000Y1418132D02*
G01*
X902817Y1418996D01*
X916432Y1421739D01*
X929538Y1426159D01*
X941933Y1432306D01*
X953465Y1439976D01*
X963879Y1449120D01*
X973023Y1459534D01*
X980694Y1471066D01*
X986840Y1483461D01*
X991260Y1496568D01*
X994003Y1510182D01*
X994867Y1524000D01*
X994003Y1537817D01*
X991260Y1551381D01*
X986840Y1564538D01*
X980694Y1576933D01*
X973023Y1588465D01*
X963879Y1598879D01*
X953465Y1608023D01*
X941933Y1615694D01*
X929538Y1621840D01*
X916432Y1626260D01*
X902817Y1628952D01*
X889000Y1629867D01*
X875182Y1628952D01*
X861618Y1626260D01*
X848461Y1621840D01*
X836066Y1615694D01*
X824534Y1608023D01*
X814120Y1598879D01*
X804976Y1588465D01*
X797306Y1576933D01*
X791159Y1564538D01*
X786739Y1551381D01*
X784047Y1537817D01*
X783132Y1524000D01*
X784047Y1510182D01*
X786739Y1496568D01*
X791159Y1483461D01*
X797306Y1471066D01*
X804976Y1459534D01*
X814120Y1449120D01*
X824534Y1439976D01*
X836066Y1432306D01*
X848461Y1426159D01*
X861618Y1421739D01*
X875182Y1418996D01*
G37*
G36*
X3175000Y1418132D02*
G01*
X3188817Y1418996D01*
X3202381Y1421739D01*
X3215538Y1426159D01*
X3227933Y1432306D01*
X3239465Y1439976D01*
X3249879Y1449120D01*
X3259023Y1459534D01*
X3266694Y1471066D01*
X3272840Y1483461D01*
X3277260Y1496568D01*
X3279952Y1510182D01*
X3280867Y1524000D01*
X3279952Y1537817D01*
X3277260Y1551381D01*
X3272840Y1564538D01*
X3266694Y1576933D01*
X3259023Y1588465D01*
X3249879Y1598879D01*
X3239465Y1608023D01*
X3227933Y1615694D01*
X3215538Y1621840D01*
X3202381Y1626260D01*
X3188817Y1628952D01*
X3175000Y1629867D01*
X3161182Y1628952D01*
X3147568Y1626260D01*
X3134461Y1621840D01*
X3122066Y1615694D01*
X3110534Y1608023D01*
X3100120Y1598879D01*
X3090976Y1588465D01*
X3083306Y1576933D01*
X3077159Y1564538D01*
X3072739Y1551381D01*
X3069996Y1537817D01*
X3069132Y1524000D01*
X3069996Y1510182D01*
X3072739Y1496568D01*
X3077159Y1483461D01*
X3083306Y1471066D01*
X3090976Y1459534D01*
X3100120Y1449120D01*
X3110534Y1439976D01*
X3122066Y1432306D01*
X3134461Y1426159D01*
X3147568Y1421739D01*
X3161182Y1418996D01*
G37*
G36*
X889000Y1672132D02*
G01*
X902817Y1672996D01*
X916432Y1675739D01*
X929538Y1680159D01*
X941933Y1686306D01*
X953465Y1693976D01*
X963879Y1703120D01*
X973023Y1713534D01*
X980694Y1725066D01*
X986840Y1737461D01*
X991260Y1750568D01*
X994003Y1764182D01*
X994867Y1778000D01*
X994003Y1791817D01*
X991260Y1805381D01*
X986840Y1818538D01*
X980694Y1830933D01*
X973023Y1842465D01*
X963879Y1852879D01*
X953465Y1862023D01*
X941933Y1869693D01*
X929538Y1875840D01*
X916432Y1880260D01*
X902817Y1882952D01*
X889000Y1883867D01*
X875182Y1882952D01*
X861618Y1880260D01*
X848461Y1875840D01*
X836066Y1869693D01*
X824534Y1862023D01*
X814120Y1852879D01*
X804976Y1842465D01*
X797306Y1830933D01*
X791159Y1818538D01*
X786739Y1805381D01*
X784047Y1791817D01*
X783132Y1778000D01*
X784047Y1764182D01*
X786739Y1750568D01*
X791159Y1737461D01*
X797306Y1725066D01*
X804976Y1713534D01*
X814120Y1703120D01*
X824534Y1693976D01*
X836066Y1686306D01*
X848461Y1680159D01*
X861618Y1675739D01*
X875182Y1672996D01*
G37*
G36*
X3175000Y1672132D02*
G01*
X3188817Y1672996D01*
X3202381Y1675739D01*
X3215538Y1680159D01*
X3227933Y1686306D01*
X3239465Y1693976D01*
X3249879Y1703120D01*
X3259023Y1713534D01*
X3266694Y1725066D01*
X3272840Y1737461D01*
X3277260Y1750568D01*
X3279952Y1764182D01*
X3280867Y1778000D01*
X3279952Y1791817D01*
X3277260Y1805381D01*
X3272840Y1818538D01*
X3266694Y1830933D01*
X3259023Y1842465D01*
X3249879Y1852879D01*
X3239465Y1862023D01*
X3227933Y1869693D01*
X3215538Y1875840D01*
X3202381Y1880260D01*
X3188817Y1882952D01*
X3175000Y1883867D01*
X3161182Y1882952D01*
X3147568Y1880260D01*
X3134461Y1875840D01*
X3122066Y1869693D01*
X3110534Y1862023D01*
X3100120Y1852879D01*
X3090976Y1842465D01*
X3083306Y1830933D01*
X3077159Y1818538D01*
X3072739Y1805381D01*
X3069996Y1791817D01*
X3069132Y1778000D01*
X3069996Y1764182D01*
X3072739Y1750568D01*
X3077159Y1737461D01*
X3083306Y1725066D01*
X3090976Y1713534D01*
X3100120Y1703120D01*
X3110534Y1693976D01*
X3122066Y1686306D01*
X3134461Y1680159D01*
X3147568Y1675739D01*
X3161182Y1672996D01*
G37*
G36*
X4073296Y1802993D02*
G01*
X4086910Y1803400D01*
X4100372Y1805686D01*
X4113377Y1809750D01*
X4125772Y1815490D01*
X4137253Y1822805D01*
X4147667Y1831593D01*
X4156811Y1841754D01*
X4164533Y1852980D01*
X4170679Y1865122D01*
X4175150Y1878025D01*
X4177893Y1891385D01*
X4178808Y1905000D01*
X4177893Y1918614D01*
X4175150Y1931974D01*
X4170679Y1944827D01*
X4164533Y1957019D01*
X4156811Y1968246D01*
X4147667Y1978355D01*
X4137253Y1987194D01*
X4125772Y1994509D01*
X4113377Y2000250D01*
X4100372Y2004314D01*
X4086910Y2006549D01*
X4073296Y2007006D01*
X4059732Y2005685D01*
X4046474Y2002485D01*
X4033723Y1997608D01*
X4021785Y1991055D01*
X4010812Y1982978D01*
X4001008Y1973478D01*
X3992524Y1962759D01*
X3985564Y1951024D01*
X3980281Y1938477D01*
X3976674Y1925320D01*
X3974846Y1911807D01*
X3974846Y1898192D01*
X3976674Y1884680D01*
X3980281Y1871522D01*
X3985564Y1858975D01*
X3992524Y1847240D01*
X4001008Y1836521D01*
X4010812Y1827022D01*
X4021785Y1818944D01*
X4033723Y1812391D01*
X4046474Y1807514D01*
X4059732Y1804314D01*
G37*
G36*
X889000Y1926132D02*
G01*
X902817Y1926996D01*
X916432Y1929739D01*
X929538Y1934159D01*
X941933Y1940306D01*
X953465Y1947976D01*
X963879Y1957120D01*
X973023Y1967534D01*
X980694Y1979066D01*
X986840Y1991461D01*
X991260Y2004568D01*
X994003Y2018182D01*
X994867Y2032000D01*
X994003Y2045817D01*
X991260Y2059381D01*
X986840Y2072538D01*
X980694Y2084933D01*
X973023Y2096465D01*
X963879Y2106879D01*
X953465Y2116023D01*
X941933Y2123694D01*
X929538Y2129840D01*
X916432Y2134260D01*
X902817Y2136952D01*
X889000Y2137867D01*
X875182Y2136952D01*
X861618Y2134260D01*
X848461Y2129840D01*
X836066Y2123694D01*
X824534Y2116023D01*
X814120Y2106879D01*
X804976Y2096465D01*
X797306Y2084933D01*
X791159Y2072538D01*
X786739Y2059381D01*
X784047Y2045817D01*
X783132Y2032000D01*
X784047Y2018182D01*
X786739Y2004568D01*
X791159Y1991461D01*
X797306Y1979066D01*
X804976Y1967534D01*
X814120Y1957120D01*
X824534Y1947976D01*
X836066Y1940306D01*
X848461Y1934159D01*
X861618Y1929739D01*
X875182Y1926996D01*
G37*
G36*
X3175000Y1926132D02*
G01*
X3188817Y1926996D01*
X3202381Y1929739D01*
X3215538Y1934159D01*
X3227933Y1940306D01*
X3239465Y1947976D01*
X3249879Y1957120D01*
X3259023Y1967534D01*
X3266694Y1979066D01*
X3272840Y1991461D01*
X3277260Y2004568D01*
X3279952Y2018182D01*
X3280867Y2032000D01*
X3279952Y2045817D01*
X3277260Y2059381D01*
X3272840Y2072538D01*
X3266694Y2084933D01*
X3259023Y2096465D01*
X3249879Y2106879D01*
X3239465Y2116023D01*
X3227933Y2123694D01*
X3215538Y2129840D01*
X3202381Y2134260D01*
X3188817Y2136952D01*
X3175000Y2137867D01*
X3161182Y2136952D01*
X3147568Y2134260D01*
X3134461Y2129840D01*
X3122066Y2123694D01*
X3110534Y2116023D01*
X3100120Y2106879D01*
X3090976Y2096465D01*
X3083306Y2084933D01*
X3077159Y2072538D01*
X3072739Y2059381D01*
X3069996Y2045817D01*
X3069132Y2032000D01*
X3069996Y2018182D01*
X3072739Y2004568D01*
X3077159Y1991461D01*
X3083306Y1979066D01*
X3090976Y1967534D01*
X3100120Y1957120D01*
X3110534Y1947976D01*
X3122066Y1940306D01*
X3134461Y1934159D01*
X3147568Y1929739D01*
X3161182Y1926996D01*
G37*
G36*
X889000Y2180132D02*
G01*
X902817Y2180996D01*
X916432Y2183739D01*
X929538Y2188159D01*
X941933Y2194306D01*
X953465Y2201976D01*
X963879Y2211120D01*
X973023Y2221534D01*
X980694Y2233066D01*
X986840Y2245461D01*
X991260Y2258568D01*
X994003Y2272182D01*
X994867Y2286000D01*
X994003Y2299817D01*
X991260Y2313381D01*
X986840Y2326538D01*
X980694Y2338933D01*
X973023Y2350465D01*
X963879Y2360879D01*
X953465Y2370023D01*
X941933Y2377694D01*
X929538Y2383840D01*
X916432Y2388260D01*
X902817Y2390952D01*
X889000Y2391867D01*
X875182Y2390952D01*
X861618Y2388260D01*
X848461Y2383840D01*
X836066Y2377694D01*
X824534Y2370023D01*
X814120Y2360879D01*
X804976Y2350465D01*
X797306Y2338933D01*
X791159Y2326538D01*
X786739Y2313381D01*
X784047Y2299817D01*
X783132Y2286000D01*
X784047Y2272182D01*
X786739Y2258568D01*
X791159Y2245461D01*
X797306Y2233066D01*
X804976Y2221534D01*
X814120Y2211120D01*
X824534Y2201976D01*
X836066Y2194306D01*
X848461Y2188159D01*
X861618Y2183739D01*
X875182Y2180996D01*
G37*
G36*
X3128670Y2191054D02*
G01*
X3128670Y2239619D01*
X3080054Y2239619D01*
X3083306Y2233066D01*
X3090976Y2221534D01*
X3100120Y2211120D01*
X3110534Y2201976D01*
X3122066Y2194306D01*
G37*
G36*
X3221329Y2191054D02*
G01*
X3227933Y2194306D01*
X3239465Y2201976D01*
X3249879Y2211120D01*
X3259023Y2221534D01*
X3266694Y2233066D01*
X3269945Y2239619D01*
X3221329Y2239619D01*
G37*
G36*
X4019550Y2321204D02*
G01*
X4019550Y2368550D01*
X3972204Y2368550D01*
X3972864Y2366975D01*
X3979824Y2355240D01*
X3988308Y2344521D01*
X3998112Y2335022D01*
X4009085Y2326944D01*
G37*
G36*
X4108450Y2321356D02*
G01*
X4113072Y2323490D01*
X4124553Y2330805D01*
X4134967Y2339594D01*
X4144111Y2349754D01*
X4151833Y2360980D01*
X4155643Y2368550D01*
X4108450Y2368550D01*
G37*
G36*
X3221329Y2332329D02*
G01*
X3269945Y2332329D01*
X3266694Y2338933D01*
X3259023Y2350465D01*
X3249879Y2360879D01*
X3239465Y2370023D01*
X3227933Y2377694D01*
X3221329Y2380945D01*
G37*
G36*
X3080054Y2332329D02*
G01*
X3128670Y2332329D01*
X3128670Y2380945D01*
X3122066Y2377694D01*
X3110534Y2370023D01*
X3100120Y2360879D01*
X3090976Y2350465D01*
X3083306Y2338933D01*
G37*
G36*
X4108450Y2457450D02*
G01*
X4155643Y2457450D01*
X4151833Y2465019D01*
X4144111Y2476246D01*
X4134967Y2486355D01*
X4124553Y2495194D01*
X4113072Y2502509D01*
X4108450Y2504643D01*
G37*
G36*
X3972204Y2457450D02*
G01*
X4019550Y2457450D01*
X4019550Y2504795D01*
X4009085Y2499055D01*
X3998112Y2490978D01*
X3988308Y2481478D01*
X3979824Y2470759D01*
X3972864Y2459024D01*
G37*
G36*
X4032250Y2841904D02*
G01*
X4032250Y2889250D01*
X3984904Y2889250D01*
X3985564Y2887675D01*
X3992524Y2875940D01*
X4001008Y2865221D01*
X4010812Y2855722D01*
X4021785Y2847644D01*
G37*
G36*
X4121150Y2842056D02*
G01*
X4125772Y2844190D01*
X4137253Y2851505D01*
X4147667Y2860294D01*
X4156811Y2870454D01*
X4164533Y2881680D01*
X4168343Y2889250D01*
X4121150Y2889250D01*
G37*
G36*
X4121150Y2978150D02*
G01*
X4168343Y2978150D01*
X4164533Y2985719D01*
X4156811Y2996946D01*
X4147667Y3007055D01*
X4137253Y3015894D01*
X4125772Y3023209D01*
X4121150Y3025343D01*
G37*
G36*
X3984904Y2978150D02*
G01*
X4032250Y2978150D01*
X4032250Y3025495D01*
X4021785Y3019755D01*
X4010812Y3011678D01*
X4001008Y3002178D01*
X3992524Y2991459D01*
X3985564Y2979724D01*
G37*
G36*
X2057400Y3301492D02*
G01*
X2071014Y3302406D01*
X2084374Y3305149D01*
X2097278Y3309620D01*
X2109419Y3315766D01*
X2120646Y3323488D01*
X2130806Y3332632D01*
X2139594Y3343046D01*
X2146909Y3354527D01*
X2152650Y3366922D01*
X2156714Y3379927D01*
X2158949Y3393389D01*
X2159406Y3407003D01*
X2158085Y3420567D01*
X2154885Y3433826D01*
X2150008Y3446576D01*
X2143455Y3458514D01*
X2135378Y3469487D01*
X2125878Y3479292D01*
X2115159Y3487775D01*
X2103424Y3494735D01*
X2090877Y3500018D01*
X2077720Y3503625D01*
X2064207Y3505454D01*
X2050592Y3505454D01*
X2037080Y3503625D01*
X2023922Y3500018D01*
X2011375Y3494735D01*
X1999640Y3487775D01*
X1988921Y3479292D01*
X1979422Y3469487D01*
X1971344Y3458514D01*
X1964791Y3446576D01*
X1959914Y3433826D01*
X1956714Y3420567D01*
X1955393Y3407003D01*
X1955850Y3393389D01*
X1958086Y3379927D01*
X1962150Y3366922D01*
X1967890Y3354527D01*
X1975205Y3343046D01*
X1983993Y3332632D01*
X1994154Y3323488D01*
X2005380Y3315766D01*
X2017522Y3309620D01*
X2030425Y3305149D01*
X2043785Y3302406D01*
G37*
G36*
X2296922Y3301492D02*
G01*
X2310485Y3302406D01*
X2323846Y3305149D01*
X2336749Y3309620D01*
X2348941Y3315766D01*
X2360168Y3323488D01*
X2370277Y3332632D01*
X2379065Y3343046D01*
X2386431Y3354527D01*
X2392172Y3366922D01*
X2396185Y3379927D01*
X2398471Y3393389D01*
X2398928Y3407003D01*
X2397556Y3420567D01*
X2394407Y3433826D01*
X2389479Y3446576D01*
X2382926Y3458514D01*
X2374849Y3469487D01*
X2365349Y3479292D01*
X2354681Y3487775D01*
X2342946Y3494735D01*
X2330399Y3500018D01*
X2317242Y3503625D01*
X2303729Y3505454D01*
X2290064Y3505454D01*
X2276551Y3503625D01*
X2263394Y3500018D01*
X2250846Y3494735D01*
X2239111Y3487775D01*
X2228443Y3479292D01*
X2218944Y3469487D01*
X2210866Y3458514D01*
X2204313Y3446576D01*
X2199386Y3433826D01*
X2196236Y3420567D01*
X2194864Y3407003D01*
X2195322Y3393389D01*
X2197608Y3379927D01*
X2201621Y3366922D01*
X2207361Y3354527D01*
X2214727Y3343046D01*
X2223516Y3332632D01*
X2233625Y3323488D01*
X2244852Y3315766D01*
X2257044Y3309620D01*
X2269947Y3305149D01*
X2283307Y3302406D01*
G37*
G36*
X2794000Y3301492D02*
G01*
X2807614Y3302406D01*
X2820974Y3305149D01*
X2833878Y3309620D01*
X2846019Y3315766D01*
X2857246Y3323488D01*
X2867406Y3332632D01*
X2876194Y3343046D01*
X2883509Y3354527D01*
X2889250Y3366922D01*
X2893314Y3379927D01*
X2895549Y3393389D01*
X2896006Y3407003D01*
X2894685Y3420567D01*
X2891485Y3433826D01*
X2886608Y3446576D01*
X2880055Y3458514D01*
X2871978Y3469487D01*
X2862478Y3479292D01*
X2851759Y3487775D01*
X2840024Y3494735D01*
X2827477Y3500018D01*
X2814320Y3503625D01*
X2800807Y3505454D01*
X2787192Y3505454D01*
X2773680Y3503625D01*
X2760522Y3500018D01*
X2747975Y3494735D01*
X2736240Y3487775D01*
X2725521Y3479292D01*
X2716022Y3469487D01*
X2707944Y3458514D01*
X2701391Y3446576D01*
X2696514Y3433826D01*
X2693314Y3420567D01*
X2691993Y3407003D01*
X2692450Y3393389D01*
X2694686Y3379927D01*
X2698750Y3366922D01*
X2704490Y3354527D01*
X2711805Y3343046D01*
X2720594Y3332632D01*
X2730754Y3323488D01*
X2741980Y3315766D01*
X2754122Y3309620D01*
X2767025Y3305149D01*
X2780385Y3302406D01*
G37*
G36*
X1551228Y3301492D02*
G01*
X1564792Y3302406D01*
X1578152Y3305149D01*
X1591056Y3309620D01*
X1603248Y3315766D01*
X1614474Y3323488D01*
X1624584Y3332632D01*
X1633372Y3343046D01*
X1640738Y3354527D01*
X1646478Y3366922D01*
X1650492Y3379927D01*
X1652778Y3393389D01*
X1653235Y3407003D01*
X1651863Y3420567D01*
X1648714Y3433826D01*
X1643786Y3446576D01*
X1637233Y3458514D01*
X1629156Y3469487D01*
X1619656Y3479292D01*
X1608988Y3487775D01*
X1597253Y3494735D01*
X1584706Y3500018D01*
X1571548Y3503625D01*
X1558036Y3505454D01*
X1544370Y3505454D01*
X1530858Y3503625D01*
X1517700Y3500018D01*
X1505153Y3494735D01*
X1493418Y3487775D01*
X1482750Y3479292D01*
X1473250Y3469487D01*
X1465173Y3458514D01*
X1458620Y3446576D01*
X1453692Y3433826D01*
X1450543Y3420567D01*
X1449171Y3407003D01*
X1449628Y3393389D01*
X1451914Y3379927D01*
X1455928Y3366922D01*
X1461668Y3354527D01*
X1469034Y3343046D01*
X1477822Y3332632D01*
X1487932Y3323488D01*
X1499158Y3315766D01*
X1511350Y3309620D01*
X1524254Y3305149D01*
X1537614Y3302406D01*
G37*
G36*
X1054100Y3301492D02*
G01*
X1067714Y3302406D01*
X1081074Y3305149D01*
X1093978Y3309620D01*
X1106119Y3315766D01*
X1117346Y3323488D01*
X1127506Y3332632D01*
X1136294Y3343046D01*
X1143609Y3354527D01*
X1149350Y3366922D01*
X1153414Y3379927D01*
X1155649Y3393389D01*
X1156106Y3407003D01*
X1154785Y3420567D01*
X1151585Y3433826D01*
X1146708Y3446576D01*
X1140155Y3458514D01*
X1132078Y3469487D01*
X1122578Y3479292D01*
X1111859Y3487775D01*
X1100124Y3494735D01*
X1087577Y3500018D01*
X1074420Y3503625D01*
X1060907Y3505454D01*
X1047292Y3505454D01*
X1033780Y3503625D01*
X1020622Y3500018D01*
X1008075Y3494735D01*
X996340Y3487775D01*
X985621Y3479292D01*
X976121Y3469487D01*
X968044Y3458514D01*
X961491Y3446576D01*
X956614Y3433826D01*
X953414Y3420567D01*
X952093Y3407003D01*
X952550Y3393389D01*
X954786Y3379927D01*
X958850Y3366922D01*
X964590Y3354527D01*
X971905Y3343046D01*
X980694Y3332632D01*
X990853Y3323488D01*
X1002080Y3315766D01*
X1014221Y3309620D01*
X1027125Y3305149D01*
X1040485Y3302406D01*
G37*
G36*
X1799793Y3301492D02*
G01*
X1813356Y3302406D01*
X1826717Y3305149D01*
X1839620Y3309620D01*
X1851812Y3315766D01*
X1863039Y3323488D01*
X1873148Y3332632D01*
X1881936Y3343046D01*
X1889302Y3354527D01*
X1895043Y3366922D01*
X1899056Y3379927D01*
X1901342Y3393389D01*
X1901799Y3407003D01*
X1900428Y3420567D01*
X1897278Y3433826D01*
X1892350Y3446576D01*
X1885797Y3458514D01*
X1877720Y3469487D01*
X1868220Y3479292D01*
X1857552Y3487775D01*
X1845818Y3494735D01*
X1833270Y3500018D01*
X1820113Y3503625D01*
X1806600Y3505454D01*
X1792935Y3505454D01*
X1779422Y3503625D01*
X1766265Y3500018D01*
X1753717Y3494735D01*
X1741982Y3487775D01*
X1731314Y3479292D01*
X1721815Y3469487D01*
X1713738Y3458514D01*
X1707184Y3446576D01*
X1702257Y3433826D01*
X1699107Y3420567D01*
X1697736Y3407003D01*
X1698193Y3393389D01*
X1700479Y3379927D01*
X1704492Y3366922D01*
X1710232Y3354527D01*
X1717598Y3343046D01*
X1726387Y3332632D01*
X1736496Y3323488D01*
X1747723Y3315766D01*
X1759915Y3309620D01*
X1772818Y3305149D01*
X1786178Y3302406D01*
G37*
G36*
X2589885Y3311956D02*
G01*
X2597454Y3315766D01*
X2608681Y3323488D01*
X2618841Y3332632D01*
X2627630Y3343046D01*
X2634945Y3354527D01*
X2637078Y3359150D01*
X2589885Y3359150D01*
G37*
G36*
X2500985Y3311956D02*
G01*
X2500985Y3359150D01*
X2453792Y3359150D01*
X2455926Y3354527D01*
X2463241Y3343046D01*
X2472029Y3332632D01*
X2482189Y3323488D01*
X2493416Y3315766D01*
G37*
G36*
X1258214Y3311956D02*
G01*
X1258214Y3359150D01*
X1211021Y3359150D01*
X1213154Y3354527D01*
X1220470Y3343046D01*
X1229258Y3332632D01*
X1239418Y3323488D01*
X1250645Y3315766D01*
G37*
G36*
X1347114Y3311956D02*
G01*
X1354683Y3315766D01*
X1365910Y3323488D01*
X1376070Y3332632D01*
X1384858Y3343046D01*
X1392174Y3354527D01*
X1394307Y3359150D01*
X1347114Y3359150D01*
G37*
G36*
X4073296Y3339693D02*
G01*
X4086910Y3340100D01*
X4100372Y3342386D01*
X4113377Y3346450D01*
X4125772Y3352190D01*
X4137253Y3359505D01*
X4147667Y3368294D01*
X4156811Y3378454D01*
X4164533Y3389680D01*
X4170679Y3401822D01*
X4175150Y3414725D01*
X4177893Y3428085D01*
X4178808Y3441700D01*
X4177893Y3455314D01*
X4175150Y3468674D01*
X4170679Y3481527D01*
X4164533Y3493719D01*
X4156811Y3504946D01*
X4147667Y3515055D01*
X4137253Y3523894D01*
X4125772Y3531209D01*
X4113377Y3536950D01*
X4100372Y3541014D01*
X4086910Y3543249D01*
X4073296Y3543706D01*
X4059732Y3542385D01*
X4046474Y3539185D01*
X4033723Y3534308D01*
X4021785Y3527755D01*
X4010812Y3519678D01*
X4001008Y3510178D01*
X3992524Y3499459D01*
X3985564Y3487724D01*
X3980281Y3475177D01*
X3976674Y3462020D01*
X3974846Y3448507D01*
X3974846Y3434892D01*
X3976674Y3421379D01*
X3980281Y3408222D01*
X3985564Y3395675D01*
X3992524Y3383940D01*
X4001008Y3373221D01*
X4010812Y3363722D01*
X4021785Y3355644D01*
X4033723Y3349091D01*
X4046474Y3344214D01*
X4059732Y3341014D01*
G37*
G36*
X3276600Y3356406D02*
G01*
X3288842Y3357270D01*
X3300780Y3359912D01*
X3312261Y3364179D01*
X3323031Y3370072D01*
X3332835Y3377387D01*
X3341522Y3386074D01*
X3348837Y3395878D01*
X3354730Y3406648D01*
X3358997Y3418128D01*
X3361588Y3430066D01*
X3362502Y3442665D01*
X3362502Y3551936D01*
X3361588Y3564534D01*
X3358997Y3576472D01*
X3354730Y3587953D01*
X3348837Y3598722D01*
X3341522Y3608527D01*
X3332835Y3617214D01*
X3323031Y3624529D01*
X3312261Y3630422D01*
X3300780Y3634689D01*
X3288537Y3637381D01*
X3284931Y3638905D01*
X3282187Y3641699D01*
X3280714Y3645357D01*
X3280714Y3649268D01*
X3282187Y3652875D01*
X3284931Y3655669D01*
X3288537Y3657244D01*
X3300780Y3659886D01*
X3312261Y3664204D01*
X3323031Y3670046D01*
X3332835Y3677412D01*
X3341522Y3686048D01*
X3348837Y3695852D01*
X3354730Y3706622D01*
X3358997Y3718102D01*
X3361588Y3730091D01*
X3362502Y3742639D01*
X3362502Y3851960D01*
X3361588Y3864508D01*
X3358997Y3876497D01*
X3354730Y3887978D01*
X3348837Y3898747D01*
X3341522Y3908551D01*
X3332835Y3917187D01*
X3323031Y3924554D01*
X3312261Y3930446D01*
X3300780Y3934714D01*
X3288537Y3937355D01*
X3284931Y3938930D01*
X3282187Y3941724D01*
X3280714Y3945331D01*
X3280714Y3949242D01*
X3282187Y3952900D01*
X3284931Y3955694D01*
X3288537Y3957218D01*
X3300780Y3959910D01*
X3312261Y3964178D01*
X3323031Y3970070D01*
X3332835Y3977386D01*
X3341522Y3986072D01*
X3348837Y3995877D01*
X3354730Y4006646D01*
X3358997Y4018127D01*
X3361588Y4030065D01*
X3362502Y4042664D01*
X3362502Y4151934D01*
X3361588Y4164533D01*
X3358997Y4176471D01*
X3354730Y4187951D01*
X3348837Y4198721D01*
X3341522Y4208526D01*
X3332835Y4217212D01*
X3323031Y4224528D01*
X3312261Y4230420D01*
X3300780Y4234688D01*
X3288842Y4237329D01*
X3276600Y4238193D01*
X3264357Y4237329D01*
X3252419Y4234688D01*
X3240938Y4230420D01*
X3230168Y4224528D01*
X3220364Y4217212D01*
X3211677Y4208526D01*
X3204362Y4198721D01*
X3198469Y4187951D01*
X3194202Y4176471D01*
X3191611Y4164533D01*
X3190697Y4151934D01*
X3190697Y4042664D01*
X3191611Y4030065D01*
X3194202Y4018127D01*
X3198469Y4006646D01*
X3204362Y3995877D01*
X3211677Y3986072D01*
X3220364Y3977386D01*
X3230168Y3970070D01*
X3240938Y3964178D01*
X3252419Y3959910D01*
X3264662Y3957218D01*
X3268268Y3955694D01*
X3271012Y3952900D01*
X3272485Y3949242D01*
X3272485Y3945331D01*
X3271012Y3941724D01*
X3268268Y3938930D01*
X3264662Y3937355D01*
X3252419Y3934714D01*
X3240938Y3930446D01*
X3230168Y3924554D01*
X3220364Y3917187D01*
X3211677Y3908551D01*
X3204362Y3898747D01*
X3198469Y3887978D01*
X3194202Y3876497D01*
X3191611Y3864508D01*
X3190697Y3851960D01*
X3190697Y3742639D01*
X3191611Y3730091D01*
X3194202Y3718102D01*
X3198469Y3706622D01*
X3204362Y3695852D01*
X3211677Y3686048D01*
X3220364Y3677412D01*
X3230168Y3670046D01*
X3240938Y3664204D01*
X3252419Y3659886D01*
X3264662Y3657244D01*
X3268268Y3655669D01*
X3271012Y3652875D01*
X3272485Y3649268D01*
X3272485Y3645357D01*
X3271012Y3641699D01*
X3268268Y3638905D01*
X3264662Y3637381D01*
X3252419Y3634689D01*
X3240938Y3630422D01*
X3230168Y3624529D01*
X3220364Y3617214D01*
X3211677Y3608527D01*
X3204362Y3598722D01*
X3198469Y3587953D01*
X3194202Y3576472D01*
X3191611Y3564534D01*
X3190697Y3551936D01*
X3190697Y3442665D01*
X3191611Y3430066D01*
X3194202Y3418128D01*
X3198469Y3406648D01*
X3204362Y3395878D01*
X3211677Y3386074D01*
X3220364Y3377387D01*
X3230168Y3370072D01*
X3240938Y3364179D01*
X3252419Y3359912D01*
X3264357Y3357270D01*
G37*
G36*
X2453640Y3448050D02*
G01*
X2500985Y3448050D01*
X2500985Y3495395D01*
X2499410Y3494735D01*
X2487676Y3487775D01*
X2476957Y3479292D01*
X2467457Y3469487D01*
X2459380Y3458514D01*
G37*
G36*
X2589885Y3448050D02*
G01*
X2637231Y3448050D01*
X2631490Y3458514D01*
X2623413Y3469487D01*
X2613914Y3479292D01*
X2603195Y3487775D01*
X2591460Y3494735D01*
X2589885Y3495395D01*
G37*
G36*
X1347114Y3448050D02*
G01*
X1394460Y3448050D01*
X1388719Y3458514D01*
X1380642Y3469487D01*
X1371142Y3479292D01*
X1360424Y3487775D01*
X1348689Y3494735D01*
X1347114Y3495395D01*
G37*
G36*
X1210868Y3448050D02*
G01*
X1258214Y3448050D01*
X1258214Y3495395D01*
X1256639Y3494735D01*
X1244904Y3487775D01*
X1234186Y3479292D01*
X1224686Y3469487D01*
X1216609Y3458514D01*
G37*
G36*
X1178407Y3546500D02*
G01*
X1188161Y3547364D01*
X1197660Y3549904D01*
X1206550Y3554018D01*
X1214628Y3559657D01*
X1221536Y3566617D01*
X1227175Y3574643D01*
X1231341Y3583584D01*
X1233881Y3593033D01*
X1234744Y3602837D01*
X1233881Y3612642D01*
X1231341Y3622090D01*
X1227175Y3631031D01*
X1221536Y3639058D01*
X1214628Y3646017D01*
X1206550Y3651656D01*
X1197660Y3655771D01*
X1188161Y3658311D01*
X1178407Y3659174D01*
X1168603Y3658311D01*
X1159103Y3655771D01*
X1150213Y3651656D01*
X1142187Y3646017D01*
X1135227Y3639058D01*
X1129588Y3631031D01*
X1125423Y3622090D01*
X1122883Y3612642D01*
X1122019Y3602837D01*
X1122883Y3593033D01*
X1125423Y3583584D01*
X1129588Y3574643D01*
X1135227Y3566617D01*
X1142187Y3559657D01*
X1150213Y3554018D01*
X1159103Y3549904D01*
X1168603Y3547364D01*
G37*
G36*
X4060596Y3822293D02*
G01*
X4074210Y3822700D01*
X4087672Y3824986D01*
X4100677Y3829050D01*
X4113072Y3834790D01*
X4124553Y3842105D01*
X4134967Y3850894D01*
X4144111Y3861054D01*
X4151833Y3872280D01*
X4157979Y3884422D01*
X4162450Y3897325D01*
X4165193Y3910685D01*
X4166108Y3924300D01*
X4165193Y3937914D01*
X4162450Y3951274D01*
X4157979Y3964127D01*
X4151833Y3976319D01*
X4144111Y3987546D01*
X4134967Y3997655D01*
X4124553Y4006494D01*
X4113072Y4013809D01*
X4100677Y4019550D01*
X4087672Y4023614D01*
X4074210Y4025849D01*
X4060596Y4026306D01*
X4047032Y4024985D01*
X4033774Y4021785D01*
X4021023Y4016908D01*
X4009085Y4010355D01*
X3998112Y4002278D01*
X3988308Y3992778D01*
X3979824Y3982059D01*
X3972864Y3970324D01*
X3967581Y3957777D01*
X3963974Y3944620D01*
X3962146Y3931107D01*
X3962146Y3917492D01*
X3963974Y3903979D01*
X3967581Y3890822D01*
X3972864Y3878275D01*
X3979824Y3866540D01*
X3988308Y3855821D01*
X3998112Y3846322D01*
X4009085Y3838244D01*
X4021023Y3831691D01*
X4033774Y3826814D01*
X4047032Y3823614D01*
G37*
G36*
X4060596Y4355693D02*
G01*
X4074210Y4356100D01*
X4087672Y4358386D01*
X4100677Y4362450D01*
X4113072Y4368190D01*
X4124553Y4375505D01*
X4134967Y4384294D01*
X4144111Y4394454D01*
X4151833Y4405680D01*
X4157979Y4417822D01*
X4162450Y4430725D01*
X4165193Y4444085D01*
X4166108Y4457700D01*
X4165193Y4471314D01*
X4162450Y4484674D01*
X4157979Y4497527D01*
X4151833Y4509719D01*
X4144111Y4520946D01*
X4134967Y4531055D01*
X4124553Y4539894D01*
X4113072Y4547209D01*
X4100677Y4552950D01*
X4087672Y4557014D01*
X4074210Y4559249D01*
X4060596Y4559706D01*
X4047032Y4558385D01*
X4033774Y4555185D01*
X4021023Y4550308D01*
X4009085Y4543755D01*
X3998112Y4535678D01*
X3988308Y4526178D01*
X3979824Y4515459D01*
X3972864Y4503724D01*
X3967581Y4491177D01*
X3963974Y4478020D01*
X3962146Y4464507D01*
X3962146Y4450892D01*
X3963974Y4437380D01*
X3967581Y4424222D01*
X3972864Y4411675D01*
X3979824Y4399940D01*
X3988308Y4389221D01*
X3998112Y4379722D01*
X4009085Y4371644D01*
X4021023Y4365091D01*
X4033774Y4360214D01*
X4047032Y4357014D01*
G37*
G36*
X2050643Y4439107D02*
G01*
X2060397Y4439970D01*
X2069896Y4442510D01*
X2078786Y4446676D01*
X2086864Y4452315D01*
X2093772Y4459224D01*
X2099411Y4467301D01*
X2103577Y4476191D01*
X2106117Y4485690D01*
X2106980Y4495444D01*
X2106117Y4505248D01*
X2103577Y4514748D01*
X2099411Y4523638D01*
X2093772Y4531664D01*
X2086864Y4538624D01*
X2078786Y4544263D01*
X2069896Y4548428D01*
X2060397Y4550968D01*
X2050643Y4551832D01*
X2040839Y4550968D01*
X2031339Y4548428D01*
X2022449Y4544263D01*
X2014423Y4538624D01*
X2007463Y4531664D01*
X2001824Y4523638D01*
X1997659Y4514748D01*
X1995119Y4505248D01*
X1994255Y4495444D01*
X1995119Y4485690D01*
X1997659Y4476191D01*
X2001824Y4467301D01*
X2007463Y4459224D01*
X2014423Y4452315D01*
X2022449Y4446676D01*
X2031339Y4442510D01*
X2040839Y4439970D01*
G37*
G36*
X3552596Y4863693D02*
G01*
X3566210Y4864100D01*
X3579672Y4866386D01*
X3592677Y4870450D01*
X3605072Y4876190D01*
X3616553Y4883505D01*
X3626967Y4892294D01*
X3636111Y4902454D01*
X3643833Y4913680D01*
X3649979Y4925822D01*
X3654450Y4938725D01*
X3657193Y4952085D01*
X3658108Y4965700D01*
X3657193Y4979314D01*
X3654450Y4992674D01*
X3649979Y5005527D01*
X3643833Y5017719D01*
X3636111Y5028946D01*
X3626967Y5039055D01*
X3616553Y5047894D01*
X3605072Y5055209D01*
X3592677Y5060950D01*
X3579672Y5065014D01*
X3566210Y5067249D01*
X3552596Y5067706D01*
X3539032Y5066385D01*
X3525774Y5063185D01*
X3513023Y5058308D01*
X3501085Y5051755D01*
X3490112Y5043678D01*
X3480308Y5034178D01*
X3471824Y5023459D01*
X3464864Y5011724D01*
X3459581Y4999177D01*
X3455974Y4986020D01*
X3454146Y4972507D01*
X3454146Y4958892D01*
X3455974Y4945380D01*
X3459581Y4932222D01*
X3464864Y4919675D01*
X3471824Y4907940D01*
X3480308Y4897221D01*
X3490112Y4887722D01*
X3501085Y4879644D01*
X3513023Y4873091D01*
X3525774Y4868214D01*
X3539032Y4865014D01*
G37*
G36*
X4060596Y4863693D02*
G01*
X4074210Y4864100D01*
X4087672Y4866386D01*
X4100677Y4870450D01*
X4113072Y4876190D01*
X4124553Y4883505D01*
X4134967Y4892294D01*
X4144111Y4902454D01*
X4151833Y4913680D01*
X4157979Y4925822D01*
X4162450Y4938725D01*
X4165193Y4952085D01*
X4166108Y4965700D01*
X4165193Y4979314D01*
X4162450Y4992674D01*
X4157979Y5005527D01*
X4151833Y5017719D01*
X4144111Y5028946D01*
X4134967Y5039055D01*
X4124553Y5047894D01*
X4113072Y5055209D01*
X4100677Y5060950D01*
X4087672Y5065014D01*
X4074210Y5067249D01*
X4060596Y5067706D01*
X4047032Y5066385D01*
X4033774Y5063185D01*
X4021023Y5058308D01*
X4009085Y5051755D01*
X3998112Y5043678D01*
X3988308Y5034178D01*
X3979824Y5023459D01*
X3972864Y5011724D01*
X3967581Y4999177D01*
X3963974Y4986020D01*
X3962146Y4972507D01*
X3962146Y4958892D01*
X3963974Y4945380D01*
X3967581Y4932222D01*
X3972864Y4919675D01*
X3979824Y4907940D01*
X3988308Y4897221D01*
X3998112Y4887722D01*
X4009085Y4879644D01*
X4021023Y4873091D01*
X4033774Y4868214D01*
X4047032Y4865014D01*
G37*
G36*
X1520596Y4977993D02*
G01*
X1534210Y4978400D01*
X1547672Y4980686D01*
X1560677Y4984750D01*
X1573072Y4990490D01*
X1584553Y4997805D01*
X1594967Y5006594D01*
X1604111Y5016754D01*
X1611833Y5027980D01*
X1617980Y5040122D01*
X1622450Y5053025D01*
X1625193Y5066385D01*
X1626107Y5080000D01*
X1625193Y5093614D01*
X1622450Y5106974D01*
X1617980Y5119827D01*
X1611833Y5132019D01*
X1604111Y5143246D01*
X1594967Y5153355D01*
X1584553Y5162194D01*
X1573072Y5169509D01*
X1560677Y5175250D01*
X1547672Y5179314D01*
X1534210Y5181549D01*
X1520596Y5182006D01*
X1507032Y5180685D01*
X1493774Y5177485D01*
X1481023Y5172608D01*
X1469085Y5166055D01*
X1458112Y5157978D01*
X1448308Y5148478D01*
X1439824Y5137759D01*
X1432864Y5126024D01*
X1427581Y5113477D01*
X1423974Y5100320D01*
X1422146Y5086807D01*
X1422146Y5073192D01*
X1423974Y5059680D01*
X1427581Y5046522D01*
X1432864Y5033975D01*
X1439824Y5022240D01*
X1448308Y5011521D01*
X1458112Y5002022D01*
X1469085Y4993944D01*
X1481023Y4987391D01*
X1493774Y4982514D01*
X1507032Y4979314D01*
G37*
G36*
X2028596Y4977993D02*
G01*
X2042210Y4978400D01*
X2055672Y4980686D01*
X2068677Y4984750D01*
X2081072Y4990490D01*
X2092553Y4997805D01*
X2102967Y5006594D01*
X2112111Y5016754D01*
X2119833Y5027980D01*
X2125980Y5040122D01*
X2130450Y5053025D01*
X2133193Y5066385D01*
X2134108Y5080000D01*
X2133193Y5093614D01*
X2130450Y5106974D01*
X2125980Y5119827D01*
X2119833Y5132019D01*
X2112111Y5143246D01*
X2102967Y5153355D01*
X2092553Y5162194D01*
X2081072Y5169509D01*
X2068677Y5175250D01*
X2055672Y5179314D01*
X2042210Y5181549D01*
X2028596Y5182006D01*
X2015032Y5180685D01*
X2001774Y5177485D01*
X1989023Y5172608D01*
X1977085Y5166055D01*
X1966112Y5157978D01*
X1956307Y5148478D01*
X1947824Y5137759D01*
X1940864Y5126024D01*
X1935581Y5113477D01*
X1931974Y5100320D01*
X1930146Y5086807D01*
X1930146Y5073192D01*
X1931974Y5059680D01*
X1935581Y5046522D01*
X1940864Y5033975D01*
X1947824Y5022240D01*
X1956307Y5011521D01*
X1966112Y5002022D01*
X1977085Y4993944D01*
X1989023Y4987391D01*
X2001774Y4982514D01*
X2015032Y4979314D01*
G37*
G36*
X2561996Y4977993D02*
G01*
X2575610Y4978400D01*
X2589072Y4980686D01*
X2602077Y4984750D01*
X2614472Y4990490D01*
X2625953Y4997805D01*
X2636367Y5006594D01*
X2645511Y5016754D01*
X2653233Y5027980D01*
X2659380Y5040122D01*
X2663850Y5053025D01*
X2666593Y5066385D01*
X2667508Y5080000D01*
X2666593Y5093614D01*
X2663850Y5106974D01*
X2659380Y5119827D01*
X2653233Y5132019D01*
X2645511Y5143246D01*
X2636367Y5153355D01*
X2625953Y5162194D01*
X2614472Y5169509D01*
X2602077Y5175250D01*
X2589072Y5179314D01*
X2575610Y5181549D01*
X2561996Y5182006D01*
X2548432Y5180685D01*
X2535174Y5177485D01*
X2522423Y5172608D01*
X2510485Y5166055D01*
X2499512Y5157978D01*
X2489708Y5148478D01*
X2481224Y5137759D01*
X2474264Y5126024D01*
X2468981Y5113477D01*
X2465374Y5100320D01*
X2463546Y5086807D01*
X2463546Y5073192D01*
X2465374Y5059680D01*
X2468981Y5046522D01*
X2474264Y5033975D01*
X2481224Y5022240D01*
X2489708Y5011521D01*
X2499512Y5002022D01*
X2510485Y4993944D01*
X2522423Y4987391D01*
X2535174Y4982514D01*
X2548432Y4979314D01*
G37*
G36*
X3003550Y4988204D02*
G01*
X3003550Y5035550D01*
X2956204Y5035550D01*
X2956864Y5033975D01*
X2963824Y5022240D01*
X2972308Y5011521D01*
X2982112Y5002022D01*
X2993085Y4993944D01*
G37*
G36*
X3092450Y4988356D02*
G01*
X3097072Y4990490D01*
X3108553Y4997805D01*
X3118967Y5006594D01*
X3128111Y5016754D01*
X3135833Y5027980D01*
X3139643Y5035550D01*
X3092450Y5035550D01*
G37*
G36*
X3092450Y5124450D02*
G01*
X3139643Y5124450D01*
X3135833Y5132019D01*
X3128111Y5143246D01*
X3118967Y5153355D01*
X3108553Y5162194D01*
X3097072Y5169509D01*
X3092450Y5171643D01*
G37*
G36*
X2956204Y5124450D02*
G01*
X3003550Y5124450D01*
X3003550Y5171795D01*
X2993085Y5166055D01*
X2982112Y5157978D01*
X2972308Y5148478D01*
X2963824Y5137759D01*
X2956864Y5126024D01*
G37*

%LPD*%
D10*
G01*
X3276600Y3497300D03*
G01*
X3276600Y3797300D03*
G01*
X3276600Y4097299D03*
D11*
G01*
X1302664Y3403600D03*
G01*
X1551203Y3403600D03*
G01*
X1799767Y3403600D03*
G01*
X2057400Y3403600D03*
G01*
X2296896Y3403600D03*
G01*
X2545435Y3403600D03*
G01*
X2794000Y3403600D03*
G01*
X1054100Y3403600D03*
D12*
G01*
X889000Y2285997D03*
G01*
X889000Y2031997D03*
G01*
X889000Y1777997D03*
G01*
X889000Y1523997D03*
G01*
X889000Y1269997D03*
G01*
X889000Y1015997D03*
G01*
X889000Y761997D03*
G01*
X889000Y507997D03*
G01*
X889000Y253997D03*
G01*
X889000Y-2D03*
G01*
X889000Y-254002D03*
G01*
X889000Y-508002D03*
G01*
X889000Y-762002D03*
G01*
X889000Y-1016002D03*
G01*
X889000Y-1270002D03*
G01*
X889000Y-1524002D03*
G01*
X889000Y-1778002D03*
G01*
X889000Y-2032002D03*
G01*
X889000Y-2286002D03*
G01*
X889000Y-2540002D03*
G01*
X889000Y-2794002D03*
G01*
X889000Y-3048002D03*
G01*
X3175000Y-3048002D03*
G01*
X3175000Y-2794002D03*
G01*
X3175000Y-2540002D03*
G01*
X3175000Y-2286002D03*
G01*
X3175000Y-2032002D03*
G01*
X3175000Y-1778002D03*
G01*
X3175000Y-1524002D03*
G01*
X3175000Y-1270002D03*
G01*
X3175000Y-1016002D03*
G01*
X3175000Y-762002D03*
G01*
X3175000Y-508002D03*
G01*
X3175000Y-254002D03*
G01*
X3175000Y-2D03*
G01*
X3175000Y253997D03*
G01*
X3175000Y507997D03*
G01*
X3175000Y761997D03*
G01*
X3175000Y1015997D03*
G01*
X3175000Y1269997D03*
G01*
X3175000Y1523997D03*
G01*
X3175000Y1777997D03*
G01*
X3175000Y2031997D03*
G01*
X3175000Y2285997D03*
D13*
G01*
X1562354Y571245D03*
G01*
X1816354Y571245D03*
G01*
X2070100Y571754D03*
G01*
X2324100Y570992D03*
D14*
G01*
X2578102Y570997D03*
D15*
G01*
X2832100Y571500D03*
D17*
G01*
X4046702Y-3265296D03*
G01*
X2268702Y-3265296D03*
D18*
G01*
X2839440Y-399414D03*
G01*
X3539439Y-399414D03*
D19*
G01*
X2532456Y-128396D03*
G01*
X3846449Y-128396D03*
D20*
G01*
X2141702Y-2236596D03*
G01*
X2141702Y-1982596D03*
G01*
X2141702Y-1728596D03*
G01*
X2141702Y-1474596D03*
G01*
X2141702Y-1220596D03*
G01*
X2141702Y-966596D03*
G01*
X2141702Y-712596D03*
G01*
X2141702Y-458596D03*
D11*
G01*
X1524002Y5079997D03*
G01*
X2032002Y5079997D03*
G01*
X2565402Y5079997D03*
G01*
X3048002Y5079997D03*
G01*
X3556002Y4965697D03*
G01*
X4064002Y4965697D03*
G01*
X4064002Y4457697D03*
G01*
X4064002Y3924297D03*
G01*
X4076702Y3441697D03*
G01*
X4076702Y2933697D03*
G01*
X4064002Y2412997D03*
G01*
X4064002Y2412997D03*
G01*
X4076702Y1904997D03*
G01*
X4076702Y1409697D03*
G01*
X4064002Y901697D03*
G01*
X4064002Y380997D03*
D21*
G01*
X2050620Y4495467D03*
G01*
X1178384Y3602835D03*
G01*
X1551205Y1269997D03*
M02*
