G04 Layer: BottomSolderMaskLayer*
G04 EasyEDA v6.5.51, 2026-01-27 03:17:30*
G04 77339762291546cc9e75e89c24e87ab3,64650944e1e6431b8ca2675abf886f56,10*
G04 Gerber Generator version 0.2*
G04 Scale: 100 percent, Rotated: No, Reflected: No *
G04 Dimensions in millimeters *
G04 leading zeros omitted , absolute positions ,4 integer and 5 decimal *
%FSLAX45Y45*%
%MOMM*%

%AMMACRO1*4,1,8,-0.8463,-0.876,-0.876,-0.8461,-0.876,0.8463,-0.8463,0.876,0.8461,0.876,0.876,0.8463,0.876,-0.8461,0.8461,-0.876,-0.8463,-0.876,0*%
%ADD10O,1.301598X2.401595*%
%ADD11C,1.6256*%
%ADD12C,1.7016*%
%ADD13C,1.7516*%
%ADD14MACRO1*%
%ADD15C,1.7520*%
%ADD16C,0.0191*%
%ADD17C,3.7191*%
%ADD18O,1.66116X3.11912*%
%ADD19C,3.5192*%
%ADD20C,1.8796*%

%LPD*%
G36*
X1684731Y4293819D02*
G01*
X1681225Y4292650D01*
X1678889Y4291228D01*
X1675333Y4288485D01*
X1673148Y4284980D01*
X1672132Y4279087D01*
X1672386Y4235145D01*
X1672031Y4235145D01*
X1666798Y4240530D01*
X1659839Y4247032D01*
X1655622Y4250639D01*
X1646326Y4259326D01*
X1633270Y4270806D01*
X1627733Y4274007D01*
X1625904Y4274769D01*
X1620469Y4275937D01*
X1616659Y4275124D01*
X1613763Y4273092D01*
X1612087Y4271162D01*
X1609598Y4266996D01*
X1609598Y4259072D01*
X1612087Y4254906D01*
X1615643Y4252061D01*
X1623110Y4247032D01*
X1641297Y4231640D01*
X1653336Y4221124D01*
X1660042Y4216044D01*
X1660550Y4215180D01*
X1672843Y4205833D01*
X1695754Y4186986D01*
X1743557Y4145584D01*
X1759864Y4133545D01*
X1772818Y4123232D01*
X1777187Y4119981D01*
X1788058Y4110837D01*
X1805787Y4097324D01*
X1813255Y4090720D01*
X1815642Y4088333D01*
X1826666Y4079290D01*
X1829104Y4078325D01*
X1832356Y4077462D01*
X1842617Y4076598D01*
X1850491Y4075429D01*
X1924456Y4076090D01*
X1930958Y4077106D01*
X1935124Y4078122D01*
X1937918Y4080001D01*
X1945843Y4087622D01*
X1953412Y4094022D01*
X1976526Y4112158D01*
X1992680Y4125772D01*
X2016048Y4144162D01*
X2067661Y4187393D01*
X2101646Y4214876D01*
X2102104Y4215434D01*
X2124405Y4233672D01*
X2130450Y4238142D01*
X2131720Y4239361D01*
X2147214Y4251655D01*
X2152802Y4257243D01*
X2154885Y4261662D01*
X2154885Y4267250D01*
X2153005Y4270908D01*
X2149906Y4274058D01*
X2146249Y4275785D01*
X2140356Y4276191D01*
X2136495Y4274972D01*
X2133701Y4273143D01*
X2123490Y4263288D01*
X2115108Y4256328D01*
X2099310Y4242358D01*
X2090928Y4234230D01*
X2090470Y4234230D01*
X2090724Y4283760D01*
X2089251Y4287367D01*
X2084882Y4291482D01*
X2080717Y4293717D01*
X2076450Y4293717D01*
X2072335Y4291076D01*
X2067966Y4286402D01*
X2066899Y4282795D01*
X2066391Y4254195D01*
X2065629Y4254195D01*
X2057907Y4263085D01*
X2039772Y4280154D01*
X2034946Y4284218D01*
X2031238Y4286199D01*
X2026056Y4287367D01*
X2022093Y4286199D01*
X2017623Y4282795D01*
X2015388Y4279087D01*
X2014372Y4274413D01*
X2015439Y4268724D01*
X2017471Y4265422D01*
X2027224Y4256938D01*
X2041652Y4242816D01*
X2045360Y4239666D01*
X2060193Y4226052D01*
X2065578Y4220514D01*
X2065578Y4219702D01*
X2054148Y4208424D01*
X2040229Y4195724D01*
X1994814Y4157268D01*
X1985365Y4149039D01*
X1954733Y4123537D01*
X1953971Y4123537D01*
X1953971Y4224782D01*
X1952650Y4227931D01*
X1947214Y4233164D01*
X1943963Y4234586D01*
X1940560Y4235246D01*
X1935784Y4233672D01*
X1930907Y4228846D01*
X1929130Y4225137D01*
X1929434Y4108907D01*
X1928774Y4099560D01*
X1917954Y4099915D01*
X1889556Y4097477D01*
X1843989Y4097324D01*
X1837943Y4098442D01*
X1835454Y4099458D01*
X1834845Y4100982D01*
X1834489Y4226864D01*
X1832914Y4229354D01*
X1829917Y4232148D01*
X1825853Y4234129D01*
X1823516Y4234789D01*
X1821078Y4234738D01*
X1817268Y4233722D01*
X1812848Y4229862D01*
X1809953Y4226052D01*
X1809038Y4221886D01*
X1809343Y4122521D01*
X1797710Y4132579D01*
X1793748Y4136339D01*
X1787245Y4141927D01*
X1774240Y4152595D01*
X1764944Y4160520D01*
X1762150Y4162653D01*
X1756562Y4167987D01*
X1747266Y4174896D01*
X1740763Y4181043D01*
X1728216Y4192015D01*
X1723085Y4196791D01*
X1704949Y4212590D01*
X1698193Y4219194D01*
X1698193Y4220667D01*
X1714246Y4236872D01*
X1723034Y4244695D01*
X1727250Y4248708D01*
X1732381Y4253026D01*
X1744014Y4263847D01*
X1746656Y4266082D01*
X1749602Y4270248D01*
X1749501Y4277207D01*
X1747570Y4281017D01*
X1744268Y4284319D01*
X1740052Y4286300D01*
X1733245Y4286300D01*
X1728825Y4283506D01*
X1702206Y4258157D01*
X1699463Y4255160D01*
X1698243Y4255160D01*
X1697736Y4262831D01*
X1697228Y4283760D01*
X1695196Y4287774D01*
X1690522Y4291685D01*
X1688185Y4292752D01*
G37*
G36*
X2104644Y4149598D02*
G01*
X2088134Y4144924D01*
X2070455Y4140250D01*
X2062581Y4137507D01*
X2052320Y4134612D01*
X2045360Y4132326D01*
X2037435Y4128922D01*
X2022093Y4120540D01*
X2010918Y4113326D01*
X2001215Y4106570D01*
X1994154Y4100982D01*
X1977440Y4086656D01*
X1959762Y4069334D01*
X1957578Y4066286D01*
X1958136Y4064914D01*
X1977440Y4064965D01*
X1984908Y4066184D01*
X1988362Y4067657D01*
X1992731Y4070705D01*
X2011324Y4086098D01*
X2014677Y4088333D01*
X2023008Y4094581D01*
X2029307Y4098442D01*
X2029714Y4098442D01*
X2037435Y4102862D01*
X2043277Y4105452D01*
X2050948Y4108246D01*
X2075789Y4116070D01*
X2076246Y4116070D01*
X2075738Y4111650D01*
X2073859Y4102862D01*
X2072487Y4098645D01*
X2067001Y4087012D01*
X2064562Y4082846D01*
X2059533Y4076649D01*
X2052218Y4069689D01*
X2045360Y4065117D01*
X2033270Y4059478D01*
X2024430Y4056634D01*
X2014677Y4053890D01*
X2002586Y4051858D01*
X1992122Y4049572D01*
X1988616Y4048302D01*
X1974189Y4044492D01*
X1963521Y4041292D01*
X1949094Y4035907D01*
X1939798Y4031284D01*
X1931416Y4025696D01*
X1924456Y4020058D01*
X1921662Y4017264D01*
X1917852Y4012641D01*
X1915007Y4008374D01*
X1911705Y4001922D01*
X1910283Y3998671D01*
X1907590Y3990289D01*
X1905660Y3981907D01*
X1904695Y3975404D01*
X1903780Y3957269D01*
X1903730Y3893820D01*
X1860550Y3893820D01*
X1859025Y3893210D01*
X1859534Y3957726D01*
X1860143Y3973068D01*
X1859076Y3982415D01*
X1858060Y3988460D01*
X1854911Y3997248D01*
X1853336Y4002379D01*
X1845310Y4015435D01*
X1840179Y4020616D01*
X1834438Y4025036D01*
X1824939Y4030675D01*
X1817014Y4034637D01*
X1806803Y4038701D01*
X1778863Y4047794D01*
X1768652Y4050537D01*
X1749094Y4054246D01*
X1737969Y4056989D01*
X1732381Y4058615D01*
X1725015Y4061764D01*
X1716125Y4066895D01*
X1707743Y4074007D01*
X1700733Y4081830D01*
X1698599Y4084726D01*
X1691284Y4100525D01*
X1689963Y4104690D01*
X1688795Y4110278D01*
X1687982Y4111904D01*
X1687982Y4114647D01*
X1690979Y4114088D01*
X1706321Y4109465D01*
X1720494Y4104538D01*
X1726336Y4101642D01*
X1730959Y4098848D01*
X1732381Y4098239D01*
X1737664Y4094683D01*
X1738274Y4094683D01*
X1744014Y4090771D01*
X1757019Y4080764D01*
X1774698Y4068876D01*
X1777034Y4067810D01*
X1784553Y4065879D01*
X1800250Y4065981D01*
X1803044Y4066590D01*
X1803400Y4068318D01*
X1802587Y4068876D01*
X1799386Y4073093D01*
X1796135Y4076801D01*
X1784400Y4088434D01*
X1769567Y4100576D01*
X1747266Y4116882D01*
X1741678Y4120540D01*
X1734261Y4124909D01*
X1724761Y4129582D01*
X1717497Y4132478D01*
X1701698Y4137456D01*
X1675180Y4144467D01*
X1662023Y4147718D01*
X1657299Y4147718D01*
X1656689Y4144264D01*
X1657248Y4131513D01*
X1660042Y4115612D01*
X1662277Y4105605D01*
X1665122Y4094937D01*
X1667967Y4086809D01*
X1671980Y4078173D01*
X1675841Y4071924D01*
X1681683Y4064812D01*
X1686204Y4058869D01*
X1693925Y4052265D01*
X1698752Y4048658D01*
X1707286Y4043679D01*
X1715617Y4039920D01*
X1718868Y4038752D01*
X1731467Y4033418D01*
X1740763Y4029964D01*
X1781657Y4019346D01*
X1801215Y4013708D01*
X1802841Y4012844D01*
X1804517Y4012844D01*
X1810512Y4010456D01*
X1813763Y4008932D01*
X1820265Y4004614D01*
X1825447Y3999128D01*
X1828342Y3994861D01*
X1830882Y3989374D01*
X1832610Y3982415D01*
X1833778Y3974033D01*
X1833778Y3887978D01*
X1830730Y3867505D01*
X1829816Y3856380D01*
X1830187Y3853738D01*
X1852472Y3853738D01*
X1853184Y3868572D01*
X1907692Y3869690D01*
X1908403Y3868978D01*
X1908403Y3851910D01*
X1903526Y3846626D01*
X1898396Y3841800D01*
X1890471Y3835603D01*
X1883968Y3832250D01*
X1878787Y3832199D01*
X1876094Y3833571D01*
X1870506Y3837228D01*
X1865884Y3841038D01*
X1852472Y3853738D01*
X1830187Y3853738D01*
X1831289Y3846829D01*
X1832102Y3846322D01*
X1832102Y3845001D01*
X1834997Y3838752D01*
X1837842Y3834485D01*
X1845513Y3825697D01*
X1854707Y3816858D01*
X1858416Y3814013D01*
X1862582Y3812032D01*
X1871421Y3809593D01*
X1883765Y3808120D01*
X1891436Y3809695D01*
X1896313Y3811371D01*
X1902561Y3813962D01*
X1910943Y3820210D01*
X1921713Y3831234D01*
X1924913Y3835450D01*
X1927707Y3840073D01*
X1929688Y3844290D01*
X1931568Y3849827D01*
X1932584Y3854043D01*
X1933448Y3863187D01*
X1932584Y3874515D01*
X1931568Y3879596D01*
X1930552Y3883355D01*
X1929536Y3884625D01*
X1928977Y3918661D01*
X1928672Y3981450D01*
X1930806Y3988917D01*
X1932584Y3992829D01*
X1932584Y3993387D01*
X1937156Y4000042D01*
X1940712Y4003344D01*
X1945843Y4007561D01*
X1953260Y4011726D01*
X1960727Y4014571D01*
X1967230Y4016552D01*
X1997913Y4023664D01*
X2006752Y4025341D01*
X2022551Y4029710D01*
X2033270Y4033418D01*
X2037181Y4035196D01*
X2037638Y4035196D01*
X2048611Y4040225D01*
X2060041Y4046321D01*
X2069947Y4052976D01*
X2080260Y4063288D01*
X2085848Y4070756D01*
X2090420Y4077715D01*
X2095195Y4087012D01*
X2098090Y4094479D01*
X2100884Y4102862D01*
X2102662Y4109821D01*
X2104593Y4119575D01*
X2106472Y4132122D01*
X2107031Y4146143D01*
X2106422Y4149598D01*
G37*
G36*
X2003602Y3998976D02*
G01*
X1989074Y3996080D01*
X1985365Y3994861D01*
X1984044Y3992168D01*
X1983282Y3984244D01*
X1982368Y3963314D01*
X1980539Y3942384D01*
X1979472Y3912158D01*
X1980082Y3907028D01*
X1978914Y3839768D01*
X1970582Y3834129D01*
X1911908Y3775811D01*
X1882749Y3745890D01*
X1881835Y3745890D01*
X1815947Y3812184D01*
X1789582Y3838295D01*
X1786636Y3840022D01*
X1786077Y3841953D01*
X1786077Y3920540D01*
X1784807Y3976014D01*
X1784146Y3977081D01*
X1783283Y3985158D01*
X1782521Y3989374D01*
X1780895Y3992778D01*
X1778660Y3994251D01*
X1773326Y3995674D01*
X1766316Y3997045D01*
X1759508Y3997045D01*
X1759966Y3984701D01*
X1761134Y3849370D01*
X1759508Y3830777D01*
X1765147Y3828084D01*
X1767230Y3826611D01*
X1785874Y3807968D01*
X1802587Y3790391D01*
X1822602Y3770528D01*
X1863039Y3731209D01*
X1874418Y3720947D01*
X1881124Y3715207D01*
X1882902Y3715207D01*
X1893265Y3725672D01*
X1897938Y3729431D01*
X1905812Y3736848D01*
X1968601Y3798671D01*
X1979777Y3809390D01*
X1998370Y3827881D01*
X2003247Y3831590D01*
X2003247Y3942842D01*
X2004161Y3964228D01*
X2004415Y3997756D01*
G37*
G36*
X1956968Y3996131D02*
G01*
X1953260Y3995115D01*
X1949297Y3993184D01*
X1944776Y3988815D01*
X1942795Y3985006D01*
X1942795Y3978910D01*
X1944725Y3974846D01*
X1947824Y3971239D01*
X1951736Y3969156D01*
X1957120Y3969156D01*
X1962861Y3972051D01*
X1965807Y3975201D01*
X1967738Y3978656D01*
X1969007Y3983126D01*
X1967839Y3987037D01*
X1965604Y3991762D01*
X1963521Y3993692D01*
X1961184Y3994912D01*
G37*
G36*
X1805279Y3996131D02*
G01*
X1800758Y3993083D01*
X1796846Y3987342D01*
X1796237Y3982262D01*
X1796897Y3979164D01*
X1798726Y3974947D01*
X1800758Y3972763D01*
X1804720Y3970020D01*
X1810969Y3970020D01*
X1815642Y3972306D01*
X1817979Y3974947D01*
X1820011Y3979316D01*
X1820570Y3984244D01*
X1818995Y3988917D01*
X1816150Y3993083D01*
X1814982Y3994251D01*
X1810969Y3996029D01*
G37*
G36*
X2315972Y4533138D02*
G01*
X2306066Y4503420D01*
X2365502Y4503420D01*
X2365502Y4493514D01*
X2251456Y4493514D01*
X2261362Y4394200D01*
X2395220Y4394200D01*
X2395220Y4443730D01*
X2375408Y4423918D01*
X2288286Y4423918D01*
X2284222Y4463542D01*
X2395220Y4463542D01*
X2395220Y4533138D01*
G37*
G36*
X2107692Y4533138D02*
G01*
X2107692Y4394200D01*
X2157222Y4394200D01*
X2137410Y4414012D01*
X2137410Y4453636D01*
X2196846Y4453636D01*
X2196846Y4455414D01*
X2168906Y4483608D01*
X2137410Y4483608D01*
X2137410Y4503420D01*
X2161032Y4503420D01*
X2216658Y4447540D01*
X2216658Y4394200D01*
X2246630Y4394200D01*
X2246630Y4459986D01*
X2173224Y4533138D01*
G37*
G36*
X1958848Y4533138D02*
G01*
X1958848Y4463542D01*
X2067814Y4463542D01*
X2067814Y4414012D01*
X2048002Y4394200D01*
X2097786Y4394200D01*
X2097786Y4493514D01*
X1988566Y4493514D01*
X1988566Y4503420D01*
X2097786Y4503420D01*
X2097786Y4533138D01*
G37*
G36*
X1810004Y4533138D02*
G01*
X1810004Y4463542D01*
X1918970Y4463542D01*
X1918970Y4414012D01*
X1899157Y4394200D01*
X1948942Y4394200D01*
X1948942Y4493514D01*
X1839722Y4493514D01*
X1839722Y4503420D01*
X1948942Y4503420D01*
X1948942Y4533138D01*
G37*
G36*
X1661160Y4533138D02*
G01*
X1661160Y4503420D01*
X1715770Y4503420D01*
X1715770Y4394200D01*
X1765300Y4394200D01*
X1745488Y4414012D01*
X1745488Y4503420D01*
X1800098Y4503420D01*
X1800098Y4533138D01*
G37*
G36*
X1571752Y4533138D02*
G01*
X1561846Y4503420D01*
X1621536Y4503420D01*
X1621536Y4493514D01*
X1512316Y4493514D01*
X1512316Y4463542D01*
X1621536Y4463542D01*
X1621536Y4423918D01*
X1532128Y4423918D01*
X1512316Y4443730D01*
X1512316Y4394200D01*
X1651254Y4394200D01*
X1651254Y4533138D01*
G37*
G36*
X1363472Y4533138D02*
G01*
X1363472Y4463542D01*
X1418082Y4463542D01*
X1348486Y4394200D01*
X1390650Y4394200D01*
X1459992Y4463542D01*
X1472692Y4463542D01*
X1472692Y4414012D01*
X1452880Y4394200D01*
X1502410Y4394200D01*
X1502410Y4533138D01*
X1472692Y4533138D01*
X1472692Y4493514D01*
X1393190Y4493514D01*
X1393190Y4533138D01*
G37*
D10*
G01*
X3276600Y3497300D03*
G01*
X3276600Y3797300D03*
G01*
X3276600Y4097299D03*
D11*
G01*
X1302664Y3403600D03*
G01*
X1551203Y3403600D03*
G01*
X1799767Y3403600D03*
G01*
X2057400Y3403600D03*
G01*
X2296896Y3403600D03*
G01*
X2545435Y3403600D03*
G01*
X2794000Y3403600D03*
G01*
X1054100Y3403600D03*
D12*
G01*
X889000Y2285997D03*
G01*
X889000Y2031997D03*
G01*
X889000Y1777997D03*
G01*
X889000Y1523997D03*
G01*
X889000Y1269997D03*
G01*
X889000Y1015997D03*
G01*
X889000Y761997D03*
G01*
X889000Y507997D03*
G01*
X889000Y253997D03*
G01*
X889000Y-2D03*
G01*
X889000Y-254002D03*
G01*
X889000Y-508002D03*
G01*
X889000Y-762002D03*
G01*
X889000Y-1016002D03*
G01*
X889000Y-1270002D03*
G01*
X889000Y-1524002D03*
G01*
X889000Y-1778002D03*
G01*
X889000Y-2032002D03*
G01*
X889000Y-2286002D03*
G01*
X889000Y-2540002D03*
G01*
X889000Y-2794002D03*
G01*
X889000Y-3048002D03*
G01*
X3175000Y-3048002D03*
G01*
X3175000Y-2794002D03*
G01*
X3175000Y-2540002D03*
G01*
X3175000Y-2286002D03*
G01*
X3175000Y-2032002D03*
G01*
X3175000Y-1778002D03*
G01*
X3175000Y-1524002D03*
G01*
X3175000Y-1270002D03*
G01*
X3175000Y-1016002D03*
G01*
X3175000Y-762002D03*
G01*
X3175000Y-508002D03*
G01*
X3175000Y-254002D03*
G01*
X3175000Y-2D03*
G01*
X3175000Y253997D03*
G01*
X3175000Y507997D03*
G01*
X3175000Y761997D03*
G01*
X3175000Y1015997D03*
G01*
X3175000Y1269997D03*
G01*
X3175000Y1523997D03*
G01*
X3175000Y1777997D03*
G01*
X3175000Y2031997D03*
G01*
X3175000Y2285997D03*
D13*
G01*
X1562354Y571245D03*
G01*
X1816354Y571245D03*
G01*
X2070100Y571754D03*
G01*
X2324100Y570992D03*
D14*
G01*
X2578100Y570992D03*
D15*
G01*
X2832100Y571500D03*
D17*
G01*
X4046702Y-3265296D03*
G01*
X2268702Y-3265296D03*
D18*
G01*
X2839440Y-399414D03*
G01*
X3539439Y-399414D03*
D19*
G01*
X2532456Y-128396D03*
G01*
X3846449Y-128396D03*
D20*
G01*
X2141702Y-2236596D03*
G01*
X2141702Y-1982596D03*
G01*
X2141702Y-1728596D03*
G01*
X2141702Y-1474596D03*
G01*
X2141702Y-1220596D03*
G01*
X2141702Y-966596D03*
G01*
X2141702Y-712596D03*
G01*
X2141702Y-458596D03*
D11*
G01*
X1524002Y5079997D03*
G01*
X2032002Y5079997D03*
G01*
X2565402Y5079997D03*
G01*
X3048002Y5079997D03*
G01*
X3556002Y4965697D03*
G01*
X4064002Y4965697D03*
G01*
X4064002Y4457697D03*
G01*
X4064002Y3924297D03*
G01*
X4076702Y3441697D03*
G01*
X4076702Y2933697D03*
G01*
X4064002Y2412997D03*
G01*
X4064002Y2412997D03*
G01*
X4076702Y1904997D03*
G01*
X4076702Y1409697D03*
G01*
X4064002Y901697D03*
G01*
X4064002Y380997D03*
M02*
